<?xml version="1.0" encoding="UTF-8"?>
<svg id="svg1" xmlns="http://www.w3.org/2000/svg" xmlns:svg="http://www.w3.org/2000/svg" xmlns:sodipodi="http://sodipodi.sourceforge.net/DTD/sodipodi-0.dtd" xmlns:rdf="http://www.w3.org/1999/02/22-rdf-syntax-ns#" xmlns:inkscape="http://www.inkscape.org/namespaces/inkscape" xmlns:dc="http://purl.org/dc/elements/1.1/" xmlns:cc="http://creativecommons.org/ns#" version="1.1" viewBox="0 0 1160.07 152">
  <!-- Generator: Adobe Illustrator 29.5.1, SVG Export Plug-In . SVG Version: 2.1.0 Build 141)  -->
  <defs>
    <style>
      .st0 {
        fill: #f90000;
      }

      .st0, .st1, .st2, .st3 {
        display: none;
      }

      .st0, .st2 {
        isolation: isolate;
        opacity: .55;
      }

      .st1 {
        fill: #fd0101;
        fill-opacity: .38;
      }
    </style>
  </defs>
  <sodipodi:namedview id="namedview1" bordercolor="#000000" borderopacity="0.25" inkscape:current-layer="svg1" inkscape:cx="507.73432" inkscape:cy="475.20538" inkscape:deskcolor="#d1d1d1" inkscape:document-units="mm" inkscape:pagecheckerboard="false" inkscape:pageopacity="0.0" inkscape:showpageshadow="2" inkscape:window-height="847" inkscape:window-maximized="0" inkscape:window-width="1440" inkscape:window-x="0" inkscape:window-y="25" inkscape:zoom="0.35353135" pagecolor="#ffffff" showgrid="true">
    <inkscape:grid id="grid5" color="#0099e5" empcolor="#0099e5" empopacity="0.30196078" empspacing="5" enabled="true" opacity="0.14901961" originx="-6.0476923" originy="-5.8998995" spacingx="0.52916688" spacingy="0.52916688" units="px" visible="true"/>
    <sodipodi:guide id="guide6" inkscape:locked="false" orientation="0,16" position="-6.0476922,-215.64534"/>
    <sodipodi:guide id="guide7" inkscape:locked="false" orientation="16,0" position="-1.814357,-215.64534"/>
    <sodipodi:guide id="guide8" inkscape:locked="false" orientation="0,-16" position="-1.814357,-219.87867"/>
    <sodipodi:guide id="guide9" inkscape:locked="false" orientation="-16,0" position="-6.0476922,-219.87867"/>
    <sodipodi:guide id="guide10" inkscape:locked="false" orientation="0,16" position="-0.65862955,59.16742"/>
    <sodipodi:guide id="guide11" inkscape:locked="false" orientation="16,0" position="-1.814357,-215.64534"/>
    <sodipodi:guide id="guide12" inkscape:locked="false" orientation="0,-16" position="-1.814357,-219.87867"/>
    <sodipodi:guide id="guide13" inkscape:locked="false" orientation="-16,0" position="-6.0476922,-219.87867"/>
    <inkscape:page id="page13" x="0" y="0" width="399.00836" height="53.621552" bleed="0" margin="0"/>
  </sodipodi:namedview>
  <g id="_x3C_defs">
    <inkscape:path-effect id="path-effect710" apply_no_radius="true" apply_with_radius="true" chamfer_steps="1" effect="fillet_chamfer" flexible="false" hide_knots="false" is_visible="true" lpeversion="1" method="auto" mode="F" nodesatellites_param="F,0,0,1,0,0.026458344,0,1 @ F,0,0,1,0,0.026458344,0,1 @ F,0,0,1,0,0.026458344,0,1 @ F,0,0,1,0,0.026458344,0,1 @ F,0,0,1,0,0.026458344,0,1 @ F,0,0,1,0,0.026458344,0,1" only_selected="false" radius="0.5" unit="px" use_knot_distance="true"/>
    <inkscape:path-effect id="path-effect706" effect="spiro" is_visible="true" lpeversion="1"/>
    <inkscape:path-effect id="path-effect681" effect="spiro" is_visible="true" lpeversion="1"/>
    <inkscape:path-effect id="path-effect680" effect="spiro" is_visible="true" lpeversion="1"/>
    <inkscape:path-effect id="path-effect679" effect="spiro" is_visible="true" lpeversion="1"/>
    <inkscape:path-effect id="path-effect678" effect="spiro" is_visible="true" lpeversion="1"/>
    <inkscape:path-effect id="path-effect610" effect="spiro" is_visible="true" lpeversion="1"/>
    <inkscape:path-effect id="path-effect609" effect="spiro" is_visible="true" lpeversion="1"/>
    <inkscape:path-effect id="path-effect605" effect="spiro" is_visible="true" lpeversion="1"/>
    <inkscape:path-effect id="path-effect604" effect="spiro" is_visible="true" lpeversion="1"/>
    <inkscape:path-effect id="path-effect600" apply_no_radius="true" apply_with_radius="true" chamfer_steps="1" effect="fillet_chamfer" flexible="false" hide_knots="false" is_visible="true" lpeversion="1" method="auto" mode="F" nodesatellites_param="F,0,0,1,0,0.13229172,0,1 @ F,0,0,1,0,0.13229172,0,1 @ F,0,0,1,0,0.13229172,0,1 @ F,0,0,1,0,0.13229172,0,1" only_selected="false" radius="0.5" unit="px" use_knot_distance="true"/>
    <inkscape:path-effect id="path-effect599" apply_no_radius="true" apply_with_radius="true" chamfer_steps="1" effect="fillet_chamfer" flexible="false" hide_knots="false" is_visible="true" lpeversion="1" method="auto" mode="F" nodesatellites_param="F,0,0,1,0,0.13229172,0,1 @ F,0,0,1,0,0.13229172,0,1 @ F,0,0,1,0,0.13229172,0,1" only_selected="false" radius="0.5" unit="px" use_knot_distance="true"/>
    <inkscape:path-effect id="path-effect598" apply_no_radius="true" apply_with_radius="true" chamfer_steps="1" effect="fillet_chamfer" flexible="false" hide_knots="false" is_visible="true" lpeversion="1" method="auto" mode="F" nodesatellites_param="F,0,0,1,0,0.13229172,0,1 @ F,0,0,1,0,0.13229172,0,1 @ F,0,0,1,0,0.13229172,0,1 @ F,0,0,1,0,0.13229172,0,1" only_selected="false" radius="0.5" unit="px" use_knot_distance="true"/>
    <inkscape:path-effect id="path-effect597" apply_no_radius="true" apply_with_radius="true" chamfer_steps="1" effect="fillet_chamfer" flexible="false" hide_knots="false" is_visible="true" lpeversion="1" method="auto" mode="F" nodesatellites_param="F,0,0,1,0,0.13229172,0,1 @ F,0,0,1,0,0.13229172,0,1 @ F,0,0,1,0,0.13229172,0,1 @ F,0,0,1,0,0.13229172,0,1" only_selected="false" radius="0.5" unit="px" use_knot_distance="true"/>
    <inkscape:path-effect id="path-effect596" apply_no_radius="true" apply_with_radius="true" chamfer_steps="1" effect="fillet_chamfer" flexible="false" hide_knots="false" is_visible="true" lpeversion="1" method="auto" mode="F" nodesatellites_param="F,0,0,1,0,0.13229172,0,1 @ F,0,0,1,0,0.13229172,0,1 @ F,0,0,1,0,0.13229172,0,1" only_selected="false" radius="0.5" unit="px" use_knot_distance="true"/>
    <inkscape:path-effect id="path-effect584" apply_no_radius="true" apply_with_radius="true" chamfer_steps="1" effect="fillet_chamfer" flexible="false" hide_knots="false" is_visible="true" lpeversion="1" method="auto" mode="F" nodesatellites_param="F,0,0,1,0,0.13229172,0,1 @ F,0,0,1,0,0.13229172,0,1 @ F,0,0,1,0,0.13229172,0,1 @ F,0,0,1,0,0.13229172,0,1 @ F,0,0,1,0,0.13229172,0,1 @ F,0,0,1,0,0.13229172,0,1 @ F,0,0,1,0,0.13229172,0,1 @ F,0,0,1,0,0.13229172,0,1 @ F,0,0,1,0,0.13229172,0,1 @ F,0,0,1,0,0.13229172,0,1 @ F,0,0,1,0,0.13229172,0,1 @ F,0,0,1,0,0.13229172,0,1 @ F,0,0,1,0,0.13229172,0,1" only_selected="false" radius="0.5" unit="px" use_knot_distance="true"/>
    <inkscape:path-effect id="path-effect569" effect="spiro" is_visible="true" lpeversion="1"/>
    <inkscape:path-effect id="path-effect567" effect="spiro" is_visible="true" lpeversion="1"/>
    <inkscape:path-effect id="path-effect565" effect="spiro" is_visible="true" lpeversion="1"/>
    <inkscape:path-effect id="path-effect563" effect="spiro" is_visible="true" lpeversion="1"/>
    <inkscape:path-effect id="path-effect561" effect="spiro" is_visible="true" lpeversion="1"/>
    <inkscape:path-effect id="path-effect559" effect="spiro" is_visible="true" lpeversion="1"/>
    <inkscape:path-effect id="path-effect538" effect="spiro" is_visible="true" lpeversion="1"/>
    <inkscape:path-effect id="path-effect537" effect="spiro" is_visible="true" lpeversion="1"/>
    <inkscape:path-effect id="path-effect536" effect="spiro" is_visible="true" lpeversion="1"/>
    <inkscape:path-effect id="path-effect535" effect="spiro" is_visible="true" lpeversion="1"/>
    <inkscape:path-effect id="path-effect534" effect="spiro" is_visible="true" lpeversion="1"/>
    <inkscape:path-effect id="path-effect533" effect="spiro" is_visible="true" lpeversion="1"/>
    <inkscape:path-effect id="path-effect459" effect="spiro" is_visible="true" lpeversion="1"/>
    <inkscape:path-effect id="path-effect458" effect="spiro" is_visible="true" lpeversion="1"/>
    <inkscape:path-effect id="path-effect457" effect="spiro" is_visible="true" lpeversion="1"/>
    <inkscape:path-effect id="path-effect456" effect="spiro" is_visible="true" lpeversion="1"/>
    <inkscape:path-effect id="path-effect453" apply_no_radius="true" apply_with_radius="true" chamfer_steps="1" effect="fillet_chamfer" flexible="false" hide_knots="false" is_visible="true" lpeversion="1" method="auto" mode="F" nodesatellites_param="F,0,0,1,0,0.13229172,0,1 @ F,0,0,1,0,0.13229172,0,1 @ F,0,0,1,0,0.13229172,0,1 @ F,0,0,1,0,0.13229172,0,1 @ F,0,0,1,0,0.13229172,0,1 @ F,0,0,1,0,0.13229172,0,1 @ F,0,0,1,0,0.13229172,0,1 @ F,0,0,1,0,0.13229172,0,1 @ F,0,0,1,0,0.13229172,0,1 @ F,0,0,1,0,0.13229172,0,1 @ F,0,0,1,0,0.13229172,0,1 @ F,0,0,1,0,0.13229172,0,1 @ F,0,0,1,0,0.13229172,0,1" only_selected="false" radius="0.5" unit="px" use_knot_distance="true"/>
    <inkscape:path-effect id="path-effect445" apply_no_radius="true" apply_with_radius="true" chamfer_steps="1" effect="fillet_chamfer" flexible="false" hide_knots="false" is_visible="true" lpeversion="1" method="auto" mode="F" nodesatellites_param="F,0,0,1,0,0.13229172,0,1 @ F,0,0,1,0,0.13229172,0,1 @ F,0,0,1,0,0.13229172,0,1 @ F,0,0,1,0,0.13229172,0,1 @ F,0,0,1,0,0.13229172,0,1 @ F,0,0,1,0,0.13229172,0,1 @ F,0,0,1,0,0.13229172,0,1 @ F,0,0,1,0,0.13229172,0,1 @ F,0,0,1,0,0.13229172,0,1 @ F,0,0,1,0,0.13229172,0,1 @ F,0,0,1,0,0.13229172,0,1 @ F,0,0,1,0,0.13229172,0,1 @ F,0,0,1,0,0.13229172,0,1" only_selected="false" radius="0.5" unit="px" use_knot_distance="true"/>
    <inkscape:path-effect id="path-effect437" effect="spiro" is_visible="true" lpeversion="1"/>
    <inkscape:path-effect id="path-effect436" effect="spiro" is_visible="true" lpeversion="1"/>
    <inkscape:path-effect id="path-effect435" effect="spiro" is_visible="true" lpeversion="1"/>
    <inkscape:path-effect id="path-effect434" effect="spiro" is_visible="true" lpeversion="1"/>
    <inkscape:path-effect id="path-effect433" effect="spiro" is_visible="true" lpeversion="1"/>
    <inkscape:path-effect id="path-effect422" effect="spiro" is_visible="true" lpeversion="1"/>
    <inkscape:path-effect id="path-effect421" apply_no_radius="true" apply_with_radius="true" chamfer_steps="1" effect="fillet_chamfer" flexible="false" hide_knots="false" is_visible="true" lpeversion="1" method="auto" mode="F" nodesatellites_param="F,0,0,1,0,0.13229172,0,1 @ F,0,0,1,0,0.13229172,0,1 @ F,0,0,1,0,0.13229172,0,1 @ F,0,0,1,0,0.13229172,0,1 @ F,0,0,1,0,0.13229172,0,1 @ F,0,0,1,0,0.13229172,0,1 @ F,0,0,1,0,0.13229172,0,1 @ F,0,0,1,0,0.13229172,0,1 @ F,0,0,1,0,0.13229172,0,1 @ F,0,0,1,0,0.13229172,0,1 @ F,0,0,1,0,0.13229172,0,1 @ F,0,0,1,0,0.13229172,0,1 @ F,0,0,1,0,0.13229172,0,1" only_selected="false" radius="0.5" unit="px" use_knot_distance="true"/>
    <inkscape:path-effect id="path-effect414" apply_no_radius="true" apply_with_radius="true" chamfer_steps="1" effect="fillet_chamfer" flexible="false" hide_knots="false" is_visible="true" lpeversion="1" method="auto" mode="F" nodesatellites_param="F,0,0,1,0,0.13229172,0,1 @ F,0,0,1,0,0.13229172,0,1 @ F,0,0,1,0,0.13229172,0,1 @ F,0,0,1,0,0.13229172,0,1 @ F,0,0,1,0,0.13229172,0,1 @ F,0,0,1,0,0.13229172,0,1 @ F,0,0,1,0,0.13229172,0,1 @ F,0,0,1,0,0.13229172,0,1 @ F,0,0,1,0,0.13229172,0,1 @ F,0,0,1,0,0.13229172,0,1 @ F,0,0,1,0,0.13229172,0,1 @ F,0,0,1,0,0.13229172,0,1 @ F,0,0,1,0,0.13229172,0,1" only_selected="false" radius="0.5" unit="px" use_knot_distance="true"/>
    <inkscape:path-effect id="path-effect401" effect="spiro" is_visible="true" lpeversion="1"/>
    <inkscape:path-effect id="path-effect400" effect="spiro" is_visible="true" lpeversion="1"/>
    <inkscape:path-effect id="path-effect399" effect="spiro" is_visible="true" lpeversion="1"/>
    <inkscape:path-effect id="path-effect398" effect="spiro" is_visible="true" lpeversion="1"/>
    <inkscape:path-effect id="path-effect397" effect="spiro" is_visible="true" lpeversion="1"/>
    <inkscape:path-effect id="path-effect396" effect="spiro" is_visible="true" lpeversion="1"/>
    <inkscape:path-effect id="path-effect395" effect="spiro" is_visible="true" lpeversion="1"/>
    <inkscape:path-effect id="path-effect394" effect="spiro" is_visible="true" lpeversion="1"/>
    <inkscape:path-effect id="path-effect393" effect="spiro" is_visible="true" lpeversion="1"/>
    <inkscape:path-effect id="path-effect392" effect="spiro" is_visible="true" lpeversion="1"/>
    <inkscape:path-effect id="path-effect391" effect="spiro" is_visible="true" lpeversion="1"/>
    <inkscape:path-effect id="path-effect390" effect="spiro" is_visible="true" lpeversion="1"/>
    <inkscape:path-effect id="path-effect389" effect="spiro" is_visible="true" lpeversion="1"/>
    <inkscape:path-effect id="path-effect388" effect="spiro" is_visible="true" lpeversion="1"/>
    <inkscape:path-effect id="path-effect387" effect="spiro" is_visible="true" lpeversion="1"/>
    <inkscape:path-effect id="path-effect382" apply_no_radius="true" apply_with_radius="true" chamfer_steps="1" effect="fillet_chamfer" flexible="false" hide_knots="false" is_visible="true" lpeversion="1" method="auto" mode="F" nodesatellites_param="F,0,0,1,0,0.13229172,0,1 @ F,0,0,1,0,0.13229172,0,1 @ F,0,0,1,0,0.13229172,0,1 @ F,0,0,1,0,0.13229172,0,1 @ F,0,0,1,0,0.13229172,0,1 @ F,0,0,1,0,0.13229172,0,1 @ F,0,0,1,0,0.13229172,0,1 @ F,0,0,1,0,0.13229172,0,1 @ F,0,0,1,0,0.13229172,0,1 @ F,0,0,1,0,0.13229172,0,1 @ F,0,0,1,0,0.13229172,0,1 @ F,0,0,1,0,0.13229172,0,1 @ F,0,0,1,0,0.13229172,0,1" only_selected="false" radius="0.5" unit="px" use_knot_distance="true"/>
    <inkscape:path-effect id="path-effect378" apply_no_radius="true" apply_with_radius="true" chamfer_steps="1" effect="fillet_chamfer" flexible="false" hide_knots="false" is_visible="true" lpeversion="1" method="auto" mode="F" nodesatellites_param="F,0,0,1,0,0.13229172,0,1 @ F,0,0,1,0,0.13229172,0,1 @ F,0,0,1,0,0.13229172,0,1 @ F,0,0,1,0,0.13229172,0,1 @ F,0,0,1,0,0.13229172,0,1 @ F,0,0,1,0,0.13229172,0,1 @ F,0,0,1,0,0.13229172,0,1 @ F,0,0,1,0,0.13229172,0,1 @ F,0,0,1,0,0.13229172,0,1 @ F,0,0,1,0,0.13229172,0,1 @ F,0,0,1,0,0.13229172,0,1 @ F,0,0,1,0,0.13229172,0,1 @ F,0,0,1,0,0.13229172,0,1" only_selected="false" radius="0.5" unit="px" use_knot_distance="true"/>
    <inkscape:path-effect id="path-effect367" apply_no_radius="true" apply_with_radius="true" chamfer_steps="1" effect="fillet_chamfer" flexible="false" hide_knots="false" is_visible="true" lpeversion="1" method="auto" mode="F" nodesatellites_param="F,0,0,1,0,0,0,1 @ F,0,0,1,0,0,0,1 @ F,0,0,1,0,0,0,1 @ F,0,0,1,0,0,0,1 @ F,0,0,1,0,0,0,1 @ F,0,0,1,0,0,0,1 @ F,0,0,1,0,0,0,1 @ F,0,0,1,0,0,0,1 @ F,0,0,1,0,0,0,1 @ F,0,0,1,0,0,0,1 @ F,0,0,1,0,0,0,1 @ F,0,0,1,0,0,0,1 @ F,0,0,1,0,0,0,1 @ F,0,0,1,0,0,0,1" only_selected="false" radius="0" unit="px" use_knot_distance="true"/>
    <inkscape:path-effect id="path-effect366" effect="spiro" is_visible="true" lpeversion="1"/>
    <inkscape:path-effect id="path-effect365" effect="spiro" is_visible="true" lpeversion="1"/>
    <inkscape:path-effect id="path-effect364" apply_no_weight="true" apply_with_weight="true" effect="bspline" helper_size="0" is_visible="true" lpeversion="1.3" only_selected="false" steps="2" uniform="false" weight="33.333333"/>
    <inkscape:path-effect id="path-effect363" effect="spiro" is_visible="true" lpeversion="1"/>
    <inkscape:path-effect id="path-effect362" effect="spiro" is_visible="true" lpeversion="1"/>
    <inkscape:path-effect id="path-effect361" effect="spiro" is_visible="true" lpeversion="1"/>
    <inkscape:path-effect id="path-effect360" apply_no_radius="true" apply_with_radius="true" chamfer_steps="1" effect="fillet_chamfer" flexible="false" hide_knots="false" is_visible="true" lpeversion="1" method="auto" mode="F" nodesatellites_param="F,0,0,1,0,0,0,1 @ F,0,0,1,0,0,0,1 @ F,0,0,1,0,0,0,1 @ F,0,0,1,0,0,0,1 @ F,0,0,1,0,0,0,1 @ F,0,0,1,0,0,0,1 @ F,0,0,1,0,0,0,1 @ F,0,0,1,0,0,0,1 @ F,0,0,1,0,0,0,1 @ F,0,0,1,0,0,0,1 @ F,0,0,1,0,0,0,1 @ F,0,0,1,0,0,0,1 @ F,0,0,1,0,0,0,1 @ F,0,0,1,0,0,0,1 @ F,0,0,1,0,0,0,1" only_selected="false" radius="0" unit="px" use_knot_distance="true"/>
    <inkscape:path-effect id="path-effect359" apply_no_radius="true" apply_with_radius="true" chamfer_steps="1" effect="fillet_chamfer" flexible="false" hide_knots="false" is_visible="true" lpeversion="1" method="auto" mode="F" nodesatellites_param="F,0,0,1,0,0.26490036,0,1 @ F,0,0,1,0,0,0,1 @ F,0,0,1,0,0,0,1 @ F,0,0,1,0,0,0,1 @ F,0,0,1,0,0,0,1 @ F,0,0,1,0,0,0,1 @ F,0,0,1,0,0.21949854,0,1 @ F,0,0,1,0,0.2237714,0,1 @ F,0,0,1,0,0,0,1 @ F,0,0,1,0,0,0,1 @ F,0,0,1,0,0,0,1 @ F,0,0,1,0,0,0,1 @ F,0,0,1,0,0,0,1 @ F,0,0,1,0,0.19635181,0,1 @ F,0,0,1,0,0.24338188,0,1" only_selected="false" radius="0" unit="px" use_knot_distance="true"/>
    <inkscape:path-effect id="path-effect358" apply_no_radius="true" apply_with_radius="true" chamfer_steps="1" effect="fillet_chamfer" flexible="false" hide_knots="false" is_visible="true" lpeversion="1" method="auto" mode="F" nodesatellites_param="F,0,0,1,0,0,0,1 @ F,0,0,1,0,0,0,1 @ F,0,0,1,0,0,0,1 @ F,0,0,1,0,0,0,1 @ F,0,0,1,0,0,0,1 @ F,0,0,1,0,0,0,1 @ F,0,0,1,0,0,0,1 @ F,0,0,1,0,0,0,1 @ F,0,0,1,0,0,0,1 @ F,0,0,1,0,0,0,1 @ F,0,0,1,0,0,0,1 @ F,0,0,1,0,0,0,1 @ F,0,0,1,0,0,0,1 @ F,0,0,1,0,0.19594438,0,1 @ F,0,0,1,0,0,0,1" only_selected="false" radius="0" unit="px" use_knot_distance="true"/>
    <inkscape:path-effect id="path-effect357" apply_no_radius="true" apply_with_radius="true" chamfer_steps="1" effect="fillet_chamfer" flexible="false" hide_knots="false" is_visible="true" lpeversion="1" method="auto" mode="F" nodesatellites_param="F,0,0,1,0,0,0,1 @ F,0,0,1,0,0,0,1 @ F,0,0,1,0,0,0,1 @ F,0,0,1,0,0,0,1 @ F,0,0,1,0,0,0,1 @ F,0,0,1,0,0,0,1 @ F,0,0,1,0,0,0,1 @ F,0,0,1,0,0,0,1 @ F,0,0,1,0,0,0,1 @ F,0,0,1,0,0,0,1 @ F,0,0,1,0,0,0,1 @ F,0,0,1,0,0,0,1 @ F,0,0,1,0,0,0,1 @ F,0,0,1,0,0,0,1 @ F,0,0,1,0,0,0,1" only_selected="false" radius="0" unit="px" use_knot_distance="true"/>
    <inkscape:path-effect id="path-effect356" apply_no_radius="true" apply_with_radius="true" chamfer_steps="1" effect="fillet_chamfer" flexible="false" hide_knots="false" is_visible="true" lpeversion="1" method="auto" mode="F" nodesatellites_param="F,0,0,1,0,0,0,1 @ F,0,0,1,0,0,0,1 @ F,0,0,1,0,0,0,1 @ F,0,0,1,0,0,0,1 @ F,0,0,1,0,0,0,1 @ F,0,0,1,0,0,0,1 @ F,0,0,1,0,0,0,1 @ F,0,0,1,0,0,0,1 @ F,0,0,1,0,0,0,1 @ F,0,0,1,0,0,0,1 @ F,0,0,1,0,0,0,1 @ F,0,0,1,0,0,0,1 @ F,0,0,1,0,0,0,1 @ F,0,0,1,0,0,0,1 @ F,0,0,1,0,0,0,1" only_selected="false" radius="0" unit="px" use_knot_distance="true"/>
    <inkscape:path-effect id="path-effect355" apply_no_radius="true" apply_with_radius="true" chamfer_steps="1" effect="fillet_chamfer" flexible="false" hide_knots="false" is_visible="true" lpeversion="1" method="auto" mode="F" nodesatellites_param="F,0,0,1,0,0,0,1 @ F,0,0,1,0,0,0,1 @ F,0,0,1,0,0,0,1 @ F,0,0,1,0,0,0,1 @ F,0,0,1,0,0,0,1 @ F,0,0,1,0,0,0,1 @ F,0,0,1,0,0,0,1 @ F,0,0,1,0,0,0,1 @ F,0,0,1,0,0,0,1 @ F,0,0,1,0,0,0,1 @ F,0,0,1,0,0,0,1 @ F,0,0,1,0,0,0,1 @ F,0,0,1,0,0,0,1 @ F,0,0,1,0,0,0,1 @ F,0,0,1,0,0,0,1" only_selected="false" radius="0" unit="px" use_knot_distance="true"/>
    <inkscape:path-effect id="path-effect354" apply_no_radius="true" apply_with_radius="true" chamfer_steps="1" effect="fillet_chamfer" flexible="false" hide_knots="false" is_visible="true" lpeversion="1" method="auto" mode="F" nodesatellites_param="F,0,0,1,0,0,0,1 @ F,0,0,1,0,0,0,1 @ F,0,0,1,0,0,0,1 @ F,0,0,1,0,0,0,1 @ F,0,0,1,0,0,0,1 @ F,0,0,1,0,0,0,1 @ F,0,0,1,0,0,0,1 @ F,0,0,1,0,0,0,1 @ F,0,0,1,0,0,0,1 @ F,0,0,1,0,0,0,1 @ F,0,0,1,0,0,0,1 @ F,0,0,1,0,0,0,1 @ F,0,0,1,0,0,0,1 @ F,0,0,1,0,0,0,1 @ F,0,0,1,0,0,0,1" only_selected="false" radius="0" unit="px" use_knot_distance="true"/>
    <inkscape:path-effect id="path-effect353" apply_no_radius="true" apply_with_radius="true" chamfer_steps="1" effect="fillet_chamfer" flexible="false" hide_knots="false" is_visible="true" lpeversion="1" method="auto" mode="F" nodesatellites_param="F,0,0,1,0,0,0,1 @ F,0,0,1,0,0,0,1 @ F,0,0,1,0,0,0,1 @ F,0,0,1,0,0,0,1 @ F,0,0,1,0,0,0,1 @ F,0,0,1,0,0,0,1 @ F,0,0,1,0,0,0,1 @ F,0,0,1,0,0,0,1 @ F,0,0,1,0,0,0,1 @ F,0,0,1,0,0,0,1 @ F,0,0,1,0,0,0,1 @ F,0,0,1,0,0,0,1 @ F,0,0,1,0,0,0,1 @ F,0,0,1,0,0,0,1 @ F,0,0,1,0,0,0,1" only_selected="false" radius="0" unit="px" use_knot_distance="true"/>
    <inkscape:path-effect id="path-effect352" apply_no_radius="true" apply_with_radius="true" chamfer_steps="1" effect="fillet_chamfer" flexible="false" hide_knots="false" is_visible="true" lpeversion="1" method="auto" mode="F" nodesatellites_param="F,0,0,1,0,0.37158363,0,1 @ F,0,0,1,0,0,0,1 @ F,0,0,1,0,0,0,1 @ F,0,0,1,0,0,0,1 @ F,0,0,1,0,0,0,1 @ F,0,0,1,0,0,0,1 @ F,0,0,1,0,0.22972536,0,1 @ F,0,0,1,0,0,0,1 @ F,0,0,1,0,0,0,1 @ F,0,0,1,0,0,0,1 @ F,0,0,1,0,0,0,1 @ F,0,0,1,0,0,0,1 @ F,0,0,1,0,0,0,1 @ F,0,0,1,0,0,0,1 @ F,0,0,1,0,0.2339601,0,1" only_selected="false" radius="0" unit="px" use_knot_distance="true"/>
    <inkscape:path-effect id="path-effect351" apply_no_radius="true" apply_with_radius="true" chamfer_steps="1" effect="fillet_chamfer" flexible="false" hide_knots="false" is_visible="true" lpeversion="1" method="auto" mode="F" nodesatellites_param="F,0,0,1,0,0,0,1 @ F,0,0,1,0,0,0,1 @ F,0,0,1,0,0,0,1 @ F,0,0,1,0,0,0,1 @ F,0,0,1,0,0,0,1 @ F,0,0,1,0,0,0,1 @ F,0,0,1,0,0,0,1 @ F,0,0,1,0,0,0,1 @ F,0,0,1,0,0,0,1 @ F,0,0,1,0,0,0,1 @ F,0,0,1,0,0,0,1 @ F,0,0,1,0,0,0,1 @ F,0,0,1,0,0,0,1 @ F,0,0,1,0,0,0,1 @ F,0,0,1,0,0,0,1" only_selected="false" radius="0" unit="px" use_knot_distance="true"/>
    <inkscape:path-effect id="path-effect350" apply_no_radius="true" apply_with_radius="true" chamfer_steps="1" effect="fillet_chamfer" flexible="false" hide_knots="false" is_visible="true" lpeversion="1" method="auto" mode="F" nodesatellites_param="F,0,0,1,0,0,0,1 @ F,0,0,1,0,0,0,1 @ F,0,0,1,0,0,0,1 @ F,0,0,1,0,0,0,1 @ F,0,0,1,0,0,0,1 @ F,0,0,1,0,0,0,1 @ F,0,0,1,0,0,0,1 @ F,0,0,1,0,0,0,1 @ F,0,0,1,0,0,0,1 @ F,0,0,1,0,0,0,1 @ F,0,0,1,0,0,0,1 @ F,0,0,1,0,0,0,1 @ F,0,0,1,0,0,0,1 @ F,0,0,1,0,0,0,1 @ F,0,0,1,0,0,0,1" only_selected="false" radius="0" unit="px" use_knot_distance="true"/>
    <inkscape:path-effect id="path-effect349" apply_no_radius="true" apply_with_radius="true" chamfer_steps="1" effect="fillet_chamfer" flexible="false" hide_knots="false" is_visible="true" lpeversion="1" method="auto" mode="F" nodesatellites_param="F,0,0,1,0,0,0,1 @ F,0,0,1,0,0,0,1 @ F,0,0,1,0,0,0,1 @ F,0,0,1,0,0,0,1 @ F,0,0,1,0,0,0,1 @ F,0,0,1,0,0,0,1 @ F,0,0,1,0,0,0,1 @ F,0,0,1,0,0,0,1 @ F,0,0,1,0,0,0,1 @ F,0,0,1,0,0,0,1 @ F,0,0,1,0,0,0,1 @ F,0,0,1,0,0,0,1 @ F,0,0,1,0,0,0,1 @ F,0,0,1,0,0,0,1 @ F,0,0,1,0,0,0,1" only_selected="false" radius="0" unit="px" use_knot_distance="true"/>
    <inkscape:path-effect id="path-effect348" apply_no_radius="true" apply_with_radius="true" chamfer_steps="1" effect="fillet_chamfer" flexible="false" hide_knots="false" is_visible="true" lpeversion="1" method="auto" mode="F" nodesatellites_param="F,0,0,1,0,0.39079844,0,1 @ F,0,0,1,0,0,0,1 @ F,0,0,1,0,0,0,1 @ F,0,0,1,0,0,0,1 @ F,0,0,1,0,0,0,1 @ F,0,0,1,0,0,0,1 @ F,0,0,1,0,0,0,1 @ F,0,0,1,0,0,0,1 @ F,0,0,1,0,0,0,1 @ F,0,0,1,0,0,0,1 @ F,0,0,1,0,0,0,1 @ F,0,0,1,0,0,0,1 @ F,0,0,1,0,0,0,1 @ F,0,0,1,0,0,0,1 @ F,0,0,1,0,0,0,1" only_selected="false" radius="0" unit="px" use_knot_distance="true"/>
    <inkscape:path-effect id="path-effect347" apply_no_radius="true" apply_with_radius="true" chamfer_steps="1" effect="fillet_chamfer" flexible="false" hide_knots="false" is_visible="true" lpeversion="1" method="auto" mode="F" nodesatellites_param="F,0,0,1,0,0,0,1 @ F,0,0,1,0,0,0,1 @ F,0,0,1,0,0,0,1 @ F,0,0,1,0,0,0,1 @ F,0,0,1,0,0,0,1 @ F,0,0,1,0,0,0,1 @ F,0,0,1,0,0,0,1 @ F,0,0,1,0,0,0,1 @ F,0,0,1,0,0,0,1 @ F,0,0,1,0,0,0,1 @ F,0,0,1,0,0,0,1 @ F,0,0,1,0,0,0,1 @ F,0,0,1,0,0,0,1 @ F,0,0,1,0,0,0,1 @ F,0,0,1,0,0,0,1" only_selected="false" radius="0" unit="px" use_knot_distance="true"/>
    <inkscape:path-effect id="path-effect346" apply_no_radius="true" apply_with_radius="true" chamfer_steps="1" effect="fillet_chamfer" flexible="false" hide_knots="false" is_visible="true" lpeversion="1" method="auto" mode="F" nodesatellites_param="F,0,0,1,0,0,0,1 @ F,0,0,1,0,0,0,1 @ F,0,0,1,0,0,0,1 @ F,0,0,1,0,0,0,1 @ F,0,0,1,0,0,0,1 @ F,0,0,1,0,0.24222554,0,1 @ F,0,0,1,0,0.22614087,0,1 @ F,0,0,1,0,0,0,1 @ F,0,0,1,0,0,0,1 @ F,0,0,1,0,0,0,1 @ F,0,0,1,0,0,0,1 @ F,0,0,1,0,0,0,1 @ F,0,0,1,0,0,0,1 @ F,0,0,1,0,0,0,1 @ F,0,0,1,0,0,0,1" only_selected="false" radius="0" unit="px" use_knot_distance="true"/>
    <inkscape:path-effect id="path-effect345" apply_no_radius="true" apply_with_radius="true" chamfer_steps="1" effect="fillet_chamfer" flexible="false" hide_knots="false" is_visible="true" lpeversion="1" method="auto" mode="F" nodesatellites_param="F,0,0,1,0,0,0,1 @ F,0,0,1,0,0,0,1 @ F,0,0,1,0,0,0,1 @ F,0,0,1,0,0,0,1 @ F,0,0,1,0,0,0,1 @ F,0,0,1,0,0,0,1 @ F,0,0,1,0,0,0,1 @ F,0,0,1,0,0,0,1 @ F,0,0,1,0,0,0,1 @ F,0,0,1,0,0,0,1 @ F,0,0,1,0,0,0,1 @ F,0,0,1,0,0,0,1 @ F,0,0,1,0,0,0,1 @ F,0,0,1,0,0,0,1 @ F,0,0,1,0,0.25376047,0,1" only_selected="false" radius="0" unit="px" use_knot_distance="true"/>
    <inkscape:path-effect id="path-effect344" apply_no_radius="true" apply_with_radius="true" chamfer_steps="1" effect="fillet_chamfer" flexible="false" hide_knots="false" is_visible="true" lpeversion="1" method="auto" mode="F" nodesatellites_param="F,0,0,1,0,0,0,1 @ F,0,0,1,0,0,0,1 @ F,0,0,1,0,0,0,1 @ F,0,0,1,0,0,0,1 @ F,0,0,1,0,0,0,1 @ F,0,0,1,0,0,0,1 @ F,0,0,1,0,0,0,1 @ F,0,0,1,0,0,0,1 @ F,0,0,1,0,0,0,1 @ F,0,0,1,0,0,0,1 @ F,0,0,1,0,0,0,1 @ F,0,0,1,0,0,0,1 @ F,0,0,1,0,0,0,1 @ F,0,0,1,0,0,0,1 @ F,0,0,1,0,0,0,1" only_selected="false" radius="0" unit="px" use_knot_distance="true"/>
    <inkscape:path-effect id="path-effect343" apply_no_radius="true" apply_with_radius="true" chamfer_steps="1" effect="fillet_chamfer" flexible="false" hide_knots="false" is_visible="true" lpeversion="1" method="auto" mode="F" nodesatellites_param="F,0,0,1,0,0,0,1 @ F,0,0,1,0,0,0,1 @ F,0,0,1,0,0,0,1 @ F,0,0,1,0,0,0,1 @ F,0,0,1,0,0,0,1 @ F,0,0,1,0,0,0,1 @ F,0,0,1,0,0,0,1 @ F,0,0,1,0,0,0,1 @ F,0,0,1,0,0,0,1 @ F,0,0,1,0,0,0,1 @ F,0,0,1,0,0,0,1 @ F,0,0,1,0,0,0,1 @ F,0,0,1,0,0,0,1 @ F,0,0,1,0,0,0,1 @ F,0,0,1,0,0,0,1" only_selected="false" radius="0" unit="px" use_knot_distance="true"/>
    <inkscape:path-effect id="path-effect342" apply_no_radius="true" apply_with_radius="true" chamfer_steps="1" effect="fillet_chamfer" flexible="false" hide_knots="false" is_visible="true" lpeversion="1" method="auto" mode="F" nodesatellites_param="F,0,0,1,0,0,0,1 @ F,0,0,1,0,0,0,1 @ F,0,0,1,0,0,0,1 @ F,0,0,1,0,0,0,1 @ F,0,0,1,0,0,0,1 @ F,0,0,1,0,0,0,1 @ F,0,0,1,0,0,0,1 @ F,0,0,1,0,0,0,1 @ F,0,0,1,0,0,0,1 @ F,0,0,1,0,0,0,1 @ F,0,0,1,0,0,0,1 @ F,0,0,1,0,0,0,1 @ F,0,0,1,0,0,0,1 @ F,0,0,1,0,0,0,1 @ F,0,0,1,0,0,0,1" only_selected="false" radius="0" unit="px" use_knot_distance="true"/>
    <inkscape:path-effect id="path-effect341" apply_no_radius="true" apply_with_radius="true" chamfer_steps="1" effect="fillet_chamfer" flexible="false" hide_knots="false" is_visible="true" lpeversion="1" method="auto" mode="F" nodesatellites_param="F,0,0,1,0,0,0,1 @ F,0,0,1,0,0,0,1 @ F,0,0,1,0,0,0,1 @ F,0,0,1,0,0,0,1 @ F,0,0,1,0,0,0,1 @ F,0,0,1,0,0,0,1 @ F,0,0,1,0,0,0,1 @ F,0,0,1,0,0,0,1 @ F,0,0,1,0,0,0,1 @ F,0,0,1,0,0,0,1 @ F,0,0,1,0,0,0,1 @ F,0,0,1,0,0,0,1 @ F,0,0,1,0,0,0,1 @ F,0,0,1,0,0,0,1 @ F,0,0,1,0,0,0,1 @ F,0,0,1,0,0,0,1 @ F,0,0,1,0,0,0,1" only_selected="false" radius="0" unit="px" use_knot_distance="true"/>
    <inkscape:path-effect id="path-effect340" apply_no_radius="true" apply_with_radius="true" chamfer_steps="1" effect="fillet_chamfer" flexible="false" hide_knots="false" is_visible="true" lpeversion="1" method="auto" mode="F" nodesatellites_param="F,0,0,1,0,0,0,1 @ F,0,0,1,0,0,0,1 @ F,0,0,1,0,0,0,1 @ F,0,0,1,0,0,0,1 @ F,0,0,1,0,0,0,1 @ F,0,0,1,0,0,0,1 @ F,0,0,1,0,0,0,1 @ F,0,0,1,0,0,0,1 @ F,0,0,1,0,0,0,1 @ F,0,0,1,0,0,0,1 @ F,0,0,1,0,0,0,1 @ F,0,0,1,0,0,0,1 @ F,0,0,1,0,0,0,1 @ F,0,0,1,0,0,0,1 @ F,0,0,1,0,0,0,1 @ F,0,0,1,0,0,0,1 @ F,0,0,1,0,0,0,1" only_selected="false" radius="0" unit="px" use_knot_distance="true"/>
    <inkscape:path-effect id="path-effect339" apply_no_radius="true" apply_with_radius="true" chamfer_steps="1" effect="fillet_chamfer" flexible="false" hide_knots="false" is_visible="true" lpeversion="1" method="auto" mode="F" nodesatellites_param="F,0,0,1,0,0,0,1 @ F,0,0,1,0,0,0,1 @ F,0,0,1,0,0,0,1 @ F,0,0,1,0,0,0,1 @ F,0,0,1,0,0,0,1 @ F,0,0,1,0,0,0,1 @ F,0,0,1,0,0,0,1 @ F,0,0,1,0,0,0,1 @ F,0,0,1,0,0,0,1 @ F,0,0,1,0,0,0,1 @ F,0,0,1,0,0,0,1 @ F,0,0,1,0,0,0,1 @ F,0,0,1,0,0,0,1 @ F,0,0,1,0,0,0,1 @ F,0,0,1,0,0,0,1 @ F,0,0,1,0,0,0,1 @ F,0,0,1,0,0,0,1" only_selected="false" radius="0" unit="px" use_knot_distance="true"/>
    <inkscape:path-effect id="path-effect338" apply_no_radius="true" apply_with_radius="true" chamfer_steps="1" effect="fillet_chamfer" flexible="false" hide_knots="false" is_visible="true" lpeversion="1" method="auto" mode="F" nodesatellites_param="F,0,0,1,0,0,0,1 @ F,0,0,1,0,0,0,1 @ F,0,0,1,0,0,0,1 @ F,0,0,1,0,0,0,1 @ F,0,0,1,0,0,0,1 @ F,0,0,1,0,0,0,1 @ F,0,0,1,0,0,0,1 @ F,0,0,1,0,0,0,1 @ F,0,0,1,0,0,0,1 @ F,0,0,1,0,0,0,1 @ F,0,0,1,0,0,0,1 @ F,0,0,1,0,0,0,1 @ F,0,0,1,0,0,0,1 @ F,0,0,1,0,0,0,1 @ F,0,0,1,0,0,0,1 @ F,0,0,1,0,0,0,1 @ F,0,0,1,0,0,0,1 @ F,0,0,1,0,0,0,1" only_selected="false" radius="0" unit="px" use_knot_distance="true"/>
    <inkscape:path-effect id="path-effect337" apply_no_radius="true" apply_with_radius="true" chamfer_steps="1" effect="fillet_chamfer" flexible="false" hide_knots="false" is_visible="true" lpeversion="1" method="auto" mode="F" nodesatellites_param="F,0,0,1,0,0,0,1 @ F,0,0,1,0,0,0,1 @ F,0,0,1,0,0,0,1 @ F,0,0,1,0,0,0,1 @ F,0,0,1,0,0,0,1 @ F,0,0,1,0,0,0,1 @ F,0,0,1,0,0,0,1 @ F,0,0,1,0,0,0,1 @ F,0,0,1,0,0,0,1 @ F,0,0,1,0,0,0,1 @ F,0,0,1,0,0,0,1 @ F,0,0,1,0,0,0,1 @ F,0,0,1,0,0,0,1 @ F,0,0,1,0,0,0,1 @ F,0,0,1,0,0,0,1 @ F,0,0,1,0,0,0,1 @ F,0,0,1,0,0,0,1 @ F,0,0,1,0,0,0,1" only_selected="false" radius="0" unit="px" use_knot_distance="true"/>
    <inkscape:path-effect id="path-effect336" apply_no_radius="true" apply_with_radius="true" chamfer_steps="1" effect="fillet_chamfer" flexible="false" hide_knots="false" is_visible="true" lpeversion="1" method="auto" mode="F" nodesatellites_param="F,0,0,1,0,0,0,1 @ F,0,0,1,0,0,0,1 @ F,0,0,1,0,0,0,1 @ F,0,0,1,0,0,0,1 @ F,0,0,1,0,0,0,1 @ F,0,0,1,0,0,0,1 @ F,0,0,1,0,0,0,1 @ F,0,0,1,0,0,0,1 @ F,0,0,1,0,0,0,1 @ F,0,0,1,0,0,0,1 @ F,0,0,1,0,0,0,1 @ F,0,0,1,0,0,0,1 @ F,0,0,1,0,0,0,1 @ F,0,0,1,0,0,0,1 @ F,0,0,1,0,0,0,1 @ F,0,0,1,0,0,0,1 @ F,0,0,1,0,0,0,1 @ F,0,0,1,0,0,0,1" only_selected="false" radius="0" unit="px" use_knot_distance="true"/>
    <inkscape:path-effect id="path-effect335" apply_no_radius="true" apply_with_radius="true" chamfer_steps="1" effect="fillet_chamfer" flexible="false" hide_knots="false" is_visible="true" lpeversion="1" method="auto" mode="F" nodesatellites_param="F,0,0,1,0,0,0,1 @ F,0,0,1,0,0,0,1 @ F,0,0,1,0,0,0,1 @ F,0,0,1,0,0,0,1 @ F,0,0,1,0,0,0,1 @ F,0,0,1,0,0,0,1 @ F,0,0,1,0,0,0,1 @ F,0,0,1,0,0,0,1 @ F,0,0,1,0,0,0,1 @ F,0,0,1,0,0,0,1 @ F,0,0,1,0,0,0,1 @ F,0,0,1,0,0,0,1 @ F,0,0,1,0,0,0,1 @ F,0,0,1,0,0,0,1 @ F,0,0,1,0,0,0,1 @ F,0,0,1,0,0,0,1 @ F,0,0,1,0,0,0,1 @ F,0,0,1,0,0,0,1" only_selected="false" radius="0" unit="px" use_knot_distance="true"/>
    <inkscape:path-effect id="path-effect334" apply_no_radius="true" apply_with_radius="true" chamfer_steps="1" effect="fillet_chamfer" flexible="false" hide_knots="false" is_visible="true" lpeversion="1" method="auto" mode="F" nodesatellites_param="F,0,0,1,0,0,0,1 @ F,0,0,1,0,0,0,1 @ F,0,0,1,0,0,0,1 @ F,0,0,1,0,0,0,1 @ F,0,0,1,0,0,0,1 @ F,0,0,1,0,0,0,1 @ F,0,0,1,0,0,0,1 @ F,0,0,1,0,0,0,1 @ F,0,0,1,0,0,0,1 @ F,0,0,1,0,0,0,1 @ F,0,0,1,0,0,0,1 @ F,0,0,1,0,0,0,1 @ F,0,0,1,0,0,0,1 @ F,0,0,1,0,0,0,1 @ F,0,0,1,0,0,0,1 @ F,0,0,1,0,0,0,1 @ F,0,0,1,0,0,0,1 @ F,0,0,1,0,0,0,1" only_selected="false" radius="0" unit="px" use_knot_distance="true"/>
    <inkscape:path-effect id="path-effect267" effect="spiro" is_visible="true" lpeversion="1"/>
    <inkscape:path-effect id="path-effect266" apply_no_radius="true" apply_with_radius="true" chamfer_steps="1" effect="fillet_chamfer" flexible="false" hide_knots="false" is_visible="true" lpeversion="1" method="auto" mode="F" nodesatellites_param="F,0,0,1,0,0,0,1 @ F,0,0,1,0,0,0,1 @ F,0,0,1,0,0,0,1 @ F,0,0,1,0,0,0,1 @ F,0,0,1,0,0,0,1 @ F,0,0,1,0,0,0,1 @ F,0,0,1,0,0,0,1 @ F,0,0,1,0,0,0,1 @ F,0,0,1,0,0,0,1 @ F,0,0,1,0,0,0,1 @ F,0,0,1,0,0,0,1 @ F,0,0,1,0,0,0,1" only_selected="false" radius="0" unit="px" use_knot_distance="true"/>
    <inkscape:path-effect id="path-effect84" apply_no_radius="true" apply_with_radius="true" chamfer_steps="1" effect="fillet_chamfer" flexible="false" hide_knots="false" is_visible="true" lpeversion="1" method="auto" mode="F" nodesatellites_param="F,0,0,1,0,0,0,1 @ F,0,0,1,0,0,0,1 @ F,0,0,1,0,0,0,1 @ F,0,0,1,0,0,0,1 @ F,0,0,1,0,0,0,1 @ F,0,0,1,0,0,0,1 @ F,0,0,1,0,0,0,1 @ F,0,0,1,0,0,0,1 @ F,0,0,1,0,0,0,1 @ F,0,0,1,0,0,0,1 @ F,0,0,1,0,0,0,1 @ F,0,0,1,0,0,0,1 @ F,0,0,1,0,0,0,1 @ F,0,0,1,0,0,0,1 @ F,0,0,1,0,0,0,1 @ F,0,0,1,0,0,0,1 @ F,0,0,1,0,0,0,1 @ F,0,0,1,0,0,0,1 @ F,0,0,1,0,0,0,1 @ F,0,0,1,0,0,0,1 @ F,0,0,1,0,0,0,1 @ F,0,0,1,0,0,0,1 @ F,0,0,1,0,0,0,1 @ F,0,0,1,0,0,0,1 @ F,0,0,1,0,0,0,1 @ F,0,0,1,0,0,0,1 @ F,0,0,1,0,0,0,1 @ F,0,0,1,0,0,0,1 @ F,0,0,1,0,0,0,1 @ F,0,0,1,0,0,0,1 @ F,0,0,1,0,0,0,1 @ F,0,0,1,0,0,0,1 @ F,0,0,1,0,0,0,1 @ F,0,0,1,0,0,0,1 @ F,0,0,1,0,0,0,1 @ F,0,0,1,0,0,0,1 | F,0,0,1,0,0,0,1 @ F,0,0,1,0,0,0,1 @ F,0,0,1,0,0,0,1 @ F,0,0,1,0,0,0,1 | F,0,0,1,0,0,0,1 @ F,0,0,1,0,0,0,1 @ F,0,0,1,0,0,0,1 @ F,0,0,1,0,0,0,1 @ F,0,0,1,0,0,0,1" only_selected="false" radius="0" unit="px" use_knot_distance="true"/>
    <inkscape:path-effect id="path-effect393-5" effect="spiro" is_visible="true" lpeversion="1"/>
    <inkscape:path-effect id="path-effect433-3" effect="spiro" is_visible="true" lpeversion="1"/>
    <inkscape:path-effect id="path-effect433-5" effect="spiro" is_visible="true" lpeversion="1"/>
    <inkscape:path-effect id="path-effect456-6" effect="spiro" is_visible="true" lpeversion="1"/>
    <inkscape:path-effect id="path-effect456-6-3" effect="spiro" is_visible="true" lpeversion="1"/>
    <inkscape:path-effect id="path-effect457-7" effect="spiro" is_visible="true" lpeversion="1"/>
    <inkscape:path-effect id="path-effect678-5" effect="spiro" is_visible="true" lpeversion="1"/>
    <inkscape:path-effect id="path-effect678-5-3" effect="spiro" is_visible="true" lpeversion="1"/>
    <inkscape:path-effect id="path-effect710-0" apply_no_radius="true" apply_with_radius="true" chamfer_steps="1" effect="fillet_chamfer" flexible="false" hide_knots="false" is_visible="true" lpeversion="1" method="auto" mode="F" nodesatellites_param="F,0,0,1,0,0.026458344,0,1 @ F,0,0,1,0,0.026458344,0,1 @ F,0,0,1,0,0.026458344,0,1 @ F,0,0,1,0,0.026458344,0,1 @ F,0,0,1,0,0.026458344,0,1 @ F,0,0,1,0,0.026458344,0,1" only_selected="false" radius="0.5" unit="px" use_knot_distance="true"/>
  </g>
  <g id="g18" inkscape:groupmode="layer" inkscape:label="design 14.f">
    <path id="path12" d="M450.1,2.99v146.02h37.66v-47.56h23.44c10.66,0,19.55-1.47,26.67-4.41,7.19-2.94,13.7-7.29,19.51-13.04,4.25-4.25,7.52-9.48,9.81-15.69,2.29-6.28,3.43-12.68,3.43-19.22,0-8.43-1.57-15.66-4.71-21.67-3.07-6.01-7.55-10.95-13.43-14.81-4.9-3.2-10.56-5.59-16.97-7.16-6.34-1.63-14.15-2.45-23.44-2.45h-61.98ZM487.76,30.25h6.47c6.21,0,11.18.1,14.9.29,3.73.13,7.55.98,11.47,2.55,2.94,1.18,5.52,3.27,7.75,6.28,2.22,2.94,3.33,6.47,3.33,10.59s-.56,7.75-1.67,10.69c-1.05,2.88-2.78,5.36-5.2,7.45-2.81,2.35-6.31,3.92-10.49,4.71-4.12.78-9.38,1.18-15.79,1.18h-10.79V30.25Z"/>
    <path id="path15" class="st2" d="M29.02,149.15v-25.89h23.93V29.03h-23.93V3.14h85.51v25.89h-23.93v94.24h23.93v25.89H29.02Z" inkscape:label="i"/>
    <path id="path53" class="st3" d="M66.1,3.14v30.5s-3.15.15-2.93,1.76c.22,1.61,0,3.51,0,3.51l.58.37v2.93s-4.9.29-5.92,1.76v4.02l.73.29s-1.76,1.68-2.41,2.49c-.66.81-3.15,1.24-3.15,2.27s0,1.17.58,1.17v1.32s-.29,1.46.29,1.68l.14.58s-1.17,1.1.07,1.9c1.24.8.51.44.51.44,0,0-.22.51,1.61,1.46,0,0-2.56,1.76-2.2,3.88.37,2.12,1.39,3.66,8.23,5.19,0,0,.4,39.66-1.79,64.9,0,0-.71,9.8-.99,13.6h12.03V3.14h-5.41ZM71.51,3.14v146.02h12.03c-.27-3.79-.99-13.58-.99-13.58-2.19-25.24-1.79-64.9-1.79-64.9,6.84-1.54,7.87-3.07,8.23-5.19.37-2.12-2.19-3.88-2.19-3.88,1.83-.95,1.61-1.46,1.61-1.46,0,0-.73.36.51-.44,1.24-.8.07-1.9.07-1.9l.15-.58c.59-.22.29-1.68.29-1.68v-1.32c.59,0,.58-.14.58-1.17s-2.48-1.47-3.14-2.27c-.66-.8-2.41-2.49-2.41-2.49l.73-.29v-4.03c-1.02-1.46-5.93-1.76-5.93-1.76v-2.93l.58-.37s-.22-1.9,0-3.51c.22-1.61-2.92-1.75-2.92-1.75V3.14h-5.42Z" inkscape:label="I v6"/>
    <path id="path16" d="M369.16,151.85c-10.85,0-20.89-1.6-30.11-4.81-9.15-3.2-17.03-7.97-23.63-14.32-6.6-6.34-11.73-14.25-15.4-23.73-3.6-9.48-5.39-20.43-5.39-32.85,0-11.57,1.73-22.07,5.2-31.48s8.5-17.49,15.1-24.22c6.34-6.47,14.19-11.47,23.54-15,9.41-3.53,19.68-5.3,30.79-5.3,6.15,0,11.67.36,16.57,1.08,4.97.65,9.54,1.54,13.73,2.65,4.38,1.24,8.34,2.65,11.87,4.22,3.6,1.5,6.73,2.91,9.41,4.22v35.4h-4.31c-1.83-1.57-4.15-3.43-6.96-5.59-2.75-2.16-5.88-4.28-9.41-6.37-3.6-2.09-7.48-3.86-11.67-5.3-4.18-1.44-8.66-2.16-13.44-2.16-5.3,0-10.33.85-15.1,2.55-4.77,1.63-9.19,4.38-13.24,8.24-3.86,3.73-6.99,8.66-9.41,14.81-2.35,6.15-3.53,13.6-3.53,22.36s1.28,16.8,3.82,22.95c2.62,6.15,5.88,10.98,9.81,14.51,3.99,3.6,8.43,6.18,13.34,7.75,4.9,1.5,9.74,2.26,14.51,2.26s9.09-.69,13.53-2.06c4.51-1.37,8.66-3.24,12.45-5.59,3.2-1.9,6.18-3.92,8.92-6.08,2.75-2.16,5-4.02,6.77-5.59h3.92v34.91c-3.66,1.63-7.16,3.17-10.49,4.61-3.33,1.44-6.83,2.68-10.49,3.73-4.77,1.37-9.25,2.42-13.43,3.14s-9.94,1.08-17.26,1.08Z"/>
    <path id="path17" d="M218.28.14c-10.83,0-20.84,1.69-30.06,5.04v42.48S258.14,7.17,258.14,7.17c-2.9-1.17-5.97-2.26-9.38-3.23-4.18-1.11-8.93-2.07-13.9-2.72-4.9-.72-10.43-1.08-16.57-1.08ZM181.87,7.87c-6.85,3.3-12.72,7.53-17.74,12.65-6.6,6.73-11.71,14.68-15.17,24.09-3.25,8.83-4.96,18.63-5.16,29.37l38.05,21.9.02-88.01ZM265.36,10.5l-31.95,18.5,31.93,18.36.02-36.86ZM143.89,81.53c.44,10.18,2.14,19.28,5.2,27.34,3.66,9.48,8.79,17.39,15.4,23.73,5.91,5.67,12.9,10.18,20.87,13.37l35.14-20.34-76.61-44.1ZM265.32,107.2l-71.7,41.5c7.7,2.09,15.92,3.15,24.68,3.15,7.32,0,13.07-.36,17.26-1.08,4.18-.72,8.66-1.76,13.43-3.14,3.66-1.05,7.16-2.29,10.49-3.73,2.24-.97,3.98-1.79,5.82-2.65v-34.06Z" inkscape:label="c2"/>
    <path id="path18" class="st3" d="M231.17,0C220.34,0,210.32,1.69,201.11,5.04v42.61S271.15,7.08,271.15,7.08c-2.93-1.19-6.05-2.3-9.51-3.28-4.18-1.11-8.93-2.07-13.9-2.72C242.83.36,237.31,0,231.17,0h0ZM194.75,7.72c-6.85,3.3-12.72,7.53-17.74,12.65-6.6,6.73-11.71,14.68-15.17,24.09-3.26,8.87-4.97,18.71-5.16,29.49l38.05,21.9.02-88.13ZM278.25,10.49l-31.95,18.5,31.93,18.36.02-36.86ZM156.78,81.52c.45,10.13,2.15,19.18,5.2,27.21,3.66,9.48,8.79,17.39,15.4,23.73,5.94,5.71,12.98,10.23,21,13.42l35.01-20.27-76.6-44.09ZM278.2,107.19l-71.55,41.42c7.65,2.06,15.82,3.11,24.53,3.11,7.32,0,13.07-.36,17.26-1.08,4.18-.72,8.66-1.76,13.43-3.14,3.66-1.05,7.16-2.29,10.49-3.73,2.24-.97,3.98-1.79,5.82-2.65v-33.94Z" inkscape:label="c - too thin"/>
    <rect id="rect29" class="st0" x="102.54" y="125.28" width="6.36" height="6.36"/>
    <rect id="rect29-0" class="st0" x="68.59" y="4.48" width="6.36" height="6.36"/>
    <circle id="path29" class="st0" cx="51.72" cy="29.03" r="3.18"/>
    <circle id="path29-4" class="st0" cx="56.39" cy="21.82" r="3.18"/>
    <circle id="path29-4-1" class="st0" cx="63.19" cy="17.78" r="3.18"/>
    <path id="path23" d="M1052,1.47v82.37h4.32c4.05-.98,8.76-1.96,14.12-2.94,5.43-1.05,11.08-1.57,16.96-1.57,4.05,0,8.56.36,13.53,1.08,4.97.65,9.22,2.06,12.75,4.22,2.42,1.5,4.38,3.5,5.88,5.98,1.57,2.42,2.35,5.33,2.35,8.73,0,4.38-.59,7.62-1.77,9.71-1.11,2.09-2.78,4.15-5,6.18-2.81,2.48-6.63,4.22-11.47,5.2-4.77.92-9.22,1.37-13.34,1.37-6.8,0-13.63-1.18-20.49-3.53-6.86-2.35-13.27-5.3-19.22-8.83h-4.12v32.26c5.1,2.22,11.67,4.22,19.71,5.98,8.11,1.83,18.01,2.78,29.71,2.84,10,0,18.89-1.18,26.67-3.53,7.85-2.42,14.77-6.11,20.79-11.08,5.43-4.64,9.54-10.2,12.36-16.67,2.88-6.54,4.32-13.6,4.32-21.18,0-8.96-1.67-16.38-5-22.26-3.33-5.95-7.98-10.72-13.92-14.32-4.58-2.75-10.04-4.87-16.38-6.37-6.28-1.57-13.43-2.35-21.48-2.35-2.35,0-5.1.07-8.24.2-3.07.07-5.62.16-7.65.29v-23.83h68.45V1.47h-103.85Z"/>
    <path id="path22" d="M959.79,1.57c-9.09,0-18.18,1.01-27.26,3.04-9.02,2.03-15.85,4.05-20.49,6.08v32.46h3.14c5.69-3.86,11.83-7.03,18.44-9.51,6.67-2.48,13.01-3.73,19.03-3.73,8.04,0,14.19,1.83,18.44,5.49,4.31,3.6,6.47,8.73,6.47,15.4,0,5.56-1.67,11.18-5,16.87-3.33,5.69-8.96,12.36-16.87,20.01-5.3,5.16-12.36,11.31-21.18,18.44-8.76,7.13-17.52,13.86-26.28,20.2v24.12h114.64v-27.95h-65.61c2.55-1.83,6.83-5.03,12.85-9.61,6.01-4.64,12-9.71,17.95-15.2,9.48-8.83,16.51-17.39,21.08-25.69,4.64-8.3,6.96-17.06,6.96-26.28,0-14.06-4.81-24.91-14.42-32.56-9.61-7.71-23.57-11.57-41.87-11.57h0Z"/>
    <path id="path21" d="M677,1.57c-9.09,0-18.18,1.01-27.26,3.04-9.02,2.03-15.85,4.05-20.49,6.08v32.46h3.14c5.69-3.86,11.83-7.03,18.44-9.51,6.67-2.48,13.01-3.73,19.02-3.73,8.04,0,14.19,1.83,18.44,5.49,4.31,3.6,6.47,8.73,6.47,15.4,0,5.56-1.67,11.18-5,16.87-3.33,5.69-8.96,12.36-16.87,20.01-5.3,5.16-12.36,11.31-21.18,18.44-8.76,7.13-17.52,13.86-26.28,20.2v24.12h114.64v-27.95h-65.6c2.55-1.83,6.83-5.03,12.85-9.61,6.01-4.64,12-9.71,17.95-15.2,9.48-8.83,16.51-17.39,21.08-25.69,4.64-8.3,6.96-17.06,6.96-26.28,0-14.06-4.81-24.91-14.42-32.56-9.61-7.71-23.57-11.57-41.87-11.57h0Z"/>
    <path id="path20" d="M824.13,0c-10.72,0-19.94,1.6-27.66,4.81-7.71,3.2-13.99,8.01-18.83,14.42-4.84,6.47-8.37,14.38-10.59,23.73-2.22,9.35-3.33,20.36-3.33,33.05s1.08,23.21,3.24,32.75c2.16,9.48,5.65,17.42,10.49,23.83,4.77,6.41,11.02,11.24,18.73,14.51,7.71,3.27,17.03,4.9,27.95,4.9s20.46-1.6,28.05-4.8c7.58-3.27,13.79-8.07,18.63-14.42,4.71-6.21,8.17-14.15,10.39-23.83,2.22-9.74,3.33-20.76,3.33-33.05s-1.08-23.11-3.24-32.46c-2.16-9.41-5.62-17.33-10.39-23.73-4.84-6.54-11.05-11.44-18.63-14.71C844.69,1.67,835.31,0,824.13,0ZM824.13,26.97c8.04,0,13.8,3.76,17.26,11.28,3.47,7.45,5.2,20,5.2,37.66s-1.77,30.01-5.3,37.66c-3.53,7.65-9.25,11.47-17.16,11.47s-13.63-3.83-17.16-11.47c-3.53-7.65-5.3-20.14-5.3-37.46s1.73-30.4,5.2-37.85c3.47-7.52,9.22-11.28,17.26-11.28Z"/>
    <circle id="path24" class="st1" cx="435.45" cy="290.93" r="14.66"/>
    <circle id="path24-5" class="st1" cx="585.28" cy="290.93" r="14.66"/>
    <circle id="path24-5-5" class="st1" cx="614.59" cy="290.93" r="14.66"/>
    <circle id="path24-5-0" class="st1" cx="278.68" cy="290.93" r="14.66"/>
    <circle id="path24-5-05" class="st1" cx="129.25" cy="290.93" r="14.66"/>
  </g>
  <g id="g24">
    <path id="path56" d="M55.47,3.05v12.36s-1.71,1.22-1.71,1.22l-3.12,16.12s-3.88.13-3.61,1.54c.07.35.1.72.12,1.07.04,1.06-.12,2-.12,2h0s.72.33.72.33v2.55s-6.04.26-7.3,1.54h0v3.52h0s.89.27.89.27c-.03.02-2.15,1.47-2.96,2.17-.81.7-3.87,1.09-3.87,1.98,0,0,0,.01,0,.01h0c0,.53.02.77.16.9.21,1.34.79,7.86,1.21,9.17.4,1.01-.22.62,2.59,1.65,0,0,0,.01.01.01-.03.01-3.14,1.54-2.7,3.39,0,0,0,0,0,.01.06.23.12.45.21.66.65,1.52,6.03.85,13.42,2.03,0,.03-3,36.54-5.7,58.6,0,0-1.48,14.34-2.36,22.92h31.95c-.88-8.58-2.36-22.92-2.36-22.92-2.7-22.07-5.92-58.19-5.92-58.23,7.39-1.18,12.98-.88,13.63-2.4.03-.07.05-.15.07-.22.05-.14.11-.29.14-.44,0,0,0,0,0-.01.45-1.85-2.67-3.38-2.7-3.39,0,0,0-.01.01-.01,2.82-1.04,2.19-.64,2.59-1.65.42-1.3.94-7.83,1.15-9.17.15-.12.16-.37.16-.9h0s0-.01,0-.02c0-.9-3.06-1.28-3.87-1.98-.81-.7-2.93-2.15-2.96-2.17l.89-.25h0v-3.52h0c-1.26-1.29-7.3-1.55-7.3-1.55v-2.55l.72-.32h0s0-.01,0-.01c0,0-.15-.94-.12-2,.01-.35.05-.72.12-1.07.27-1.41-3.59-1.54-3.61-1.54l-2.19-16.1-1.4-1.24.06-12.36h-4.99Z" inkscape:label="I v6"/>
    <path id="path70-3" d="M89.67,114.3v6.57l-3.39,6.57-6.66-1.84-8.24,1.55-22.86,1.63-1.13-.47v-4.12l-9.05-1.49-11.5,2.27.17,5.02s.02.03.04.04c-3.85-4.16-13.2-6.9-23.61-6.9-1.09-.02-2.37.05-3.37.1-.03,0-.05,0-.08,0v21.68s.04,0,.06,0c-.02,0-.04,0-.06,0v4.15h114.64v-25.93l-7.55,1.02v8.88l-8.53-1.48v-6.16l-1.62-.72.02-5.02-1.79-.97v-3.47l-2.3-.91h-3.19Z" inkscape:label="skyline" sodipodi:nodetypes="ccccccccccccccccccccccccccccccc"/>
    <path id="path81-7" d="M114.64,2.99c-7.54.76-13.85,3.83-17.02,8.04-1.78-.3-3.65-.46-5.57-.46-8.31,0-15.55,2.97-19.35,7.37,1.33.08,2.64.19,3.92.33-2.83-.31-5.75-.46-8.69-.47-16.21.01-30.13,4.71-33.22,11.2h66.45c-.13-.32-.28-.63-.46-.94.2.31.38.62.53.94h13.42V2.99ZM76.77,18.28c1.36.15,2.69.33,3.97.55-1.3-.22-2.62-.4-3.97-.55ZM81.04,18.88c1.29.22,2.54.47,3.75.75-1.21-.28-2.46-.53-3.75-.75ZM84.97,19.68c1.2.29,2.36.6,3.46.94-1.11-.34-2.26-.66-3.46-.94ZM88.7,20.71c1.07.34,2.08.7,3.04,1.09-.96-.39-1.98-.75-3.04-1.09ZM92.05,21.92c.96.4,1.86.82,2.7,1.26-.84-.44-1.74-.86-2.7-1.26ZM94.91,23.26c.85.45,1.63.93,2.34,1.43-.71-.49-1.49-.97-2.34-1.43ZM97.34,24.76c.72.51,1.36,1.04,1.92,1.59.56.55,1.04,1.12,1.42,1.71-.38-.58-.86-1.15-1.42-1.71-.56-.55-1.19-1.08-1.92-1.59Z" inkscape:label="cloud R"/>
    <path id="path71-7-1-8-9" d="M.73,3.05c-.25,0-.49.02-.73.03v25.85h26.17c1-7.04,10.16-11.62,18.09-14.21-4.59-3.18-11.45-5.08-18.55-5.1-1.44,0-2.87.09-4.28.25C17.03,5.64,9.19,3.05.73,3.05h0Z" inkscape:label="cloud L" sodipodi:nodetypes="ccccccccc"/>
  </g>
</svg>