<?xml version="1.0" encoding="UTF-8"?>
<svg id="svg1" xmlns="http://www.w3.org/2000/svg" xmlns:svg="http://www.w3.org/2000/svg" xmlns:sodipodi="http://sodipodi.sourceforge.net/DTD/sodipodi-0.dtd" xmlns:rdf="http://www.w3.org/1999/02/22-rdf-syntax-ns#" xmlns:inkscape="http://www.inkscape.org/namespaces/inkscape" xmlns:dc="http://purl.org/dc/elements/1.1/" xmlns:cc="http://creativecommons.org/ns#" version="1.1" viewBox="0 0 1160.1 152">
  <!-- Generator: Adobe Illustrator 29.5.1, SVG Export Plug-In . SVG Version: 2.1.0 Build 141)  -->
  <defs>
    <style>
      .st0 {
        isolation: isolate;
      }
    </style>
  </defs>
  <sodipodi:namedview id="namedview1" bordercolor="#000000" borderopacity="0.25" inkscape:current-layer="svg1" inkscape:cx="507.73432" inkscape:cy="475.20538" inkscape:deskcolor="#d1d1d1" inkscape:document-units="mm" inkscape:pagecheckerboard="false" inkscape:pageopacity="0.0" inkscape:showpageshadow="2" inkscape:window-height="847" inkscape:window-maximized="0" inkscape:window-width="1440" inkscape:window-x="0" inkscape:window-y="25" inkscape:zoom="0.35353135" pagecolor="#ffffff" showgrid="true">
    <inkscape:grid id="grid5" color="#0099e5" empcolor="#0099e5" empopacity="0.30196078" empspacing="5" enabled="true" opacity="0.14901961" originx="-6.0476923" originy="-5.8998995" spacingx="0.52916688" spacingy="0.52916688" units="px" visible="true"/>
    <sodipodi:guide id="guide6" inkscape:locked="false" orientation="0,16" position="-6.0476922,-215.64534"/>
    <sodipodi:guide id="guide7" inkscape:locked="false" orientation="16,0" position="-1.814357,-215.64534"/>
    <sodipodi:guide id="guide8" inkscape:locked="false" orientation="0,-16" position="-1.814357,-219.87867"/>
    <sodipodi:guide id="guide9" inkscape:locked="false" orientation="-16,0" position="-6.0476922,-219.87867"/>
    <sodipodi:guide id="guide10" inkscape:locked="false" orientation="0,16" position="-0.65862955,59.16742"/>
    <sodipodi:guide id="guide11" inkscape:locked="false" orientation="16,0" position="-1.814357,-215.64534"/>
    <sodipodi:guide id="guide12" inkscape:locked="false" orientation="0,-16" position="-1.814357,-219.87867"/>
    <sodipodi:guide id="guide13" inkscape:locked="false" orientation="-16,0" position="-6.0476922,-219.87867"/>
    <inkscape:page id="page13" x="0" y="0" width="399.00836" height="53.621552" bleed="0" margin="0"/>
  </sodipodi:namedview>
  <g id="_x3C_defs">
    <inkscape:path-effect id="path-effect710" apply_no_radius="true" apply_with_radius="true" chamfer_steps="1" effect="fillet_chamfer" flexible="false" hide_knots="false" is_visible="true" lpeversion="1" method="auto" mode="F" nodesatellites_param="F,0,0,1,0,0.026458344,0,1 @ F,0,0,1,0,0.026458344,0,1 @ F,0,0,1,0,0.026458344,0,1 @ F,0,0,1,0,0.026458344,0,1 @ F,0,0,1,0,0.026458344,0,1 @ F,0,0,1,0,0.026458344,0,1" only_selected="false" radius="0.5" unit="px" use_knot_distance="true"/>
    <inkscape:path-effect id="path-effect706" effect="spiro" is_visible="true" lpeversion="1"/>
    <inkscape:path-effect id="path-effect681" effect="spiro" is_visible="true" lpeversion="1"/>
    <inkscape:path-effect id="path-effect680" effect="spiro" is_visible="true" lpeversion="1"/>
    <inkscape:path-effect id="path-effect679" effect="spiro" is_visible="true" lpeversion="1"/>
    <inkscape:path-effect id="path-effect678" effect="spiro" is_visible="true" lpeversion="1"/>
    <inkscape:path-effect id="path-effect610" effect="spiro" is_visible="true" lpeversion="1"/>
    <inkscape:path-effect id="path-effect609" effect="spiro" is_visible="true" lpeversion="1"/>
    <inkscape:path-effect id="path-effect605" effect="spiro" is_visible="true" lpeversion="1"/>
    <inkscape:path-effect id="path-effect604" effect="spiro" is_visible="true" lpeversion="1"/>
    <inkscape:path-effect id="path-effect600" apply_no_radius="true" apply_with_radius="true" chamfer_steps="1" effect="fillet_chamfer" flexible="false" hide_knots="false" is_visible="true" lpeversion="1" method="auto" mode="F" nodesatellites_param="F,0,0,1,0,0.13229172,0,1 @ F,0,0,1,0,0.13229172,0,1 @ F,0,0,1,0,0.13229172,0,1 @ F,0,0,1,0,0.13229172,0,1" only_selected="false" radius="0.5" unit="px" use_knot_distance="true"/>
    <inkscape:path-effect id="path-effect599" apply_no_radius="true" apply_with_radius="true" chamfer_steps="1" effect="fillet_chamfer" flexible="false" hide_knots="false" is_visible="true" lpeversion="1" method="auto" mode="F" nodesatellites_param="F,0,0,1,0,0.13229172,0,1 @ F,0,0,1,0,0.13229172,0,1 @ F,0,0,1,0,0.13229172,0,1" only_selected="false" radius="0.5" unit="px" use_knot_distance="true"/>
    <inkscape:path-effect id="path-effect598" apply_no_radius="true" apply_with_radius="true" chamfer_steps="1" effect="fillet_chamfer" flexible="false" hide_knots="false" is_visible="true" lpeversion="1" method="auto" mode="F" nodesatellites_param="F,0,0,1,0,0.13229172,0,1 @ F,0,0,1,0,0.13229172,0,1 @ F,0,0,1,0,0.13229172,0,1 @ F,0,0,1,0,0.13229172,0,1" only_selected="false" radius="0.5" unit="px" use_knot_distance="true"/>
    <inkscape:path-effect id="path-effect597" apply_no_radius="true" apply_with_radius="true" chamfer_steps="1" effect="fillet_chamfer" flexible="false" hide_knots="false" is_visible="true" lpeversion="1" method="auto" mode="F" nodesatellites_param="F,0,0,1,0,0.13229172,0,1 @ F,0,0,1,0,0.13229172,0,1 @ F,0,0,1,0,0.13229172,0,1 @ F,0,0,1,0,0.13229172,0,1" only_selected="false" radius="0.5" unit="px" use_knot_distance="true"/>
    <inkscape:path-effect id="path-effect596" apply_no_radius="true" apply_with_radius="true" chamfer_steps="1" effect="fillet_chamfer" flexible="false" hide_knots="false" is_visible="true" lpeversion="1" method="auto" mode="F" nodesatellites_param="F,0,0,1,0,0.13229172,0,1 @ F,0,0,1,0,0.13229172,0,1 @ F,0,0,1,0,0.13229172,0,1" only_selected="false" radius="0.5" unit="px" use_knot_distance="true"/>
    <inkscape:path-effect id="path-effect584" apply_no_radius="true" apply_with_radius="true" chamfer_steps="1" effect="fillet_chamfer" flexible="false" hide_knots="false" is_visible="true" lpeversion="1" method="auto" mode="F" nodesatellites_param="F,0,0,1,0,0.13229172,0,1 @ F,0,0,1,0,0.13229172,0,1 @ F,0,0,1,0,0.13229172,0,1 @ F,0,0,1,0,0.13229172,0,1 @ F,0,0,1,0,0.13229172,0,1 @ F,0,0,1,0,0.13229172,0,1 @ F,0,0,1,0,0.13229172,0,1 @ F,0,0,1,0,0.13229172,0,1 @ F,0,0,1,0,0.13229172,0,1 @ F,0,0,1,0,0.13229172,0,1 @ F,0,0,1,0,0.13229172,0,1 @ F,0,0,1,0,0.13229172,0,1 @ F,0,0,1,0,0.13229172,0,1" only_selected="false" radius="0.5" unit="px" use_knot_distance="true"/>
    <inkscape:path-effect id="path-effect569" effect="spiro" is_visible="true" lpeversion="1"/>
    <inkscape:path-effect id="path-effect567" effect="spiro" is_visible="true" lpeversion="1"/>
    <inkscape:path-effect id="path-effect565" effect="spiro" is_visible="true" lpeversion="1"/>
    <inkscape:path-effect id="path-effect563" effect="spiro" is_visible="true" lpeversion="1"/>
    <inkscape:path-effect id="path-effect561" effect="spiro" is_visible="true" lpeversion="1"/>
    <inkscape:path-effect id="path-effect559" effect="spiro" is_visible="true" lpeversion="1"/>
    <inkscape:path-effect id="path-effect538" effect="spiro" is_visible="true" lpeversion="1"/>
    <inkscape:path-effect id="path-effect537" effect="spiro" is_visible="true" lpeversion="1"/>
    <inkscape:path-effect id="path-effect536" effect="spiro" is_visible="true" lpeversion="1"/>
    <inkscape:path-effect id="path-effect535" effect="spiro" is_visible="true" lpeversion="1"/>
    <inkscape:path-effect id="path-effect534" effect="spiro" is_visible="true" lpeversion="1"/>
    <inkscape:path-effect id="path-effect533" effect="spiro" is_visible="true" lpeversion="1"/>
    <inkscape:path-effect id="path-effect459" effect="spiro" is_visible="true" lpeversion="1"/>
    <inkscape:path-effect id="path-effect458" effect="spiro" is_visible="true" lpeversion="1"/>
    <inkscape:path-effect id="path-effect457" effect="spiro" is_visible="true" lpeversion="1"/>
    <inkscape:path-effect id="path-effect456" effect="spiro" is_visible="true" lpeversion="1"/>
    <inkscape:path-effect id="path-effect453" apply_no_radius="true" apply_with_radius="true" chamfer_steps="1" effect="fillet_chamfer" flexible="false" hide_knots="false" is_visible="true" lpeversion="1" method="auto" mode="F" nodesatellites_param="F,0,0,1,0,0.13229172,0,1 @ F,0,0,1,0,0.13229172,0,1 @ F,0,0,1,0,0.13229172,0,1 @ F,0,0,1,0,0.13229172,0,1 @ F,0,0,1,0,0.13229172,0,1 @ F,0,0,1,0,0.13229172,0,1 @ F,0,0,1,0,0.13229172,0,1 @ F,0,0,1,0,0.13229172,0,1 @ F,0,0,1,0,0.13229172,0,1 @ F,0,0,1,0,0.13229172,0,1 @ F,0,0,1,0,0.13229172,0,1 @ F,0,0,1,0,0.13229172,0,1 @ F,0,0,1,0,0.13229172,0,1" only_selected="false" radius="0.5" unit="px" use_knot_distance="true"/>
    <inkscape:path-effect id="path-effect445" apply_no_radius="true" apply_with_radius="true" chamfer_steps="1" effect="fillet_chamfer" flexible="false" hide_knots="false" is_visible="true" lpeversion="1" method="auto" mode="F" nodesatellites_param="F,0,0,1,0,0.13229172,0,1 @ F,0,0,1,0,0.13229172,0,1 @ F,0,0,1,0,0.13229172,0,1 @ F,0,0,1,0,0.13229172,0,1 @ F,0,0,1,0,0.13229172,0,1 @ F,0,0,1,0,0.13229172,0,1 @ F,0,0,1,0,0.13229172,0,1 @ F,0,0,1,0,0.13229172,0,1 @ F,0,0,1,0,0.13229172,0,1 @ F,0,0,1,0,0.13229172,0,1 @ F,0,0,1,0,0.13229172,0,1 @ F,0,0,1,0,0.13229172,0,1 @ F,0,0,1,0,0.13229172,0,1" only_selected="false" radius="0.5" unit="px" use_knot_distance="true"/>
    <inkscape:path-effect id="path-effect437" effect="spiro" is_visible="true" lpeversion="1"/>
    <inkscape:path-effect id="path-effect436" effect="spiro" is_visible="true" lpeversion="1"/>
    <inkscape:path-effect id="path-effect435" effect="spiro" is_visible="true" lpeversion="1"/>
    <inkscape:path-effect id="path-effect434" effect="spiro" is_visible="true" lpeversion="1"/>
    <inkscape:path-effect id="path-effect433" effect="spiro" is_visible="true" lpeversion="1"/>
    <inkscape:path-effect id="path-effect422" effect="spiro" is_visible="true" lpeversion="1"/>
    <inkscape:path-effect id="path-effect421" apply_no_radius="true" apply_with_radius="true" chamfer_steps="1" effect="fillet_chamfer" flexible="false" hide_knots="false" is_visible="true" lpeversion="1" method="auto" mode="F" nodesatellites_param="F,0,0,1,0,0.13229172,0,1 @ F,0,0,1,0,0.13229172,0,1 @ F,0,0,1,0,0.13229172,0,1 @ F,0,0,1,0,0.13229172,0,1 @ F,0,0,1,0,0.13229172,0,1 @ F,0,0,1,0,0.13229172,0,1 @ F,0,0,1,0,0.13229172,0,1 @ F,0,0,1,0,0.13229172,0,1 @ F,0,0,1,0,0.13229172,0,1 @ F,0,0,1,0,0.13229172,0,1 @ F,0,0,1,0,0.13229172,0,1 @ F,0,0,1,0,0.13229172,0,1 @ F,0,0,1,0,0.13229172,0,1" only_selected="false" radius="0.5" unit="px" use_knot_distance="true"/>
    <inkscape:path-effect id="path-effect414" apply_no_radius="true" apply_with_radius="true" chamfer_steps="1" effect="fillet_chamfer" flexible="false" hide_knots="false" is_visible="true" lpeversion="1" method="auto" mode="F" nodesatellites_param="F,0,0,1,0,0.13229172,0,1 @ F,0,0,1,0,0.13229172,0,1 @ F,0,0,1,0,0.13229172,0,1 @ F,0,0,1,0,0.13229172,0,1 @ F,0,0,1,0,0.13229172,0,1 @ F,0,0,1,0,0.13229172,0,1 @ F,0,0,1,0,0.13229172,0,1 @ F,0,0,1,0,0.13229172,0,1 @ F,0,0,1,0,0.13229172,0,1 @ F,0,0,1,0,0.13229172,0,1 @ F,0,0,1,0,0.13229172,0,1 @ F,0,0,1,0,0.13229172,0,1 @ F,0,0,1,0,0.13229172,0,1" only_selected="false" radius="0.5" unit="px" use_knot_distance="true"/>
    <inkscape:path-effect id="path-effect401" effect="spiro" is_visible="true" lpeversion="1"/>
    <inkscape:path-effect id="path-effect400" effect="spiro" is_visible="true" lpeversion="1"/>
    <inkscape:path-effect id="path-effect399" effect="spiro" is_visible="true" lpeversion="1"/>
    <inkscape:path-effect id="path-effect398" effect="spiro" is_visible="true" lpeversion="1"/>
    <inkscape:path-effect id="path-effect397" effect="spiro" is_visible="true" lpeversion="1"/>
    <inkscape:path-effect id="path-effect396" effect="spiro" is_visible="true" lpeversion="1"/>
    <inkscape:path-effect id="path-effect395" effect="spiro" is_visible="true" lpeversion="1"/>
    <inkscape:path-effect id="path-effect394" effect="spiro" is_visible="true" lpeversion="1"/>
    <inkscape:path-effect id="path-effect393" effect="spiro" is_visible="true" lpeversion="1"/>
    <inkscape:path-effect id="path-effect392" effect="spiro" is_visible="true" lpeversion="1"/>
    <inkscape:path-effect id="path-effect391" effect="spiro" is_visible="true" lpeversion="1"/>
    <inkscape:path-effect id="path-effect390" effect="spiro" is_visible="true" lpeversion="1"/>
    <inkscape:path-effect id="path-effect389" effect="spiro" is_visible="true" lpeversion="1"/>
    <inkscape:path-effect id="path-effect388" effect="spiro" is_visible="true" lpeversion="1"/>
    <inkscape:path-effect id="path-effect387" effect="spiro" is_visible="true" lpeversion="1"/>
    <inkscape:path-effect id="path-effect382" apply_no_radius="true" apply_with_radius="true" chamfer_steps="1" effect="fillet_chamfer" flexible="false" hide_knots="false" is_visible="true" lpeversion="1" method="auto" mode="F" nodesatellites_param="F,0,0,1,0,0.13229172,0,1 @ F,0,0,1,0,0.13229172,0,1 @ F,0,0,1,0,0.13229172,0,1 @ F,0,0,1,0,0.13229172,0,1 @ F,0,0,1,0,0.13229172,0,1 @ F,0,0,1,0,0.13229172,0,1 @ F,0,0,1,0,0.13229172,0,1 @ F,0,0,1,0,0.13229172,0,1 @ F,0,0,1,0,0.13229172,0,1 @ F,0,0,1,0,0.13229172,0,1 @ F,0,0,1,0,0.13229172,0,1 @ F,0,0,1,0,0.13229172,0,1 @ F,0,0,1,0,0.13229172,0,1" only_selected="false" radius="0.5" unit="px" use_knot_distance="true"/>
    <inkscape:path-effect id="path-effect378" apply_no_radius="true" apply_with_radius="true" chamfer_steps="1" effect="fillet_chamfer" flexible="false" hide_knots="false" is_visible="true" lpeversion="1" method="auto" mode="F" nodesatellites_param="F,0,0,1,0,0.13229172,0,1 @ F,0,0,1,0,0.13229172,0,1 @ F,0,0,1,0,0.13229172,0,1 @ F,0,0,1,0,0.13229172,0,1 @ F,0,0,1,0,0.13229172,0,1 @ F,0,0,1,0,0.13229172,0,1 @ F,0,0,1,0,0.13229172,0,1 @ F,0,0,1,0,0.13229172,0,1 @ F,0,0,1,0,0.13229172,0,1 @ F,0,0,1,0,0.13229172,0,1 @ F,0,0,1,0,0.13229172,0,1 @ F,0,0,1,0,0.13229172,0,1 @ F,0,0,1,0,0.13229172,0,1" only_selected="false" radius="0.5" unit="px" use_knot_distance="true"/>
    <inkscape:path-effect id="path-effect367" apply_no_radius="true" apply_with_radius="true" chamfer_steps="1" effect="fillet_chamfer" flexible="false" hide_knots="false" is_visible="true" lpeversion="1" method="auto" mode="F" nodesatellites_param="F,0,0,1,0,0,0,1 @ F,0,0,1,0,0,0,1 @ F,0,0,1,0,0,0,1 @ F,0,0,1,0,0,0,1 @ F,0,0,1,0,0,0,1 @ F,0,0,1,0,0,0,1 @ F,0,0,1,0,0,0,1 @ F,0,0,1,0,0,0,1 @ F,0,0,1,0,0,0,1 @ F,0,0,1,0,0,0,1 @ F,0,0,1,0,0,0,1 @ F,0,0,1,0,0,0,1 @ F,0,0,1,0,0,0,1 @ F,0,0,1,0,0,0,1" only_selected="false" radius="0" unit="px" use_knot_distance="true"/>
    <inkscape:path-effect id="path-effect366" effect="spiro" is_visible="true" lpeversion="1"/>
    <inkscape:path-effect id="path-effect365" effect="spiro" is_visible="true" lpeversion="1"/>
    <inkscape:path-effect id="path-effect364" apply_no_weight="true" apply_with_weight="true" effect="bspline" helper_size="0" is_visible="true" lpeversion="1.3" only_selected="false" steps="2" uniform="false" weight="33.333333"/>
    <inkscape:path-effect id="path-effect363" effect="spiro" is_visible="true" lpeversion="1"/>
    <inkscape:path-effect id="path-effect362" effect="spiro" is_visible="true" lpeversion="1"/>
    <inkscape:path-effect id="path-effect361" effect="spiro" is_visible="true" lpeversion="1"/>
    <inkscape:path-effect id="path-effect360" apply_no_radius="true" apply_with_radius="true" chamfer_steps="1" effect="fillet_chamfer" flexible="false" hide_knots="false" is_visible="true" lpeversion="1" method="auto" mode="F" nodesatellites_param="F,0,0,1,0,0,0,1 @ F,0,0,1,0,0,0,1 @ F,0,0,1,0,0,0,1 @ F,0,0,1,0,0,0,1 @ F,0,0,1,0,0,0,1 @ F,0,0,1,0,0,0,1 @ F,0,0,1,0,0,0,1 @ F,0,0,1,0,0,0,1 @ F,0,0,1,0,0,0,1 @ F,0,0,1,0,0,0,1 @ F,0,0,1,0,0,0,1 @ F,0,0,1,0,0,0,1 @ F,0,0,1,0,0,0,1 @ F,0,0,1,0,0,0,1 @ F,0,0,1,0,0,0,1" only_selected="false" radius="0" unit="px" use_knot_distance="true"/>
    <inkscape:path-effect id="path-effect359" apply_no_radius="true" apply_with_radius="true" chamfer_steps="1" effect="fillet_chamfer" flexible="false" hide_knots="false" is_visible="true" lpeversion="1" method="auto" mode="F" nodesatellites_param="F,0,0,1,0,0.26490036,0,1 @ F,0,0,1,0,0,0,1 @ F,0,0,1,0,0,0,1 @ F,0,0,1,0,0,0,1 @ F,0,0,1,0,0,0,1 @ F,0,0,1,0,0,0,1 @ F,0,0,1,0,0.21949854,0,1 @ F,0,0,1,0,0.2237714,0,1 @ F,0,0,1,0,0,0,1 @ F,0,0,1,0,0,0,1 @ F,0,0,1,0,0,0,1 @ F,0,0,1,0,0,0,1 @ F,0,0,1,0,0,0,1 @ F,0,0,1,0,0.19635181,0,1 @ F,0,0,1,0,0.24338188,0,1" only_selected="false" radius="0" unit="px" use_knot_distance="true"/>
    <inkscape:path-effect id="path-effect358" apply_no_radius="true" apply_with_radius="true" chamfer_steps="1" effect="fillet_chamfer" flexible="false" hide_knots="false" is_visible="true" lpeversion="1" method="auto" mode="F" nodesatellites_param="F,0,0,1,0,0,0,1 @ F,0,0,1,0,0,0,1 @ F,0,0,1,0,0,0,1 @ F,0,0,1,0,0,0,1 @ F,0,0,1,0,0,0,1 @ F,0,0,1,0,0,0,1 @ F,0,0,1,0,0,0,1 @ F,0,0,1,0,0,0,1 @ F,0,0,1,0,0,0,1 @ F,0,0,1,0,0,0,1 @ F,0,0,1,0,0,0,1 @ F,0,0,1,0,0,0,1 @ F,0,0,1,0,0,0,1 @ F,0,0,1,0,0.19594438,0,1 @ F,0,0,1,0,0,0,1" only_selected="false" radius="0" unit="px" use_knot_distance="true"/>
    <inkscape:path-effect id="path-effect357" apply_no_radius="true" apply_with_radius="true" chamfer_steps="1" effect="fillet_chamfer" flexible="false" hide_knots="false" is_visible="true" lpeversion="1" method="auto" mode="F" nodesatellites_param="F,0,0,1,0,0,0,1 @ F,0,0,1,0,0,0,1 @ F,0,0,1,0,0,0,1 @ F,0,0,1,0,0,0,1 @ F,0,0,1,0,0,0,1 @ F,0,0,1,0,0,0,1 @ F,0,0,1,0,0,0,1 @ F,0,0,1,0,0,0,1 @ F,0,0,1,0,0,0,1 @ F,0,0,1,0,0,0,1 @ F,0,0,1,0,0,0,1 @ F,0,0,1,0,0,0,1 @ F,0,0,1,0,0,0,1 @ F,0,0,1,0,0,0,1 @ F,0,0,1,0,0,0,1" only_selected="false" radius="0" unit="px" use_knot_distance="true"/>
    <inkscape:path-effect id="path-effect356" apply_no_radius="true" apply_with_radius="true" chamfer_steps="1" effect="fillet_chamfer" flexible="false" hide_knots="false" is_visible="true" lpeversion="1" method="auto" mode="F" nodesatellites_param="F,0,0,1,0,0,0,1 @ F,0,0,1,0,0,0,1 @ F,0,0,1,0,0,0,1 @ F,0,0,1,0,0,0,1 @ F,0,0,1,0,0,0,1 @ F,0,0,1,0,0,0,1 @ F,0,0,1,0,0,0,1 @ F,0,0,1,0,0,0,1 @ F,0,0,1,0,0,0,1 @ F,0,0,1,0,0,0,1 @ F,0,0,1,0,0,0,1 @ F,0,0,1,0,0,0,1 @ F,0,0,1,0,0,0,1 @ F,0,0,1,0,0,0,1 @ F,0,0,1,0,0,0,1" only_selected="false" radius="0" unit="px" use_knot_distance="true"/>
    <inkscape:path-effect id="path-effect355" apply_no_radius="true" apply_with_radius="true" chamfer_steps="1" effect="fillet_chamfer" flexible="false" hide_knots="false" is_visible="true" lpeversion="1" method="auto" mode="F" nodesatellites_param="F,0,0,1,0,0,0,1 @ F,0,0,1,0,0,0,1 @ F,0,0,1,0,0,0,1 @ F,0,0,1,0,0,0,1 @ F,0,0,1,0,0,0,1 @ F,0,0,1,0,0,0,1 @ F,0,0,1,0,0,0,1 @ F,0,0,1,0,0,0,1 @ F,0,0,1,0,0,0,1 @ F,0,0,1,0,0,0,1 @ F,0,0,1,0,0,0,1 @ F,0,0,1,0,0,0,1 @ F,0,0,1,0,0,0,1 @ F,0,0,1,0,0,0,1 @ F,0,0,1,0,0,0,1" only_selected="false" radius="0" unit="px" use_knot_distance="true"/>
    <inkscape:path-effect id="path-effect354" apply_no_radius="true" apply_with_radius="true" chamfer_steps="1" effect="fillet_chamfer" flexible="false" hide_knots="false" is_visible="true" lpeversion="1" method="auto" mode="F" nodesatellites_param="F,0,0,1,0,0,0,1 @ F,0,0,1,0,0,0,1 @ F,0,0,1,0,0,0,1 @ F,0,0,1,0,0,0,1 @ F,0,0,1,0,0,0,1 @ F,0,0,1,0,0,0,1 @ F,0,0,1,0,0,0,1 @ F,0,0,1,0,0,0,1 @ F,0,0,1,0,0,0,1 @ F,0,0,1,0,0,0,1 @ F,0,0,1,0,0,0,1 @ F,0,0,1,0,0,0,1 @ F,0,0,1,0,0,0,1 @ F,0,0,1,0,0,0,1 @ F,0,0,1,0,0,0,1" only_selected="false" radius="0" unit="px" use_knot_distance="true"/>
    <inkscape:path-effect id="path-effect353" apply_no_radius="true" apply_with_radius="true" chamfer_steps="1" effect="fillet_chamfer" flexible="false" hide_knots="false" is_visible="true" lpeversion="1" method="auto" mode="F" nodesatellites_param="F,0,0,1,0,0,0,1 @ F,0,0,1,0,0,0,1 @ F,0,0,1,0,0,0,1 @ F,0,0,1,0,0,0,1 @ F,0,0,1,0,0,0,1 @ F,0,0,1,0,0,0,1 @ F,0,0,1,0,0,0,1 @ F,0,0,1,0,0,0,1 @ F,0,0,1,0,0,0,1 @ F,0,0,1,0,0,0,1 @ F,0,0,1,0,0,0,1 @ F,0,0,1,0,0,0,1 @ F,0,0,1,0,0,0,1 @ F,0,0,1,0,0,0,1 @ F,0,0,1,0,0,0,1" only_selected="false" radius="0" unit="px" use_knot_distance="true"/>
    <inkscape:path-effect id="path-effect352" apply_no_radius="true" apply_with_radius="true" chamfer_steps="1" effect="fillet_chamfer" flexible="false" hide_knots="false" is_visible="true" lpeversion="1" method="auto" mode="F" nodesatellites_param="F,0,0,1,0,0.37158363,0,1 @ F,0,0,1,0,0,0,1 @ F,0,0,1,0,0,0,1 @ F,0,0,1,0,0,0,1 @ F,0,0,1,0,0,0,1 @ F,0,0,1,0,0,0,1 @ F,0,0,1,0,0.22972536,0,1 @ F,0,0,1,0,0,0,1 @ F,0,0,1,0,0,0,1 @ F,0,0,1,0,0,0,1 @ F,0,0,1,0,0,0,1 @ F,0,0,1,0,0,0,1 @ F,0,0,1,0,0,0,1 @ F,0,0,1,0,0,0,1 @ F,0,0,1,0,0.2339601,0,1" only_selected="false" radius="0" unit="px" use_knot_distance="true"/>
    <inkscape:path-effect id="path-effect351" apply_no_radius="true" apply_with_radius="true" chamfer_steps="1" effect="fillet_chamfer" flexible="false" hide_knots="false" is_visible="true" lpeversion="1" method="auto" mode="F" nodesatellites_param="F,0,0,1,0,0,0,1 @ F,0,0,1,0,0,0,1 @ F,0,0,1,0,0,0,1 @ F,0,0,1,0,0,0,1 @ F,0,0,1,0,0,0,1 @ F,0,0,1,0,0,0,1 @ F,0,0,1,0,0,0,1 @ F,0,0,1,0,0,0,1 @ F,0,0,1,0,0,0,1 @ F,0,0,1,0,0,0,1 @ F,0,0,1,0,0,0,1 @ F,0,0,1,0,0,0,1 @ F,0,0,1,0,0,0,1 @ F,0,0,1,0,0,0,1 @ F,0,0,1,0,0,0,1" only_selected="false" radius="0" unit="px" use_knot_distance="true"/>
    <inkscape:path-effect id="path-effect350" apply_no_radius="true" apply_with_radius="true" chamfer_steps="1" effect="fillet_chamfer" flexible="false" hide_knots="false" is_visible="true" lpeversion="1" method="auto" mode="F" nodesatellites_param="F,0,0,1,0,0,0,1 @ F,0,0,1,0,0,0,1 @ F,0,0,1,0,0,0,1 @ F,0,0,1,0,0,0,1 @ F,0,0,1,0,0,0,1 @ F,0,0,1,0,0,0,1 @ F,0,0,1,0,0,0,1 @ F,0,0,1,0,0,0,1 @ F,0,0,1,0,0,0,1 @ F,0,0,1,0,0,0,1 @ F,0,0,1,0,0,0,1 @ F,0,0,1,0,0,0,1 @ F,0,0,1,0,0,0,1 @ F,0,0,1,0,0,0,1 @ F,0,0,1,0,0,0,1" only_selected="false" radius="0" unit="px" use_knot_distance="true"/>
    <inkscape:path-effect id="path-effect349" apply_no_radius="true" apply_with_radius="true" chamfer_steps="1" effect="fillet_chamfer" flexible="false" hide_knots="false" is_visible="true" lpeversion="1" method="auto" mode="F" nodesatellites_param="F,0,0,1,0,0,0,1 @ F,0,0,1,0,0,0,1 @ F,0,0,1,0,0,0,1 @ F,0,0,1,0,0,0,1 @ F,0,0,1,0,0,0,1 @ F,0,0,1,0,0,0,1 @ F,0,0,1,0,0,0,1 @ F,0,0,1,0,0,0,1 @ F,0,0,1,0,0,0,1 @ F,0,0,1,0,0,0,1 @ F,0,0,1,0,0,0,1 @ F,0,0,1,0,0,0,1 @ F,0,0,1,0,0,0,1 @ F,0,0,1,0,0,0,1 @ F,0,0,1,0,0,0,1" only_selected="false" radius="0" unit="px" use_knot_distance="true"/>
    <inkscape:path-effect id="path-effect348" apply_no_radius="true" apply_with_radius="true" chamfer_steps="1" effect="fillet_chamfer" flexible="false" hide_knots="false" is_visible="true" lpeversion="1" method="auto" mode="F" nodesatellites_param="F,0,0,1,0,0.39079844,0,1 @ F,0,0,1,0,0,0,1 @ F,0,0,1,0,0,0,1 @ F,0,0,1,0,0,0,1 @ F,0,0,1,0,0,0,1 @ F,0,0,1,0,0,0,1 @ F,0,0,1,0,0,0,1 @ F,0,0,1,0,0,0,1 @ F,0,0,1,0,0,0,1 @ F,0,0,1,0,0,0,1 @ F,0,0,1,0,0,0,1 @ F,0,0,1,0,0,0,1 @ F,0,0,1,0,0,0,1 @ F,0,0,1,0,0,0,1 @ F,0,0,1,0,0,0,1" only_selected="false" radius="0" unit="px" use_knot_distance="true"/>
    <inkscape:path-effect id="path-effect347" apply_no_radius="true" apply_with_radius="true" chamfer_steps="1" effect="fillet_chamfer" flexible="false" hide_knots="false" is_visible="true" lpeversion="1" method="auto" mode="F" nodesatellites_param="F,0,0,1,0,0,0,1 @ F,0,0,1,0,0,0,1 @ F,0,0,1,0,0,0,1 @ F,0,0,1,0,0,0,1 @ F,0,0,1,0,0,0,1 @ F,0,0,1,0,0,0,1 @ F,0,0,1,0,0,0,1 @ F,0,0,1,0,0,0,1 @ F,0,0,1,0,0,0,1 @ F,0,0,1,0,0,0,1 @ F,0,0,1,0,0,0,1 @ F,0,0,1,0,0,0,1 @ F,0,0,1,0,0,0,1 @ F,0,0,1,0,0,0,1 @ F,0,0,1,0,0,0,1" only_selected="false" radius="0" unit="px" use_knot_distance="true"/>
    <inkscape:path-effect id="path-effect346" apply_no_radius="true" apply_with_radius="true" chamfer_steps="1" effect="fillet_chamfer" flexible="false" hide_knots="false" is_visible="true" lpeversion="1" method="auto" mode="F" nodesatellites_param="F,0,0,1,0,0,0,1 @ F,0,0,1,0,0,0,1 @ F,0,0,1,0,0,0,1 @ F,0,0,1,0,0,0,1 @ F,0,0,1,0,0,0,1 @ F,0,0,1,0,0.24222554,0,1 @ F,0,0,1,0,0.22614087,0,1 @ F,0,0,1,0,0,0,1 @ F,0,0,1,0,0,0,1 @ F,0,0,1,0,0,0,1 @ F,0,0,1,0,0,0,1 @ F,0,0,1,0,0,0,1 @ F,0,0,1,0,0,0,1 @ F,0,0,1,0,0,0,1 @ F,0,0,1,0,0,0,1" only_selected="false" radius="0" unit="px" use_knot_distance="true"/>
    <inkscape:path-effect id="path-effect345" apply_no_radius="true" apply_with_radius="true" chamfer_steps="1" effect="fillet_chamfer" flexible="false" hide_knots="false" is_visible="true" lpeversion="1" method="auto" mode="F" nodesatellites_param="F,0,0,1,0,0,0,1 @ F,0,0,1,0,0,0,1 @ F,0,0,1,0,0,0,1 @ F,0,0,1,0,0,0,1 @ F,0,0,1,0,0,0,1 @ F,0,0,1,0,0,0,1 @ F,0,0,1,0,0,0,1 @ F,0,0,1,0,0,0,1 @ F,0,0,1,0,0,0,1 @ F,0,0,1,0,0,0,1 @ F,0,0,1,0,0,0,1 @ F,0,0,1,0,0,0,1 @ F,0,0,1,0,0,0,1 @ F,0,0,1,0,0,0,1 @ F,0,0,1,0,0.25376047,0,1" only_selected="false" radius="0" unit="px" use_knot_distance="true"/>
    <inkscape:path-effect id="path-effect344" apply_no_radius="true" apply_with_radius="true" chamfer_steps="1" effect="fillet_chamfer" flexible="false" hide_knots="false" is_visible="true" lpeversion="1" method="auto" mode="F" nodesatellites_param="F,0,0,1,0,0,0,1 @ F,0,0,1,0,0,0,1 @ F,0,0,1,0,0,0,1 @ F,0,0,1,0,0,0,1 @ F,0,0,1,0,0,0,1 @ F,0,0,1,0,0,0,1 @ F,0,0,1,0,0,0,1 @ F,0,0,1,0,0,0,1 @ F,0,0,1,0,0,0,1 @ F,0,0,1,0,0,0,1 @ F,0,0,1,0,0,0,1 @ F,0,0,1,0,0,0,1 @ F,0,0,1,0,0,0,1 @ F,0,0,1,0,0,0,1 @ F,0,0,1,0,0,0,1" only_selected="false" radius="0" unit="px" use_knot_distance="true"/>
    <inkscape:path-effect id="path-effect343" apply_no_radius="true" apply_with_radius="true" chamfer_steps="1" effect="fillet_chamfer" flexible="false" hide_knots="false" is_visible="true" lpeversion="1" method="auto" mode="F" nodesatellites_param="F,0,0,1,0,0,0,1 @ F,0,0,1,0,0,0,1 @ F,0,0,1,0,0,0,1 @ F,0,0,1,0,0,0,1 @ F,0,0,1,0,0,0,1 @ F,0,0,1,0,0,0,1 @ F,0,0,1,0,0,0,1 @ F,0,0,1,0,0,0,1 @ F,0,0,1,0,0,0,1 @ F,0,0,1,0,0,0,1 @ F,0,0,1,0,0,0,1 @ F,0,0,1,0,0,0,1 @ F,0,0,1,0,0,0,1 @ F,0,0,1,0,0,0,1 @ F,0,0,1,0,0,0,1" only_selected="false" radius="0" unit="px" use_knot_distance="true"/>
    <inkscape:path-effect id="path-effect342" apply_no_radius="true" apply_with_radius="true" chamfer_steps="1" effect="fillet_chamfer" flexible="false" hide_knots="false" is_visible="true" lpeversion="1" method="auto" mode="F" nodesatellites_param="F,0,0,1,0,0,0,1 @ F,0,0,1,0,0,0,1 @ F,0,0,1,0,0,0,1 @ F,0,0,1,0,0,0,1 @ F,0,0,1,0,0,0,1 @ F,0,0,1,0,0,0,1 @ F,0,0,1,0,0,0,1 @ F,0,0,1,0,0,0,1 @ F,0,0,1,0,0,0,1 @ F,0,0,1,0,0,0,1 @ F,0,0,1,0,0,0,1 @ F,0,0,1,0,0,0,1 @ F,0,0,1,0,0,0,1 @ F,0,0,1,0,0,0,1 @ F,0,0,1,0,0,0,1" only_selected="false" radius="0" unit="px" use_knot_distance="true"/>
    <inkscape:path-effect id="path-effect341" apply_no_radius="true" apply_with_radius="true" chamfer_steps="1" effect="fillet_chamfer" flexible="false" hide_knots="false" is_visible="true" lpeversion="1" method="auto" mode="F" nodesatellites_param="F,0,0,1,0,0,0,1 @ F,0,0,1,0,0,0,1 @ F,0,0,1,0,0,0,1 @ F,0,0,1,0,0,0,1 @ F,0,0,1,0,0,0,1 @ F,0,0,1,0,0,0,1 @ F,0,0,1,0,0,0,1 @ F,0,0,1,0,0,0,1 @ F,0,0,1,0,0,0,1 @ F,0,0,1,0,0,0,1 @ F,0,0,1,0,0,0,1 @ F,0,0,1,0,0,0,1 @ F,0,0,1,0,0,0,1 @ F,0,0,1,0,0,0,1 @ F,0,0,1,0,0,0,1 @ F,0,0,1,0,0,0,1 @ F,0,0,1,0,0,0,1" only_selected="false" radius="0" unit="px" use_knot_distance="true"/>
    <inkscape:path-effect id="path-effect340" apply_no_radius="true" apply_with_radius="true" chamfer_steps="1" effect="fillet_chamfer" flexible="false" hide_knots="false" is_visible="true" lpeversion="1" method="auto" mode="F" nodesatellites_param="F,0,0,1,0,0,0,1 @ F,0,0,1,0,0,0,1 @ F,0,0,1,0,0,0,1 @ F,0,0,1,0,0,0,1 @ F,0,0,1,0,0,0,1 @ F,0,0,1,0,0,0,1 @ F,0,0,1,0,0,0,1 @ F,0,0,1,0,0,0,1 @ F,0,0,1,0,0,0,1 @ F,0,0,1,0,0,0,1 @ F,0,0,1,0,0,0,1 @ F,0,0,1,0,0,0,1 @ F,0,0,1,0,0,0,1 @ F,0,0,1,0,0,0,1 @ F,0,0,1,0,0,0,1 @ F,0,0,1,0,0,0,1 @ F,0,0,1,0,0,0,1" only_selected="false" radius="0" unit="px" use_knot_distance="true"/>
    <inkscape:path-effect id="path-effect339" apply_no_radius="true" apply_with_radius="true" chamfer_steps="1" effect="fillet_chamfer" flexible="false" hide_knots="false" is_visible="true" lpeversion="1" method="auto" mode="F" nodesatellites_param="F,0,0,1,0,0,0,1 @ F,0,0,1,0,0,0,1 @ F,0,0,1,0,0,0,1 @ F,0,0,1,0,0,0,1 @ F,0,0,1,0,0,0,1 @ F,0,0,1,0,0,0,1 @ F,0,0,1,0,0,0,1 @ F,0,0,1,0,0,0,1 @ F,0,0,1,0,0,0,1 @ F,0,0,1,0,0,0,1 @ F,0,0,1,0,0,0,1 @ F,0,0,1,0,0,0,1 @ F,0,0,1,0,0,0,1 @ F,0,0,1,0,0,0,1 @ F,0,0,1,0,0,0,1 @ F,0,0,1,0,0,0,1 @ F,0,0,1,0,0,0,1" only_selected="false" radius="0" unit="px" use_knot_distance="true"/>
    <inkscape:path-effect id="path-effect338" apply_no_radius="true" apply_with_radius="true" chamfer_steps="1" effect="fillet_chamfer" flexible="false" hide_knots="false" is_visible="true" lpeversion="1" method="auto" mode="F" nodesatellites_param="F,0,0,1,0,0,0,1 @ F,0,0,1,0,0,0,1 @ F,0,0,1,0,0,0,1 @ F,0,0,1,0,0,0,1 @ F,0,0,1,0,0,0,1 @ F,0,0,1,0,0,0,1 @ F,0,0,1,0,0,0,1 @ F,0,0,1,0,0,0,1 @ F,0,0,1,0,0,0,1 @ F,0,0,1,0,0,0,1 @ F,0,0,1,0,0,0,1 @ F,0,0,1,0,0,0,1 @ F,0,0,1,0,0,0,1 @ F,0,0,1,0,0,0,1 @ F,0,0,1,0,0,0,1 @ F,0,0,1,0,0,0,1 @ F,0,0,1,0,0,0,1 @ F,0,0,1,0,0,0,1" only_selected="false" radius="0" unit="px" use_knot_distance="true"/>
    <inkscape:path-effect id="path-effect337" apply_no_radius="true" apply_with_radius="true" chamfer_steps="1" effect="fillet_chamfer" flexible="false" hide_knots="false" is_visible="true" lpeversion="1" method="auto" mode="F" nodesatellites_param="F,0,0,1,0,0,0,1 @ F,0,0,1,0,0,0,1 @ F,0,0,1,0,0,0,1 @ F,0,0,1,0,0,0,1 @ F,0,0,1,0,0,0,1 @ F,0,0,1,0,0,0,1 @ F,0,0,1,0,0,0,1 @ F,0,0,1,0,0,0,1 @ F,0,0,1,0,0,0,1 @ F,0,0,1,0,0,0,1 @ F,0,0,1,0,0,0,1 @ F,0,0,1,0,0,0,1 @ F,0,0,1,0,0,0,1 @ F,0,0,1,0,0,0,1 @ F,0,0,1,0,0,0,1 @ F,0,0,1,0,0,0,1 @ F,0,0,1,0,0,0,1 @ F,0,0,1,0,0,0,1" only_selected="false" radius="0" unit="px" use_knot_distance="true"/>
    <inkscape:path-effect id="path-effect336" apply_no_radius="true" apply_with_radius="true" chamfer_steps="1" effect="fillet_chamfer" flexible="false" hide_knots="false" is_visible="true" lpeversion="1" method="auto" mode="F" nodesatellites_param="F,0,0,1,0,0,0,1 @ F,0,0,1,0,0,0,1 @ F,0,0,1,0,0,0,1 @ F,0,0,1,0,0,0,1 @ F,0,0,1,0,0,0,1 @ F,0,0,1,0,0,0,1 @ F,0,0,1,0,0,0,1 @ F,0,0,1,0,0,0,1 @ F,0,0,1,0,0,0,1 @ F,0,0,1,0,0,0,1 @ F,0,0,1,0,0,0,1 @ F,0,0,1,0,0,0,1 @ F,0,0,1,0,0,0,1 @ F,0,0,1,0,0,0,1 @ F,0,0,1,0,0,0,1 @ F,0,0,1,0,0,0,1 @ F,0,0,1,0,0,0,1 @ F,0,0,1,0,0,0,1" only_selected="false" radius="0" unit="px" use_knot_distance="true"/>
    <inkscape:path-effect id="path-effect335" apply_no_radius="true" apply_with_radius="true" chamfer_steps="1" effect="fillet_chamfer" flexible="false" hide_knots="false" is_visible="true" lpeversion="1" method="auto" mode="F" nodesatellites_param="F,0,0,1,0,0,0,1 @ F,0,0,1,0,0,0,1 @ F,0,0,1,0,0,0,1 @ F,0,0,1,0,0,0,1 @ F,0,0,1,0,0,0,1 @ F,0,0,1,0,0,0,1 @ F,0,0,1,0,0,0,1 @ F,0,0,1,0,0,0,1 @ F,0,0,1,0,0,0,1 @ F,0,0,1,0,0,0,1 @ F,0,0,1,0,0,0,1 @ F,0,0,1,0,0,0,1 @ F,0,0,1,0,0,0,1 @ F,0,0,1,0,0,0,1 @ F,0,0,1,0,0,0,1 @ F,0,0,1,0,0,0,1 @ F,0,0,1,0,0,0,1 @ F,0,0,1,0,0,0,1" only_selected="false" radius="0" unit="px" use_knot_distance="true"/>
    <inkscape:path-effect id="path-effect334" apply_no_radius="true" apply_with_radius="true" chamfer_steps="1" effect="fillet_chamfer" flexible="false" hide_knots="false" is_visible="true" lpeversion="1" method="auto" mode="F" nodesatellites_param="F,0,0,1,0,0,0,1 @ F,0,0,1,0,0,0,1 @ F,0,0,1,0,0,0,1 @ F,0,0,1,0,0,0,1 @ F,0,0,1,0,0,0,1 @ F,0,0,1,0,0,0,1 @ F,0,0,1,0,0,0,1 @ F,0,0,1,0,0,0,1 @ F,0,0,1,0,0,0,1 @ F,0,0,1,0,0,0,1 @ F,0,0,1,0,0,0,1 @ F,0,0,1,0,0,0,1 @ F,0,0,1,0,0,0,1 @ F,0,0,1,0,0,0,1 @ F,0,0,1,0,0,0,1 @ F,0,0,1,0,0,0,1 @ F,0,0,1,0,0,0,1 @ F,0,0,1,0,0,0,1" only_selected="false" radius="0" unit="px" use_knot_distance="true"/>
    <inkscape:path-effect id="path-effect267" effect="spiro" is_visible="true" lpeversion="1"/>
    <inkscape:path-effect id="path-effect266" apply_no_radius="true" apply_with_radius="true" chamfer_steps="1" effect="fillet_chamfer" flexible="false" hide_knots="false" is_visible="true" lpeversion="1" method="auto" mode="F" nodesatellites_param="F,0,0,1,0,0,0,1 @ F,0,0,1,0,0,0,1 @ F,0,0,1,0,0,0,1 @ F,0,0,1,0,0,0,1 @ F,0,0,1,0,0,0,1 @ F,0,0,1,0,0,0,1 @ F,0,0,1,0,0,0,1 @ F,0,0,1,0,0,0,1 @ F,0,0,1,0,0,0,1 @ F,0,0,1,0,0,0,1 @ F,0,0,1,0,0,0,1 @ F,0,0,1,0,0,0,1" only_selected="false" radius="0" unit="px" use_knot_distance="true"/>
    <inkscape:path-effect id="path-effect84" apply_no_radius="true" apply_with_radius="true" chamfer_steps="1" effect="fillet_chamfer" flexible="false" hide_knots="false" is_visible="true" lpeversion="1" method="auto" mode="F" nodesatellites_param="F,0,0,1,0,0,0,1 @ F,0,0,1,0,0,0,1 @ F,0,0,1,0,0,0,1 @ F,0,0,1,0,0,0,1 @ F,0,0,1,0,0,0,1 @ F,0,0,1,0,0,0,1 @ F,0,0,1,0,0,0,1 @ F,0,0,1,0,0,0,1 @ F,0,0,1,0,0,0,1 @ F,0,0,1,0,0,0,1 @ F,0,0,1,0,0,0,1 @ F,0,0,1,0,0,0,1 @ F,0,0,1,0,0,0,1 @ F,0,0,1,0,0,0,1 @ F,0,0,1,0,0,0,1 @ F,0,0,1,0,0,0,1 @ F,0,0,1,0,0,0,1 @ F,0,0,1,0,0,0,1 @ F,0,0,1,0,0,0,1 @ F,0,0,1,0,0,0,1 @ F,0,0,1,0,0,0,1 @ F,0,0,1,0,0,0,1 @ F,0,0,1,0,0,0,1 @ F,0,0,1,0,0,0,1 @ F,0,0,1,0,0,0,1 @ F,0,0,1,0,0,0,1 @ F,0,0,1,0,0,0,1 @ F,0,0,1,0,0,0,1 @ F,0,0,1,0,0,0,1 @ F,0,0,1,0,0,0,1 @ F,0,0,1,0,0,0,1 @ F,0,0,1,0,0,0,1 @ F,0,0,1,0,0,0,1 @ F,0,0,1,0,0,0,1 @ F,0,0,1,0,0,0,1 @ F,0,0,1,0,0,0,1 | F,0,0,1,0,0,0,1 @ F,0,0,1,0,0,0,1 @ F,0,0,1,0,0,0,1 @ F,0,0,1,0,0,0,1 | F,0,0,1,0,0,0,1 @ F,0,0,1,0,0,0,1 @ F,0,0,1,0,0,0,1 @ F,0,0,1,0,0,0,1 @ F,0,0,1,0,0,0,1" only_selected="false" radius="0" unit="px" use_knot_distance="true"/>
    <inkscape:path-effect id="path-effect393-5" effect="spiro" is_visible="true" lpeversion="1"/>
    <inkscape:path-effect id="path-effect433-3" effect="spiro" is_visible="true" lpeversion="1"/>
    <inkscape:path-effect id="path-effect433-5" effect="spiro" is_visible="true" lpeversion="1"/>
    <inkscape:path-effect id="path-effect456-6" effect="spiro" is_visible="true" lpeversion="1"/>
    <inkscape:path-effect id="path-effect456-6-3" effect="spiro" is_visible="true" lpeversion="1"/>
    <inkscape:path-effect id="path-effect457-7" effect="spiro" is_visible="true" lpeversion="1"/>
    <inkscape:path-effect id="path-effect678-5" effect="spiro" is_visible="true" lpeversion="1"/>
    <inkscape:path-effect id="path-effect678-5-3" effect="spiro" is_visible="true" lpeversion="1"/>
    <inkscape:path-effect id="path-effect710-0" apply_no_radius="true" apply_with_radius="true" chamfer_steps="1" effect="fillet_chamfer" flexible="false" hide_knots="false" is_visible="true" lpeversion="1" method="auto" mode="F" nodesatellites_param="F,0,0,1,0,0.026458344,0,1 @ F,0,0,1,0,0.026458344,0,1 @ F,0,0,1,0,0.026458344,0,1 @ F,0,0,1,0,0.026458344,0,1 @ F,0,0,1,0,0.026458344,0,1 @ F,0,0,1,0,0.026458344,0,1" only_selected="false" radius="0.5" unit="px" use_knot_distance="true"/>
  </g>
  <g class="st0">
    <g class="st0">
      <path d="M846.45-205.15l.07-6.77v-37.95l-.07-6.77h6.62l-.07,6.77v37.95l.07,6.77h-6.62Z"/>
      <path d="M911.33-218.33c-1.8,5.26-8.64,14.54-22.61,14.54s-24.77-8.71-24.77-26.64c0-15.77,9.5-27.58,25.13-27.58,12.03,0,18.51,6.62,21.89,14.04l-5.9,2.38c-1.8-4.54-6.77-10.66-16.06-10.66-10.3,0-18,8.21-18,21.6,0,15.84,9.65,21.1,17.93,21.1,9.72,0,15.48-7.2,16.78-10.94l5.62,2.16Z"/>
      <path d="M964.61-218.33c-1.8,5.26-8.64,14.54-22.61,14.54s-24.77-8.71-24.77-26.64c0-15.77,9.5-27.58,25.13-27.58,12.03,0,18.51,6.62,21.89,14.04l-5.9,2.38c-1.8-4.54-6.77-10.66-16.06-10.66-10.3,0-18,8.21-18,21.6,0,15.84,9.65,21.1,17.93,21.1,9.72,0,15.48-7.2,16.78-10.94l5.62,2.16Z"/>
      <path d="M980.01-225.89v13.97l.07,6.77h-6.62l.07-6.77v-37.95l-.07-6.77h21.24c7.85,0,18.51,1.51,18.51,15.05s-10.08,15.7-18.51,15.7h-14.69ZM980.01-231.58h13.83c6.7,0,12.31-1.3,12.31-9.86s-6.05-9.5-12.31-9.5h-13.83v19.37Z"/>
      <path d="M1054.39-221.85c-4.82,3.1-9.86,6.26-12.89,10.94v.14h27.51v5.62h-34.27v-5.04c3.24-7.78,10.3-12.24,16.56-16.35,6.12-4.03,11.45-7.42,11.45-13.39,0-4.54-3.02-9.22-9.5-9.22-5.26,0-9.86,3.1-12.38,10.8l-5.83-1.94c4.46-11.67,11.88-14.33,18.58-14.33,11.45,0,15.7,7.92,15.7,14.62,0,8.5-6.91,13.03-14.91,18.15Z"/>
      <path d="M1115.88-229.34c0,13.97-7.27,25.2-19.51,25.2s-19.51-11.23-19.51-25.2,7.49-25.27,19.51-25.27,19.51,11.31,19.51,25.27ZM1083.47-229.42c0,11.95,5.54,19.95,12.89,19.95s12.96-7.99,12.96-19.95-5.54-19.87-12.96-19.87-12.89,8.06-12.89,19.87Z"/>
      <path d="M1142.8-221.85c-4.82,3.1-9.86,6.26-12.89,10.94v.14h27.51v5.62h-34.28v-5.04c3.24-7.78,10.3-12.24,16.56-16.35,6.12-4.03,11.45-7.42,11.45-13.39,0-4.54-3.02-9.22-9.5-9.22-5.26,0-9.87,3.1-12.39,10.8l-5.83-1.94c4.46-11.67,11.88-14.33,18.58-14.33,11.45,0,15.7,7.92,15.7,14.62,0,8.5-6.91,13.03-14.91,18.15Z"/>
      <path d="M1171.96-228.77h.14c3.24-5.26,7.92-7.85,13.9-7.85,7.85,0,15.84,4.46,15.84,15.55s-8.21,16.92-17.5,16.92c-11.09,0-19.08-8.14-19.08-22.97,0-16.49,9.94-27.51,22.54-27.51,5.69,0,10.23,2.23,11.88,3.24l-3.31,4.9c-2.66-1.51-5.33-2.66-8.42-2.66-6.77,0-15.34,5.54-15.99,20.38ZM1172.18-222.5c1.3,9.58,6.55,13.03,12.6,13.03,6.99,0,10.51-4.68,10.51-11.23,0-5.62-2.59-10.58-10.08-10.58-5.69,0-9.79,2.88-13.03,8.79Z"/>
    </g>
  </g>
  <g class="st0">
    <g class="st0">
      <path d="M83.95,150H5.27v-17.72l21.06-8.24V28.84L5.27,20.6V2.88h78.68v17.72l-21.06,8.24v95.2l21.06,8.24v17.72Z"/>
      <path d="M186.83,26.78c-14.04,0-24.78,4.46-32.2,13.39-7.42,8.93-11.14,21.16-11.14,36.68s3.43,27.79,10.29,36.37c6.86,8.59,17.87,12.88,33.04,12.88,6.94,0,13.96-.69,21.06-2.06,7.1-1.37,14.77-3.3,23-5.77v26.17c-7.59,2.61-15.09,4.53-22.51,5.77-7.43,1.24-15.74,1.85-24.93,1.85-17.91,0-32.6-3.12-44.06-9.38-11.46-6.25-19.93-15.04-25.42-26.38-5.49-11.33-8.23-24.55-8.23-39.67s3.15-27.95,9.44-39.36c6.29-11.4,15.45-20.33,27.48-26.79,12.02-6.46,26.75-9.68,44.18-9.68,8.55,0,17.15.93,25.78,2.78,8.63,1.85,16.9,4.36,24.81,7.52l-11.86,25.34c-6.46-2.61-12.95-4.87-19.49-6.8-6.54-1.92-12.95-2.88-19.25-2.88Z"/>
      <path d="M336.2,26.78c-14.04,0-24.78,4.46-32.2,13.39-7.42,8.93-11.14,21.16-11.14,36.68s3.43,27.79,10.29,36.37c6.86,8.59,17.87,12.88,33.04,12.88,6.94,0,13.96-.69,21.06-2.06,7.1-1.37,14.77-3.3,23-5.77v26.17c-7.59,2.61-15.09,4.53-22.51,5.77-7.43,1.24-15.74,1.85-24.93,1.85-17.91,0-32.6-3.12-44.06-9.38-11.46-6.25-19.93-15.04-25.42-26.38-5.49-11.33-8.23-24.55-8.23-39.67s3.15-27.95,9.44-39.36c6.29-11.4,15.45-20.33,27.48-26.79,12.02-6.46,26.75-9.68,44.18-9.68,8.55,0,17.15.93,25.78,2.78,8.63,1.85,16.9,4.36,24.81,7.52l-11.86,25.34c-6.46-2.61-12.95-4.87-19.49-6.8-6.54-1.92-12.95-2.88-19.25-2.88Z"/>
      <path d="M472.25,2.88c22.27,0,38.53,4.09,48.78,12.26,10.25,8.17,15.37,19.4,15.37,33.69,0,8.65-2.1,16.69-6.29,24.11-4.2,7.42-11.18,13.39-20.94,17.93-9.77,4.53-23.04,6.8-39.82,6.8h-15.74v52.34h-36.55V2.88h55.19ZM470.31,28.43h-16.7v43.68h12.1c10.33,0,18.52-1.75,24.57-5.25,6.05-3.5,9.08-9.17,9.08-17,0-14.29-9.68-21.43-29.05-21.43Z"/>
      <path d="M740.71,150h-120.8v-21.64l43.33-37.29c8.71-7.69,15.74-14.12,21.06-19.27,5.33-5.15,9.2-9.82,11.62-14.01,2.42-4.19,3.63-8.69,3.63-13.5,0-5.9-1.9-10.3-5.69-13.19-3.79-2.88-8.92-4.33-15.37-4.33s-13.07,1.31-19.37,3.92c-6.29,2.61-12.91,6.32-19.85,11.13l-19.85-19.99c4.84-3.57,10.08-6.97,15.74-10.2,5.65-3.23,12.14-5.84,19.49-7.83,7.34-1.99,16.18-2.99,26.51-2.99,11.29,0,21.02,1.75,29.17,5.25,8.15,3.5,14.44,8.24,18.88,14.22,4.44,5.98,6.66,12.74,6.66,20.3,0,8.11-1.9,15.53-5.69,22.25-3.79,6.73-9.28,13.39-16.46,19.99-7.18,6.59-15.86,13.88-26.02,21.84l-22.27,17.72v1.44h75.29v26.17Z"/>
      <path d="M878.21,76.44c0,15.8-1.98,29.33-5.93,40.59-3.96,11.27-10.37,19.92-19.25,25.96-8.88,6.05-20.66,9.07-35.34,9.07-20.82,0-36.07-6.66-45.75-19.99-9.68-13.32-14.52-31.87-14.52-55.63,0-15.79,1.94-29.36,5.81-40.7,3.87-11.33,10.25-20.02,19.12-26.07,8.87-6.04,20.66-9.07,35.34-9.07,20.66,0,35.91,6.66,45.75,19.99,9.84,13.33,14.77,31.94,14.77,55.84ZM793.72,76.44c0,16.76,1.69,29.36,5.08,37.81,3.39,8.45,9.68,12.67,18.88,12.67s15.33-4.19,18.88-12.57c3.55-8.38,5.33-21.02,5.33-37.91s-1.78-29.39-5.33-37.91c-3.55-8.52-9.85-12.77-18.88-12.77s-15.49,4.26-18.88,12.77c-3.39,8.52-5.08,21.16-5.08,37.91Z"/>
      <path d="M1017.65,150h-120.8v-21.64l43.33-37.29c8.71-7.69,15.74-14.12,21.06-19.27,5.33-5.15,9.2-9.82,11.62-14.01,2.42-4.19,3.63-8.69,3.63-13.5,0-5.9-1.9-10.3-5.69-13.19-3.79-2.88-8.92-4.33-15.37-4.33s-13.07,1.31-19.37,3.92c-6.29,2.61-12.91,6.32-19.85,11.13l-19.85-19.99c4.84-3.57,10.08-6.97,15.74-10.2,5.65-3.23,12.14-5.84,19.49-7.83,7.34-1.99,16.18-2.99,26.51-2.99,11.29,0,21.02,1.75,29.17,5.25,8.15,3.5,14.44,8.24,18.88,14.22,4.44,5.98,6.66,12.74,6.66,20.3,0,8.11-1.9,15.53-5.69,22.25-3.79,6.73-9.28,13.39-16.46,19.99-7.18,6.59-15.86,13.88-26.02,21.84l-22.27,17.72v1.44h75.29v26.17Z"/>
      <path d="M1034.11,87.57c0-8.38.73-16.72,2.18-25.04,1.45-8.31,3.99-16.14,7.63-23.49,3.63-7.35,8.71-13.87,15.25-19.58,6.54-5.7,14.85-10.16,24.93-13.39,10.08-3.23,22.31-4.84,36.67-4.84,3.39,0,7.34.1,11.86.31,4.52.21,8.31.59,11.38,1.13v24.93c-3.07-.55-6.42-1.03-10.05-1.44s-7.22-.62-10.77-.62c-14.37,0-25.46,1.92-33.29,5.77-7.83,3.85-13.36,9.24-16.58,16.17-3.23,6.94-5.08,14.94-5.57,24h1.45c3.23-4.81,7.87-8.86,13.92-12.16s13.92-4.95,23.6-4.95c15.17,0,27.19,4.05,36.07,12.16,8.87,8.11,13.31,19.58,13.31,34.41,0,15.94-5.29,28.43-15.86,37.5-10.57,9.07-24.9,13.6-42.97,13.6-11.78,0-22.43-2.3-31.96-6.9-9.52-4.6-17.11-11.67-22.76-21.22-5.65-9.55-8.47-21.67-8.47-36.37ZM1096.56,127.13c7.1,0,12.91-2.09,17.43-6.28,4.52-4.19,6.78-10.68,6.78-19.47,0-7.14-1.94-12.78-5.81-16.9-3.87-4.12-9.77-6.18-17.67-6.18-5.49,0-10.21,1.03-14.16,3.09-3.96,2.06-7.06,4.64-9.32,7.73-2.26,3.09-3.39,6.29-3.39,9.58,0,4.53.97,9,2.9,13.39,1.94,4.4,4.88,8,8.84,10.82,3.95,2.82,8.75,4.22,14.4,4.22Z"/>
    </g>
  </g>
</svg>