<?xml version="1.0" encoding="UTF-8"?>
<svg xmlns="http://www.w3.org/2000/svg" version="1.1" xmlns:cc="http://creativecommons.org/ns#" xmlns:dc="http://purl.org/dc/elements/1.1/" xmlns:inkscape="http://www.inkscape.org/namespaces/inkscape" xmlns:rdf="http://www.w3.org/1999/02/22-rdf-syntax-ns#" xmlns:sodipodi="http://sodipodi.sourceforge.net/DTD/sodipodi-0.dtd" xmlns:svg="http://www.w3.org/2000/svg" viewBox="0 0 1131 152">
  <!-- Generator: Adobe Illustrator 29.4.0, SVG Export Plug-In . SVG Version: 2.1.0 Build 152)  -->
  <defs>
    <style>
      .st0 {
        fill: #fff;
      }

      .st1, .st2 {
        isolation: isolate;
        opacity: .5;
      }

      .st1, .st2, .st3, .st4 {
        display: none;
      }

      .st2 {
        fill: #f90000;
      }

      .st4 {
        fill: #fd0101;
        fill-opacity: .4;
      }
    </style>
  </defs>
  <g id="svg1" inkscape:export-filename="design15.png" inkscape:export-ydpi="96" sodipodi:docname="iccplogofinal2025.svg">
    <sodipodi:namedview id="namedview1" bordercolor="#000000" borderopacity="0.25" inkscape:current-layer="svg1" inkscape:cx="507.73432" inkscape:cy="475.20538" inkscape:deskcolor="#d1d1d1" inkscape:document-units="mm" inkscape:pagecheckerboard="false" inkscape:pageopacity="0.0" inkscape:showpageshadow="2" inkscape:window-height="847" inkscape:window-maximized="0" inkscape:window-width="1440" inkscape:window-x="0" inkscape:window-y="25" inkscape:zoom="0.35353135" pagecolor="#ffffff" showgrid="true">
      <inkscape:grid id="grid5" color="#0099e5" empcolor="#0099e5" empopacity="0.30196078" empspacing="5" enabled="true" opacity="0.14901961" originx="-6.0476923" originy="-5.8998995" spacingx="0.52916688" spacingy="0.52916688" units="px" visible="true"/>
      <sodipodi:guide id="guide6" inkscape:locked="false" orientation="0,16" position="-6.0476922,-215.64534"/>
      <sodipodi:guide id="guide7" inkscape:locked="false" orientation="16,0" position="-1.814357,-215.64534"/>
      <sodipodi:guide id="guide8" inkscape:locked="false" orientation="0,-16" position="-1.814357,-219.87867"/>
      <sodipodi:guide id="guide9" inkscape:locked="false" orientation="-16,0" position="-6.0476922,-219.87867"/>
      <sodipodi:guide id="guide10" inkscape:locked="false" orientation="0,16" position="-0.65862955,59.16742"/>
      <sodipodi:guide id="guide11" inkscape:locked="false" orientation="16,0" position="-1.814357,-215.64534"/>
      <sodipodi:guide id="guide12" inkscape:locked="false" orientation="0,-16" position="-1.814357,-219.87867"/>
      <sodipodi:guide id="guide13" inkscape:locked="false" orientation="-16,0" position="-6.0476922,-219.87867"/>
      <inkscape:page id="page13" x="0" y="0" width="399.00836" height="53.621552" bleed="0" margin="0"/>
    </sodipodi:namedview>
    <g id="_x3C_defs">
      <inkscape:path-effect id="path-effect710" apply_no_radius="true" apply_with_radius="true" chamfer_steps="1" effect="fillet_chamfer" flexible="false" hide_knots="false" is_visible="true" lpeversion="1" method="auto" mode="F" nodesatellites_param="F,0,0,1,0,0.026458344,0,1 @ F,0,0,1,0,0.026458344,0,1 @ F,0,0,1,0,0.026458344,0,1 @ F,0,0,1,0,0.026458344,0,1 @ F,0,0,1,0,0.026458344,0,1 @ F,0,0,1,0,0.026458344,0,1" only_selected="false" radius="0.5" unit="px" use_knot_distance="true"/>
      <inkscape:path-effect id="path-effect706" effect="spiro" is_visible="true" lpeversion="1"/>
      <inkscape:path-effect id="path-effect681" effect="spiro" is_visible="true" lpeversion="1"/>
      <inkscape:path-effect id="path-effect680" effect="spiro" is_visible="true" lpeversion="1"/>
      <inkscape:path-effect id="path-effect679" effect="spiro" is_visible="true" lpeversion="1"/>
      <inkscape:path-effect id="path-effect678" effect="spiro" is_visible="true" lpeversion="1"/>
      <inkscape:path-effect id="path-effect610" effect="spiro" is_visible="true" lpeversion="1"/>
      <inkscape:path-effect id="path-effect609" effect="spiro" is_visible="true" lpeversion="1"/>
      <inkscape:path-effect id="path-effect605" effect="spiro" is_visible="true" lpeversion="1"/>
      <inkscape:path-effect id="path-effect604" effect="spiro" is_visible="true" lpeversion="1"/>
      <inkscape:path-effect id="path-effect600" apply_no_radius="true" apply_with_radius="true" chamfer_steps="1" effect="fillet_chamfer" flexible="false" hide_knots="false" is_visible="true" lpeversion="1" method="auto" mode="F" nodesatellites_param="F,0,0,1,0,0.13229172,0,1 @ F,0,0,1,0,0.13229172,0,1 @ F,0,0,1,0,0.13229172,0,1 @ F,0,0,1,0,0.13229172,0,1" only_selected="false" radius="0.5" unit="px" use_knot_distance="true"/>
      <inkscape:path-effect id="path-effect599" apply_no_radius="true" apply_with_radius="true" chamfer_steps="1" effect="fillet_chamfer" flexible="false" hide_knots="false" is_visible="true" lpeversion="1" method="auto" mode="F" nodesatellites_param="F,0,0,1,0,0.13229172,0,1 @ F,0,0,1,0,0.13229172,0,1 @ F,0,0,1,0,0.13229172,0,1" only_selected="false" radius="0.5" unit="px" use_knot_distance="true"/>
      <inkscape:path-effect id="path-effect598" apply_no_radius="true" apply_with_radius="true" chamfer_steps="1" effect="fillet_chamfer" flexible="false" hide_knots="false" is_visible="true" lpeversion="1" method="auto" mode="F" nodesatellites_param="F,0,0,1,0,0.13229172,0,1 @ F,0,0,1,0,0.13229172,0,1 @ F,0,0,1,0,0.13229172,0,1 @ F,0,0,1,0,0.13229172,0,1" only_selected="false" radius="0.5" unit="px" use_knot_distance="true"/>
      <inkscape:path-effect id="path-effect597" apply_no_radius="true" apply_with_radius="true" chamfer_steps="1" effect="fillet_chamfer" flexible="false" hide_knots="false" is_visible="true" lpeversion="1" method="auto" mode="F" nodesatellites_param="F,0,0,1,0,0.13229172,0,1 @ F,0,0,1,0,0.13229172,0,1 @ F,0,0,1,0,0.13229172,0,1 @ F,0,0,1,0,0.13229172,0,1" only_selected="false" radius="0.5" unit="px" use_knot_distance="true"/>
      <inkscape:path-effect id="path-effect596" apply_no_radius="true" apply_with_radius="true" chamfer_steps="1" effect="fillet_chamfer" flexible="false" hide_knots="false" is_visible="true" lpeversion="1" method="auto" mode="F" nodesatellites_param="F,0,0,1,0,0.13229172,0,1 @ F,0,0,1,0,0.13229172,0,1 @ F,0,0,1,0,0.13229172,0,1" only_selected="false" radius="0.5" unit="px" use_knot_distance="true"/>
      <inkscape:path-effect id="path-effect584" apply_no_radius="true" apply_with_radius="true" chamfer_steps="1" effect="fillet_chamfer" flexible="false" hide_knots="false" is_visible="true" lpeversion="1" method="auto" mode="F" nodesatellites_param="F,0,0,1,0,0.13229172,0,1 @ F,0,0,1,0,0.13229172,0,1 @ F,0,0,1,0,0.13229172,0,1 @ F,0,0,1,0,0.13229172,0,1 @ F,0,0,1,0,0.13229172,0,1 @ F,0,0,1,0,0.13229172,0,1 @ F,0,0,1,0,0.13229172,0,1 @ F,0,0,1,0,0.13229172,0,1 @ F,0,0,1,0,0.13229172,0,1 @ F,0,0,1,0,0.13229172,0,1 @ F,0,0,1,0,0.13229172,0,1 @ F,0,0,1,0,0.13229172,0,1 @ F,0,0,1,0,0.13229172,0,1" only_selected="false" radius="0.5" unit="px" use_knot_distance="true"/>
      <inkscape:path-effect id="path-effect569" effect="spiro" is_visible="true" lpeversion="1"/>
      <inkscape:path-effect id="path-effect567" effect="spiro" is_visible="true" lpeversion="1"/>
      <inkscape:path-effect id="path-effect565" effect="spiro" is_visible="true" lpeversion="1"/>
      <inkscape:path-effect id="path-effect563" effect="spiro" is_visible="true" lpeversion="1"/>
      <inkscape:path-effect id="path-effect561" effect="spiro" is_visible="true" lpeversion="1"/>
      <inkscape:path-effect id="path-effect559" effect="spiro" is_visible="true" lpeversion="1"/>
      <inkscape:path-effect id="path-effect538" effect="spiro" is_visible="true" lpeversion="1"/>
      <inkscape:path-effect id="path-effect537" effect="spiro" is_visible="true" lpeversion="1"/>
      <inkscape:path-effect id="path-effect536" effect="spiro" is_visible="true" lpeversion="1"/>
      <inkscape:path-effect id="path-effect535" effect="spiro" is_visible="true" lpeversion="1"/>
      <inkscape:path-effect id="path-effect534" effect="spiro" is_visible="true" lpeversion="1"/>
      <inkscape:path-effect id="path-effect533" effect="spiro" is_visible="true" lpeversion="1"/>
      <inkscape:path-effect id="path-effect459" effect="spiro" is_visible="true" lpeversion="1"/>
      <inkscape:path-effect id="path-effect458" effect="spiro" is_visible="true" lpeversion="1"/>
      <inkscape:path-effect id="path-effect457" effect="spiro" is_visible="true" lpeversion="1"/>
      <inkscape:path-effect id="path-effect456" effect="spiro" is_visible="true" lpeversion="1"/>
      <inkscape:path-effect id="path-effect453" apply_no_radius="true" apply_with_radius="true" chamfer_steps="1" effect="fillet_chamfer" flexible="false" hide_knots="false" is_visible="true" lpeversion="1" method="auto" mode="F" nodesatellites_param="F,0,0,1,0,0.13229172,0,1 @ F,0,0,1,0,0.13229172,0,1 @ F,0,0,1,0,0.13229172,0,1 @ F,0,0,1,0,0.13229172,0,1 @ F,0,0,1,0,0.13229172,0,1 @ F,0,0,1,0,0.13229172,0,1 @ F,0,0,1,0,0.13229172,0,1 @ F,0,0,1,0,0.13229172,0,1 @ F,0,0,1,0,0.13229172,0,1 @ F,0,0,1,0,0.13229172,0,1 @ F,0,0,1,0,0.13229172,0,1 @ F,0,0,1,0,0.13229172,0,1 @ F,0,0,1,0,0.13229172,0,1" only_selected="false" radius="0.5" unit="px" use_knot_distance="true"/>
      <inkscape:path-effect id="path-effect445" apply_no_radius="true" apply_with_radius="true" chamfer_steps="1" effect="fillet_chamfer" flexible="false" hide_knots="false" is_visible="true" lpeversion="1" method="auto" mode="F" nodesatellites_param="F,0,0,1,0,0.13229172,0,1 @ F,0,0,1,0,0.13229172,0,1 @ F,0,0,1,0,0.13229172,0,1 @ F,0,0,1,0,0.13229172,0,1 @ F,0,0,1,0,0.13229172,0,1 @ F,0,0,1,0,0.13229172,0,1 @ F,0,0,1,0,0.13229172,0,1 @ F,0,0,1,0,0.13229172,0,1 @ F,0,0,1,0,0.13229172,0,1 @ F,0,0,1,0,0.13229172,0,1 @ F,0,0,1,0,0.13229172,0,1 @ F,0,0,1,0,0.13229172,0,1 @ F,0,0,1,0,0.13229172,0,1" only_selected="false" radius="0.5" unit="px" use_knot_distance="true"/>
      <inkscape:path-effect id="path-effect437" effect="spiro" is_visible="true" lpeversion="1"/>
      <inkscape:path-effect id="path-effect436" effect="spiro" is_visible="true" lpeversion="1"/>
      <inkscape:path-effect id="path-effect435" effect="spiro" is_visible="true" lpeversion="1"/>
      <inkscape:path-effect id="path-effect434" effect="spiro" is_visible="true" lpeversion="1"/>
      <inkscape:path-effect id="path-effect433" effect="spiro" is_visible="true" lpeversion="1"/>
      <inkscape:path-effect id="path-effect422" effect="spiro" is_visible="true" lpeversion="1"/>
      <inkscape:path-effect id="path-effect421" apply_no_radius="true" apply_with_radius="true" chamfer_steps="1" effect="fillet_chamfer" flexible="false" hide_knots="false" is_visible="true" lpeversion="1" method="auto" mode="F" nodesatellites_param="F,0,0,1,0,0.13229172,0,1 @ F,0,0,1,0,0.13229172,0,1 @ F,0,0,1,0,0.13229172,0,1 @ F,0,0,1,0,0.13229172,0,1 @ F,0,0,1,0,0.13229172,0,1 @ F,0,0,1,0,0.13229172,0,1 @ F,0,0,1,0,0.13229172,0,1 @ F,0,0,1,0,0.13229172,0,1 @ F,0,0,1,0,0.13229172,0,1 @ F,0,0,1,0,0.13229172,0,1 @ F,0,0,1,0,0.13229172,0,1 @ F,0,0,1,0,0.13229172,0,1 @ F,0,0,1,0,0.13229172,0,1" only_selected="false" radius="0.5" unit="px" use_knot_distance="true"/>
      <inkscape:path-effect id="path-effect414" apply_no_radius="true" apply_with_radius="true" chamfer_steps="1" effect="fillet_chamfer" flexible="false" hide_knots="false" is_visible="true" lpeversion="1" method="auto" mode="F" nodesatellites_param="F,0,0,1,0,0.13229172,0,1 @ F,0,0,1,0,0.13229172,0,1 @ F,0,0,1,0,0.13229172,0,1 @ F,0,0,1,0,0.13229172,0,1 @ F,0,0,1,0,0.13229172,0,1 @ F,0,0,1,0,0.13229172,0,1 @ F,0,0,1,0,0.13229172,0,1 @ F,0,0,1,0,0.13229172,0,1 @ F,0,0,1,0,0.13229172,0,1 @ F,0,0,1,0,0.13229172,0,1 @ F,0,0,1,0,0.13229172,0,1 @ F,0,0,1,0,0.13229172,0,1 @ F,0,0,1,0,0.13229172,0,1" only_selected="false" radius="0.5" unit="px" use_knot_distance="true"/>
      <inkscape:path-effect id="path-effect401" effect="spiro" is_visible="true" lpeversion="1"/>
      <inkscape:path-effect id="path-effect400" effect="spiro" is_visible="true" lpeversion="1"/>
      <inkscape:path-effect id="path-effect399" effect="spiro" is_visible="true" lpeversion="1"/>
      <inkscape:path-effect id="path-effect398" effect="spiro" is_visible="true" lpeversion="1"/>
      <inkscape:path-effect id="path-effect397" effect="spiro" is_visible="true" lpeversion="1"/>
      <inkscape:path-effect id="path-effect396" effect="spiro" is_visible="true" lpeversion="1"/>
      <inkscape:path-effect id="path-effect395" effect="spiro" is_visible="true" lpeversion="1"/>
      <inkscape:path-effect id="path-effect394" effect="spiro" is_visible="true" lpeversion="1"/>
      <inkscape:path-effect id="path-effect393" effect="spiro" is_visible="true" lpeversion="1"/>
      <inkscape:path-effect id="path-effect392" effect="spiro" is_visible="true" lpeversion="1"/>
      <inkscape:path-effect id="path-effect391" effect="spiro" is_visible="true" lpeversion="1"/>
      <inkscape:path-effect id="path-effect390" effect="spiro" is_visible="true" lpeversion="1"/>
      <inkscape:path-effect id="path-effect389" effect="spiro" is_visible="true" lpeversion="1"/>
      <inkscape:path-effect id="path-effect388" effect="spiro" is_visible="true" lpeversion="1"/>
      <inkscape:path-effect id="path-effect387" effect="spiro" is_visible="true" lpeversion="1"/>
      <inkscape:path-effect id="path-effect382" apply_no_radius="true" apply_with_radius="true" chamfer_steps="1" effect="fillet_chamfer" flexible="false" hide_knots="false" is_visible="true" lpeversion="1" method="auto" mode="F" nodesatellites_param="F,0,0,1,0,0.13229172,0,1 @ F,0,0,1,0,0.13229172,0,1 @ F,0,0,1,0,0.13229172,0,1 @ F,0,0,1,0,0.13229172,0,1 @ F,0,0,1,0,0.13229172,0,1 @ F,0,0,1,0,0.13229172,0,1 @ F,0,0,1,0,0.13229172,0,1 @ F,0,0,1,0,0.13229172,0,1 @ F,0,0,1,0,0.13229172,0,1 @ F,0,0,1,0,0.13229172,0,1 @ F,0,0,1,0,0.13229172,0,1 @ F,0,0,1,0,0.13229172,0,1 @ F,0,0,1,0,0.13229172,0,1" only_selected="false" radius="0.5" unit="px" use_knot_distance="true"/>
      <inkscape:path-effect id="path-effect378" apply_no_radius="true" apply_with_radius="true" chamfer_steps="1" effect="fillet_chamfer" flexible="false" hide_knots="false" is_visible="true" lpeversion="1" method="auto" mode="F" nodesatellites_param="F,0,0,1,0,0.13229172,0,1 @ F,0,0,1,0,0.13229172,0,1 @ F,0,0,1,0,0.13229172,0,1 @ F,0,0,1,0,0.13229172,0,1 @ F,0,0,1,0,0.13229172,0,1 @ F,0,0,1,0,0.13229172,0,1 @ F,0,0,1,0,0.13229172,0,1 @ F,0,0,1,0,0.13229172,0,1 @ F,0,0,1,0,0.13229172,0,1 @ F,0,0,1,0,0.13229172,0,1 @ F,0,0,1,0,0.13229172,0,1 @ F,0,0,1,0,0.13229172,0,1 @ F,0,0,1,0,0.13229172,0,1" only_selected="false" radius="0.5" unit="px" use_knot_distance="true"/>
      <inkscape:path-effect id="path-effect367" apply_no_radius="true" apply_with_radius="true" chamfer_steps="1" effect="fillet_chamfer" flexible="false" hide_knots="false" is_visible="true" lpeversion="1" method="auto" mode="F" nodesatellites_param="F,0,0,1,0,0,0,1 @ F,0,0,1,0,0,0,1 @ F,0,0,1,0,0,0,1 @ F,0,0,1,0,0,0,1 @ F,0,0,1,0,0,0,1 @ F,0,0,1,0,0,0,1 @ F,0,0,1,0,0,0,1 @ F,0,0,1,0,0,0,1 @ F,0,0,1,0,0,0,1 @ F,0,0,1,0,0,0,1 @ F,0,0,1,0,0,0,1 @ F,0,0,1,0,0,0,1 @ F,0,0,1,0,0,0,1 @ F,0,0,1,0,0,0,1" only_selected="false" radius="0" unit="px" use_knot_distance="true"/>
      <inkscape:path-effect id="path-effect366" effect="spiro" is_visible="true" lpeversion="1"/>
      <inkscape:path-effect id="path-effect365" effect="spiro" is_visible="true" lpeversion="1"/>
      <inkscape:path-effect id="path-effect364" apply_no_weight="true" apply_with_weight="true" effect="bspline" helper_size="0" is_visible="true" lpeversion="1.3" only_selected="false" steps="2" uniform="false" weight="33.333333"/>
      <inkscape:path-effect id="path-effect363" effect="spiro" is_visible="true" lpeversion="1"/>
      <inkscape:path-effect id="path-effect362" effect="spiro" is_visible="true" lpeversion="1"/>
      <inkscape:path-effect id="path-effect361" effect="spiro" is_visible="true" lpeversion="1"/>
      <inkscape:path-effect id="path-effect360" apply_no_radius="true" apply_with_radius="true" chamfer_steps="1" effect="fillet_chamfer" flexible="false" hide_knots="false" is_visible="true" lpeversion="1" method="auto" mode="F" nodesatellites_param="F,0,0,1,0,0,0,1 @ F,0,0,1,0,0,0,1 @ F,0,0,1,0,0,0,1 @ F,0,0,1,0,0,0,1 @ F,0,0,1,0,0,0,1 @ F,0,0,1,0,0,0,1 @ F,0,0,1,0,0,0,1 @ F,0,0,1,0,0,0,1 @ F,0,0,1,0,0,0,1 @ F,0,0,1,0,0,0,1 @ F,0,0,1,0,0,0,1 @ F,0,0,1,0,0,0,1 @ F,0,0,1,0,0,0,1 @ F,0,0,1,0,0,0,1 @ F,0,0,1,0,0,0,1" only_selected="false" radius="0" unit="px" use_knot_distance="true"/>
      <inkscape:path-effect id="path-effect359" apply_no_radius="true" apply_with_radius="true" chamfer_steps="1" effect="fillet_chamfer" flexible="false" hide_knots="false" is_visible="true" lpeversion="1" method="auto" mode="F" nodesatellites_param="F,0,0,1,0,0.26490036,0,1 @ F,0,0,1,0,0,0,1 @ F,0,0,1,0,0,0,1 @ F,0,0,1,0,0,0,1 @ F,0,0,1,0,0,0,1 @ F,0,0,1,0,0,0,1 @ F,0,0,1,0,0.21949854,0,1 @ F,0,0,1,0,0.2237714,0,1 @ F,0,0,1,0,0,0,1 @ F,0,0,1,0,0,0,1 @ F,0,0,1,0,0,0,1 @ F,0,0,1,0,0,0,1 @ F,0,0,1,0,0,0,1 @ F,0,0,1,0,0.19635181,0,1 @ F,0,0,1,0,0.24338188,0,1" only_selected="false" radius="0" unit="px" use_knot_distance="true"/>
      <inkscape:path-effect id="path-effect358" apply_no_radius="true" apply_with_radius="true" chamfer_steps="1" effect="fillet_chamfer" flexible="false" hide_knots="false" is_visible="true" lpeversion="1" method="auto" mode="F" nodesatellites_param="F,0,0,1,0,0,0,1 @ F,0,0,1,0,0,0,1 @ F,0,0,1,0,0,0,1 @ F,0,0,1,0,0,0,1 @ F,0,0,1,0,0,0,1 @ F,0,0,1,0,0,0,1 @ F,0,0,1,0,0,0,1 @ F,0,0,1,0,0,0,1 @ F,0,0,1,0,0,0,1 @ F,0,0,1,0,0,0,1 @ F,0,0,1,0,0,0,1 @ F,0,0,1,0,0,0,1 @ F,0,0,1,0,0,0,1 @ F,0,0,1,0,0.19594438,0,1 @ F,0,0,1,0,0,0,1" only_selected="false" radius="0" unit="px" use_knot_distance="true"/>
      <inkscape:path-effect id="path-effect357" apply_no_radius="true" apply_with_radius="true" chamfer_steps="1" effect="fillet_chamfer" flexible="false" hide_knots="false" is_visible="true" lpeversion="1" method="auto" mode="F" nodesatellites_param="F,0,0,1,0,0,0,1 @ F,0,0,1,0,0,0,1 @ F,0,0,1,0,0,0,1 @ F,0,0,1,0,0,0,1 @ F,0,0,1,0,0,0,1 @ F,0,0,1,0,0,0,1 @ F,0,0,1,0,0,0,1 @ F,0,0,1,0,0,0,1 @ F,0,0,1,0,0,0,1 @ F,0,0,1,0,0,0,1 @ F,0,0,1,0,0,0,1 @ F,0,0,1,0,0,0,1 @ F,0,0,1,0,0,0,1 @ F,0,0,1,0,0,0,1 @ F,0,0,1,0,0,0,1" only_selected="false" radius="0" unit="px" use_knot_distance="true"/>
      <inkscape:path-effect id="path-effect356" apply_no_radius="true" apply_with_radius="true" chamfer_steps="1" effect="fillet_chamfer" flexible="false" hide_knots="false" is_visible="true" lpeversion="1" method="auto" mode="F" nodesatellites_param="F,0,0,1,0,0,0,1 @ F,0,0,1,0,0,0,1 @ F,0,0,1,0,0,0,1 @ F,0,0,1,0,0,0,1 @ F,0,0,1,0,0,0,1 @ F,0,0,1,0,0,0,1 @ F,0,0,1,0,0,0,1 @ F,0,0,1,0,0,0,1 @ F,0,0,1,0,0,0,1 @ F,0,0,1,0,0,0,1 @ F,0,0,1,0,0,0,1 @ F,0,0,1,0,0,0,1 @ F,0,0,1,0,0,0,1 @ F,0,0,1,0,0,0,1 @ F,0,0,1,0,0,0,1" only_selected="false" radius="0" unit="px" use_knot_distance="true"/>
      <inkscape:path-effect id="path-effect355" apply_no_radius="true" apply_with_radius="true" chamfer_steps="1" effect="fillet_chamfer" flexible="false" hide_knots="false" is_visible="true" lpeversion="1" method="auto" mode="F" nodesatellites_param="F,0,0,1,0,0,0,1 @ F,0,0,1,0,0,0,1 @ F,0,0,1,0,0,0,1 @ F,0,0,1,0,0,0,1 @ F,0,0,1,0,0,0,1 @ F,0,0,1,0,0,0,1 @ F,0,0,1,0,0,0,1 @ F,0,0,1,0,0,0,1 @ F,0,0,1,0,0,0,1 @ F,0,0,1,0,0,0,1 @ F,0,0,1,0,0,0,1 @ F,0,0,1,0,0,0,1 @ F,0,0,1,0,0,0,1 @ F,0,0,1,0,0,0,1 @ F,0,0,1,0,0,0,1" only_selected="false" radius="0" unit="px" use_knot_distance="true"/>
      <inkscape:path-effect id="path-effect354" apply_no_radius="true" apply_with_radius="true" chamfer_steps="1" effect="fillet_chamfer" flexible="false" hide_knots="false" is_visible="true" lpeversion="1" method="auto" mode="F" nodesatellites_param="F,0,0,1,0,0,0,1 @ F,0,0,1,0,0,0,1 @ F,0,0,1,0,0,0,1 @ F,0,0,1,0,0,0,1 @ F,0,0,1,0,0,0,1 @ F,0,0,1,0,0,0,1 @ F,0,0,1,0,0,0,1 @ F,0,0,1,0,0,0,1 @ F,0,0,1,0,0,0,1 @ F,0,0,1,0,0,0,1 @ F,0,0,1,0,0,0,1 @ F,0,0,1,0,0,0,1 @ F,0,0,1,0,0,0,1 @ F,0,0,1,0,0,0,1 @ F,0,0,1,0,0,0,1" only_selected="false" radius="0" unit="px" use_knot_distance="true"/>
      <inkscape:path-effect id="path-effect353" apply_no_radius="true" apply_with_radius="true" chamfer_steps="1" effect="fillet_chamfer" flexible="false" hide_knots="false" is_visible="true" lpeversion="1" method="auto" mode="F" nodesatellites_param="F,0,0,1,0,0,0,1 @ F,0,0,1,0,0,0,1 @ F,0,0,1,0,0,0,1 @ F,0,0,1,0,0,0,1 @ F,0,0,1,0,0,0,1 @ F,0,0,1,0,0,0,1 @ F,0,0,1,0,0,0,1 @ F,0,0,1,0,0,0,1 @ F,0,0,1,0,0,0,1 @ F,0,0,1,0,0,0,1 @ F,0,0,1,0,0,0,1 @ F,0,0,1,0,0,0,1 @ F,0,0,1,0,0,0,1 @ F,0,0,1,0,0,0,1 @ F,0,0,1,0,0,0,1" only_selected="false" radius="0" unit="px" use_knot_distance="true"/>
      <inkscape:path-effect id="path-effect352" apply_no_radius="true" apply_with_radius="true" chamfer_steps="1" effect="fillet_chamfer" flexible="false" hide_knots="false" is_visible="true" lpeversion="1" method="auto" mode="F" nodesatellites_param="F,0,0,1,0,0.37158363,0,1 @ F,0,0,1,0,0,0,1 @ F,0,0,1,0,0,0,1 @ F,0,0,1,0,0,0,1 @ F,0,0,1,0,0,0,1 @ F,0,0,1,0,0,0,1 @ F,0,0,1,0,0.22972536,0,1 @ F,0,0,1,0,0,0,1 @ F,0,0,1,0,0,0,1 @ F,0,0,1,0,0,0,1 @ F,0,0,1,0,0,0,1 @ F,0,0,1,0,0,0,1 @ F,0,0,1,0,0,0,1 @ F,0,0,1,0,0,0,1 @ F,0,0,1,0,0.2339601,0,1" only_selected="false" radius="0" unit="px" use_knot_distance="true"/>
      <inkscape:path-effect id="path-effect351" apply_no_radius="true" apply_with_radius="true" chamfer_steps="1" effect="fillet_chamfer" flexible="false" hide_knots="false" is_visible="true" lpeversion="1" method="auto" mode="F" nodesatellites_param="F,0,0,1,0,0,0,1 @ F,0,0,1,0,0,0,1 @ F,0,0,1,0,0,0,1 @ F,0,0,1,0,0,0,1 @ F,0,0,1,0,0,0,1 @ F,0,0,1,0,0,0,1 @ F,0,0,1,0,0,0,1 @ F,0,0,1,0,0,0,1 @ F,0,0,1,0,0,0,1 @ F,0,0,1,0,0,0,1 @ F,0,0,1,0,0,0,1 @ F,0,0,1,0,0,0,1 @ F,0,0,1,0,0,0,1 @ F,0,0,1,0,0,0,1 @ F,0,0,1,0,0,0,1" only_selected="false" radius="0" unit="px" use_knot_distance="true"/>
      <inkscape:path-effect id="path-effect350" apply_no_radius="true" apply_with_radius="true" chamfer_steps="1" effect="fillet_chamfer" flexible="false" hide_knots="false" is_visible="true" lpeversion="1" method="auto" mode="F" nodesatellites_param="F,0,0,1,0,0,0,1 @ F,0,0,1,0,0,0,1 @ F,0,0,1,0,0,0,1 @ F,0,0,1,0,0,0,1 @ F,0,0,1,0,0,0,1 @ F,0,0,1,0,0,0,1 @ F,0,0,1,0,0,0,1 @ F,0,0,1,0,0,0,1 @ F,0,0,1,0,0,0,1 @ F,0,0,1,0,0,0,1 @ F,0,0,1,0,0,0,1 @ F,0,0,1,0,0,0,1 @ F,0,0,1,0,0,0,1 @ F,0,0,1,0,0,0,1 @ F,0,0,1,0,0,0,1" only_selected="false" radius="0" unit="px" use_knot_distance="true"/>
      <inkscape:path-effect id="path-effect349" apply_no_radius="true" apply_with_radius="true" chamfer_steps="1" effect="fillet_chamfer" flexible="false" hide_knots="false" is_visible="true" lpeversion="1" method="auto" mode="F" nodesatellites_param="F,0,0,1,0,0,0,1 @ F,0,0,1,0,0,0,1 @ F,0,0,1,0,0,0,1 @ F,0,0,1,0,0,0,1 @ F,0,0,1,0,0,0,1 @ F,0,0,1,0,0,0,1 @ F,0,0,1,0,0,0,1 @ F,0,0,1,0,0,0,1 @ F,0,0,1,0,0,0,1 @ F,0,0,1,0,0,0,1 @ F,0,0,1,0,0,0,1 @ F,0,0,1,0,0,0,1 @ F,0,0,1,0,0,0,1 @ F,0,0,1,0,0,0,1 @ F,0,0,1,0,0,0,1" only_selected="false" radius="0" unit="px" use_knot_distance="true"/>
      <inkscape:path-effect id="path-effect348" apply_no_radius="true" apply_with_radius="true" chamfer_steps="1" effect="fillet_chamfer" flexible="false" hide_knots="false" is_visible="true" lpeversion="1" method="auto" mode="F" nodesatellites_param="F,0,0,1,0,0.39079844,0,1 @ F,0,0,1,0,0,0,1 @ F,0,0,1,0,0,0,1 @ F,0,0,1,0,0,0,1 @ F,0,0,1,0,0,0,1 @ F,0,0,1,0,0,0,1 @ F,0,0,1,0,0,0,1 @ F,0,0,1,0,0,0,1 @ F,0,0,1,0,0,0,1 @ F,0,0,1,0,0,0,1 @ F,0,0,1,0,0,0,1 @ F,0,0,1,0,0,0,1 @ F,0,0,1,0,0,0,1 @ F,0,0,1,0,0,0,1 @ F,0,0,1,0,0,0,1" only_selected="false" radius="0" unit="px" use_knot_distance="true"/>
      <inkscape:path-effect id="path-effect347" apply_no_radius="true" apply_with_radius="true" chamfer_steps="1" effect="fillet_chamfer" flexible="false" hide_knots="false" is_visible="true" lpeversion="1" method="auto" mode="F" nodesatellites_param="F,0,0,1,0,0,0,1 @ F,0,0,1,0,0,0,1 @ F,0,0,1,0,0,0,1 @ F,0,0,1,0,0,0,1 @ F,0,0,1,0,0,0,1 @ F,0,0,1,0,0,0,1 @ F,0,0,1,0,0,0,1 @ F,0,0,1,0,0,0,1 @ F,0,0,1,0,0,0,1 @ F,0,0,1,0,0,0,1 @ F,0,0,1,0,0,0,1 @ F,0,0,1,0,0,0,1 @ F,0,0,1,0,0,0,1 @ F,0,0,1,0,0,0,1 @ F,0,0,1,0,0,0,1" only_selected="false" radius="0" unit="px" use_knot_distance="true"/>
      <inkscape:path-effect id="path-effect346" apply_no_radius="true" apply_with_radius="true" chamfer_steps="1" effect="fillet_chamfer" flexible="false" hide_knots="false" is_visible="true" lpeversion="1" method="auto" mode="F" nodesatellites_param="F,0,0,1,0,0,0,1 @ F,0,0,1,0,0,0,1 @ F,0,0,1,0,0,0,1 @ F,0,0,1,0,0,0,1 @ F,0,0,1,0,0,0,1 @ F,0,0,1,0,0.24222554,0,1 @ F,0,0,1,0,0.22614087,0,1 @ F,0,0,1,0,0,0,1 @ F,0,0,1,0,0,0,1 @ F,0,0,1,0,0,0,1 @ F,0,0,1,0,0,0,1 @ F,0,0,1,0,0,0,1 @ F,0,0,1,0,0,0,1 @ F,0,0,1,0,0,0,1 @ F,0,0,1,0,0,0,1" only_selected="false" radius="0" unit="px" use_knot_distance="true"/>
      <inkscape:path-effect id="path-effect345" apply_no_radius="true" apply_with_radius="true" chamfer_steps="1" effect="fillet_chamfer" flexible="false" hide_knots="false" is_visible="true" lpeversion="1" method="auto" mode="F" nodesatellites_param="F,0,0,1,0,0,0,1 @ F,0,0,1,0,0,0,1 @ F,0,0,1,0,0,0,1 @ F,0,0,1,0,0,0,1 @ F,0,0,1,0,0,0,1 @ F,0,0,1,0,0,0,1 @ F,0,0,1,0,0,0,1 @ F,0,0,1,0,0,0,1 @ F,0,0,1,0,0,0,1 @ F,0,0,1,0,0,0,1 @ F,0,0,1,0,0,0,1 @ F,0,0,1,0,0,0,1 @ F,0,0,1,0,0,0,1 @ F,0,0,1,0,0,0,1 @ F,0,0,1,0,0.25376047,0,1" only_selected="false" radius="0" unit="px" use_knot_distance="true"/>
      <inkscape:path-effect id="path-effect344" apply_no_radius="true" apply_with_radius="true" chamfer_steps="1" effect="fillet_chamfer" flexible="false" hide_knots="false" is_visible="true" lpeversion="1" method="auto" mode="F" nodesatellites_param="F,0,0,1,0,0,0,1 @ F,0,0,1,0,0,0,1 @ F,0,0,1,0,0,0,1 @ F,0,0,1,0,0,0,1 @ F,0,0,1,0,0,0,1 @ F,0,0,1,0,0,0,1 @ F,0,0,1,0,0,0,1 @ F,0,0,1,0,0,0,1 @ F,0,0,1,0,0,0,1 @ F,0,0,1,0,0,0,1 @ F,0,0,1,0,0,0,1 @ F,0,0,1,0,0,0,1 @ F,0,0,1,0,0,0,1 @ F,0,0,1,0,0,0,1 @ F,0,0,1,0,0,0,1" only_selected="false" radius="0" unit="px" use_knot_distance="true"/>
      <inkscape:path-effect id="path-effect343" apply_no_radius="true" apply_with_radius="true" chamfer_steps="1" effect="fillet_chamfer" flexible="false" hide_knots="false" is_visible="true" lpeversion="1" method="auto" mode="F" nodesatellites_param="F,0,0,1,0,0,0,1 @ F,0,0,1,0,0,0,1 @ F,0,0,1,0,0,0,1 @ F,0,0,1,0,0,0,1 @ F,0,0,1,0,0,0,1 @ F,0,0,1,0,0,0,1 @ F,0,0,1,0,0,0,1 @ F,0,0,1,0,0,0,1 @ F,0,0,1,0,0,0,1 @ F,0,0,1,0,0,0,1 @ F,0,0,1,0,0,0,1 @ F,0,0,1,0,0,0,1 @ F,0,0,1,0,0,0,1 @ F,0,0,1,0,0,0,1 @ F,0,0,1,0,0,0,1" only_selected="false" radius="0" unit="px" use_knot_distance="true"/>
      <inkscape:path-effect id="path-effect342" apply_no_radius="true" apply_with_radius="true" chamfer_steps="1" effect="fillet_chamfer" flexible="false" hide_knots="false" is_visible="true" lpeversion="1" method="auto" mode="F" nodesatellites_param="F,0,0,1,0,0,0,1 @ F,0,0,1,0,0,0,1 @ F,0,0,1,0,0,0,1 @ F,0,0,1,0,0,0,1 @ F,0,0,1,0,0,0,1 @ F,0,0,1,0,0,0,1 @ F,0,0,1,0,0,0,1 @ F,0,0,1,0,0,0,1 @ F,0,0,1,0,0,0,1 @ F,0,0,1,0,0,0,1 @ F,0,0,1,0,0,0,1 @ F,0,0,1,0,0,0,1 @ F,0,0,1,0,0,0,1 @ F,0,0,1,0,0,0,1 @ F,0,0,1,0,0,0,1" only_selected="false" radius="0" unit="px" use_knot_distance="true"/>
      <inkscape:path-effect id="path-effect341" apply_no_radius="true" apply_with_radius="true" chamfer_steps="1" effect="fillet_chamfer" flexible="false" hide_knots="false" is_visible="true" lpeversion="1" method="auto" mode="F" nodesatellites_param="F,0,0,1,0,0,0,1 @ F,0,0,1,0,0,0,1 @ F,0,0,1,0,0,0,1 @ F,0,0,1,0,0,0,1 @ F,0,0,1,0,0,0,1 @ F,0,0,1,0,0,0,1 @ F,0,0,1,0,0,0,1 @ F,0,0,1,0,0,0,1 @ F,0,0,1,0,0,0,1 @ F,0,0,1,0,0,0,1 @ F,0,0,1,0,0,0,1 @ F,0,0,1,0,0,0,1 @ F,0,0,1,0,0,0,1 @ F,0,0,1,0,0,0,1 @ F,0,0,1,0,0,0,1 @ F,0,0,1,0,0,0,1 @ F,0,0,1,0,0,0,1" only_selected="false" radius="0" unit="px" use_knot_distance="true"/>
      <inkscape:path-effect id="path-effect340" apply_no_radius="true" apply_with_radius="true" chamfer_steps="1" effect="fillet_chamfer" flexible="false" hide_knots="false" is_visible="true" lpeversion="1" method="auto" mode="F" nodesatellites_param="F,0,0,1,0,0,0,1 @ F,0,0,1,0,0,0,1 @ F,0,0,1,0,0,0,1 @ F,0,0,1,0,0,0,1 @ F,0,0,1,0,0,0,1 @ F,0,0,1,0,0,0,1 @ F,0,0,1,0,0,0,1 @ F,0,0,1,0,0,0,1 @ F,0,0,1,0,0,0,1 @ F,0,0,1,0,0,0,1 @ F,0,0,1,0,0,0,1 @ F,0,0,1,0,0,0,1 @ F,0,0,1,0,0,0,1 @ F,0,0,1,0,0,0,1 @ F,0,0,1,0,0,0,1 @ F,0,0,1,0,0,0,1 @ F,0,0,1,0,0,0,1" only_selected="false" radius="0" unit="px" use_knot_distance="true"/>
      <inkscape:path-effect id="path-effect339" apply_no_radius="true" apply_with_radius="true" chamfer_steps="1" effect="fillet_chamfer" flexible="false" hide_knots="false" is_visible="true" lpeversion="1" method="auto" mode="F" nodesatellites_param="F,0,0,1,0,0,0,1 @ F,0,0,1,0,0,0,1 @ F,0,0,1,0,0,0,1 @ F,0,0,1,0,0,0,1 @ F,0,0,1,0,0,0,1 @ F,0,0,1,0,0,0,1 @ F,0,0,1,0,0,0,1 @ F,0,0,1,0,0,0,1 @ F,0,0,1,0,0,0,1 @ F,0,0,1,0,0,0,1 @ F,0,0,1,0,0,0,1 @ F,0,0,1,0,0,0,1 @ F,0,0,1,0,0,0,1 @ F,0,0,1,0,0,0,1 @ F,0,0,1,0,0,0,1 @ F,0,0,1,0,0,0,1 @ F,0,0,1,0,0,0,1" only_selected="false" radius="0" unit="px" use_knot_distance="true"/>
      <inkscape:path-effect id="path-effect338" apply_no_radius="true" apply_with_radius="true" chamfer_steps="1" effect="fillet_chamfer" flexible="false" hide_knots="false" is_visible="true" lpeversion="1" method="auto" mode="F" nodesatellites_param="F,0,0,1,0,0,0,1 @ F,0,0,1,0,0,0,1 @ F,0,0,1,0,0,0,1 @ F,0,0,1,0,0,0,1 @ F,0,0,1,0,0,0,1 @ F,0,0,1,0,0,0,1 @ F,0,0,1,0,0,0,1 @ F,0,0,1,0,0,0,1 @ F,0,0,1,0,0,0,1 @ F,0,0,1,0,0,0,1 @ F,0,0,1,0,0,0,1 @ F,0,0,1,0,0,0,1 @ F,0,0,1,0,0,0,1 @ F,0,0,1,0,0,0,1 @ F,0,0,1,0,0,0,1 @ F,0,0,1,0,0,0,1 @ F,0,0,1,0,0,0,1 @ F,0,0,1,0,0,0,1" only_selected="false" radius="0" unit="px" use_knot_distance="true"/>
      <inkscape:path-effect id="path-effect337" apply_no_radius="true" apply_with_radius="true" chamfer_steps="1" effect="fillet_chamfer" flexible="false" hide_knots="false" is_visible="true" lpeversion="1" method="auto" mode="F" nodesatellites_param="F,0,0,1,0,0,0,1 @ F,0,0,1,0,0,0,1 @ F,0,0,1,0,0,0,1 @ F,0,0,1,0,0,0,1 @ F,0,0,1,0,0,0,1 @ F,0,0,1,0,0,0,1 @ F,0,0,1,0,0,0,1 @ F,0,0,1,0,0,0,1 @ F,0,0,1,0,0,0,1 @ F,0,0,1,0,0,0,1 @ F,0,0,1,0,0,0,1 @ F,0,0,1,0,0,0,1 @ F,0,0,1,0,0,0,1 @ F,0,0,1,0,0,0,1 @ F,0,0,1,0,0,0,1 @ F,0,0,1,0,0,0,1 @ F,0,0,1,0,0,0,1 @ F,0,0,1,0,0,0,1" only_selected="false" radius="0" unit="px" use_knot_distance="true"/>
      <inkscape:path-effect id="path-effect336" apply_no_radius="true" apply_with_radius="true" chamfer_steps="1" effect="fillet_chamfer" flexible="false" hide_knots="false" is_visible="true" lpeversion="1" method="auto" mode="F" nodesatellites_param="F,0,0,1,0,0,0,1 @ F,0,0,1,0,0,0,1 @ F,0,0,1,0,0,0,1 @ F,0,0,1,0,0,0,1 @ F,0,0,1,0,0,0,1 @ F,0,0,1,0,0,0,1 @ F,0,0,1,0,0,0,1 @ F,0,0,1,0,0,0,1 @ F,0,0,1,0,0,0,1 @ F,0,0,1,0,0,0,1 @ F,0,0,1,0,0,0,1 @ F,0,0,1,0,0,0,1 @ F,0,0,1,0,0,0,1 @ F,0,0,1,0,0,0,1 @ F,0,0,1,0,0,0,1 @ F,0,0,1,0,0,0,1 @ F,0,0,1,0,0,0,1 @ F,0,0,1,0,0,0,1" only_selected="false" radius="0" unit="px" use_knot_distance="true"/>
      <inkscape:path-effect id="path-effect335" apply_no_radius="true" apply_with_radius="true" chamfer_steps="1" effect="fillet_chamfer" flexible="false" hide_knots="false" is_visible="true" lpeversion="1" method="auto" mode="F" nodesatellites_param="F,0,0,1,0,0,0,1 @ F,0,0,1,0,0,0,1 @ F,0,0,1,0,0,0,1 @ F,0,0,1,0,0,0,1 @ F,0,0,1,0,0,0,1 @ F,0,0,1,0,0,0,1 @ F,0,0,1,0,0,0,1 @ F,0,0,1,0,0,0,1 @ F,0,0,1,0,0,0,1 @ F,0,0,1,0,0,0,1 @ F,0,0,1,0,0,0,1 @ F,0,0,1,0,0,0,1 @ F,0,0,1,0,0,0,1 @ F,0,0,1,0,0,0,1 @ F,0,0,1,0,0,0,1 @ F,0,0,1,0,0,0,1 @ F,0,0,1,0,0,0,1 @ F,0,0,1,0,0,0,1" only_selected="false" radius="0" unit="px" use_knot_distance="true"/>
      <inkscape:path-effect id="path-effect334" apply_no_radius="true" apply_with_radius="true" chamfer_steps="1" effect="fillet_chamfer" flexible="false" hide_knots="false" is_visible="true" lpeversion="1" method="auto" mode="F" nodesatellites_param="F,0,0,1,0,0,0,1 @ F,0,0,1,0,0,0,1 @ F,0,0,1,0,0,0,1 @ F,0,0,1,0,0,0,1 @ F,0,0,1,0,0,0,1 @ F,0,0,1,0,0,0,1 @ F,0,0,1,0,0,0,1 @ F,0,0,1,0,0,0,1 @ F,0,0,1,0,0,0,1 @ F,0,0,1,0,0,0,1 @ F,0,0,1,0,0,0,1 @ F,0,0,1,0,0,0,1 @ F,0,0,1,0,0,0,1 @ F,0,0,1,0,0,0,1 @ F,0,0,1,0,0,0,1 @ F,0,0,1,0,0,0,1 @ F,0,0,1,0,0,0,1 @ F,0,0,1,0,0,0,1" only_selected="false" radius="0" unit="px" use_knot_distance="true"/>
      <inkscape:path-effect id="path-effect267" effect="spiro" is_visible="true" lpeversion="1"/>
      <inkscape:path-effect id="path-effect266" apply_no_radius="true" apply_with_radius="true" chamfer_steps="1" effect="fillet_chamfer" flexible="false" hide_knots="false" is_visible="true" lpeversion="1" method="auto" mode="F" nodesatellites_param="F,0,0,1,0,0,0,1 @ F,0,0,1,0,0,0,1 @ F,0,0,1,0,0,0,1 @ F,0,0,1,0,0,0,1 @ F,0,0,1,0,0,0,1 @ F,0,0,1,0,0,0,1 @ F,0,0,1,0,0,0,1 @ F,0,0,1,0,0,0,1 @ F,0,0,1,0,0,0,1 @ F,0,0,1,0,0,0,1 @ F,0,0,1,0,0,0,1 @ F,0,0,1,0,0,0,1" only_selected="false" radius="0" unit="px" use_knot_distance="true"/>
      <inkscape:path-effect id="path-effect84" apply_no_radius="true" apply_with_radius="true" chamfer_steps="1" effect="fillet_chamfer" flexible="false" hide_knots="false" is_visible="true" lpeversion="1" method="auto" mode="F" nodesatellites_param="F,0,0,1,0,0,0,1 @ F,0,0,1,0,0,0,1 @ F,0,0,1,0,0,0,1 @ F,0,0,1,0,0,0,1 @ F,0,0,1,0,0,0,1 @ F,0,0,1,0,0,0,1 @ F,0,0,1,0,0,0,1 @ F,0,0,1,0,0,0,1 @ F,0,0,1,0,0,0,1 @ F,0,0,1,0,0,0,1 @ F,0,0,1,0,0,0,1 @ F,0,0,1,0,0,0,1 @ F,0,0,1,0,0,0,1 @ F,0,0,1,0,0,0,1 @ F,0,0,1,0,0,0,1 @ F,0,0,1,0,0,0,1 @ F,0,0,1,0,0,0,1 @ F,0,0,1,0,0,0,1 @ F,0,0,1,0,0,0,1 @ F,0,0,1,0,0,0,1 @ F,0,0,1,0,0,0,1 @ F,0,0,1,0,0,0,1 @ F,0,0,1,0,0,0,1 @ F,0,0,1,0,0,0,1 @ F,0,0,1,0,0,0,1 @ F,0,0,1,0,0,0,1 @ F,0,0,1,0,0,0,1 @ F,0,0,1,0,0,0,1 @ F,0,0,1,0,0,0,1 @ F,0,0,1,0,0,0,1 @ F,0,0,1,0,0,0,1 @ F,0,0,1,0,0,0,1 @ F,0,0,1,0,0,0,1 @ F,0,0,1,0,0,0,1 @ F,0,0,1,0,0,0,1 @ F,0,0,1,0,0,0,1 | F,0,0,1,0,0,0,1 @ F,0,0,1,0,0,0,1 @ F,0,0,1,0,0,0,1 @ F,0,0,1,0,0,0,1 | F,0,0,1,0,0,0,1 @ F,0,0,1,0,0,0,1 @ F,0,0,1,0,0,0,1 @ F,0,0,1,0,0,0,1 @ F,0,0,1,0,0,0,1" only_selected="false" radius="0" unit="px" use_knot_distance="true"/>
      <inkscape:path-effect id="path-effect393-5" effect="spiro" is_visible="true" lpeversion="1"/>
      <inkscape:path-effect id="path-effect433-3" effect="spiro" is_visible="true" lpeversion="1"/>
      <inkscape:path-effect id="path-effect433-5" effect="spiro" is_visible="true" lpeversion="1"/>
      <inkscape:path-effect id="path-effect456-6" effect="spiro" is_visible="true" lpeversion="1"/>
      <inkscape:path-effect id="path-effect456-6-3" effect="spiro" is_visible="true" lpeversion="1"/>
      <inkscape:path-effect id="path-effect457-7" effect="spiro" is_visible="true" lpeversion="1"/>
      <inkscape:path-effect id="path-effect678-5" effect="spiro" is_visible="true" lpeversion="1"/>
      <inkscape:path-effect id="path-effect678-5-3" effect="spiro" is_visible="true" lpeversion="1"/>
      <inkscape:path-effect id="path-effect710-0" apply_no_radius="true" apply_with_radius="true" chamfer_steps="1" effect="fillet_chamfer" flexible="false" hide_knots="false" is_visible="true" lpeversion="1" method="auto" mode="F" nodesatellites_param="F,0,0,1,0,0.026458344,0,1 @ F,0,0,1,0,0.026458344,0,1 @ F,0,0,1,0,0.026458344,0,1 @ F,0,0,1,0,0.026458344,0,1 @ F,0,0,1,0,0.026458344,0,1 @ F,0,0,1,0,0.026458344,0,1" only_selected="false" radius="0.5" unit="px" use_knot_distance="true"/>
    </g>
    <path id="path12" class="st0" d="M421.1,3v146h37.7v-47.6h23.4c10.7,0,19.5-1.5,26.7-4.4,7.2-2.9,13.7-7.3,19.5-13,4.2-4.2,7.5-9.5,9.8-15.7,2.3-6.3,3.4-12.7,3.4-19.2s-1.6-15.7-4.7-21.7c-3.1-6-7.6-10.9-13.4-14.8-4.9-3.2-10.6-5.6-17-7.2-6.3-1.6-14.2-2.5-23.4-2.5h-62ZM458.7,30.3h6.5c6.2,0,11.2,0,14.9.3,3.7.1,7.6,1,11.5,2.6,2.9,1.2,5.5,3.3,7.7,6.3,2.2,2.9,3.3,6.5,3.3,10.6s-.6,7.7-1.7,10.7c-1,2.9-2.8,5.4-5.2,7.5-2.8,2.4-6.3,3.9-10.5,4.7-4.1.8-9.4,1.2-15.8,1.2h-10.8V30.3Z"/>
    <path id="path15" class="st1" d="M0,149.2v-25.9h23.9V29H0V3.1h85.5v25.9h-23.9v94.2h23.9v25.9H0Z" inkscape:label="i"/>
    <path id="path53" class="st3" d="M37.1,3.1v30.5s-3.1.1-2.9,1.8c.2,1.6,0,3.5,0,3.5l.6.4v2.9s-4.9.3-5.9,1.8v4l.7.3s-1.8,1.7-2.4,2.5c-.7.8-3.1,1.2-3.1,2.3s0,1.2.6,1.2v1.3s-.3,1.5.3,1.7v.6c.1,0-1,1.1.2,1.9,1.2.8.5.4.5.4,0,0-.2.5,1.6,1.5,0,0-2.6,1.8-2.2,3.9.4,2.1,1.4,3.7,8.2,5.2,0,0,.4,39.7-1.8,64.9,0,0-.7,9.8-1,13.6h12V3.1h-5.4ZM42.5,3.1v146h12c-.3-3.8-1-13.6-1-13.6-2.2-25.2-1.8-64.9-1.8-64.9,6.8-1.5,7.9-3.1,8.2-5.2.4-2.1-2.2-3.9-2.2-3.9,1.8-1,1.6-1.5,1.6-1.5,0,0-.7.4.5-.4,1.2-.8,0-1.9,0-1.9v-.6c.7-.2.4-1.7.4-1.7v-1.3c.6,0,.6-.1.6-1.2s-2.5-1.5-3.1-2.3c-.7-.8-2.4-2.5-2.4-2.5l.7-.3v-4c-1-1.5-5.9-1.8-5.9-1.8v-2.9l.6-.4s-.2-1.9,0-3.5c.2-1.6-2.9-1.8-2.9-1.8V3.1h-5.4Z" inkscape:label="I v6"/>
    <g id="g24">
      <path id="path56" class="st0" d="M37.8,3v34s-2.9.1-2.7,1.5c0,.4,0,.7,0,1.1,0,1.1,0,2,0,2h0s.5.3.5.3v2.5s-4.5.3-5.4,1.5h0v3.5h0s.7.3.7.3c0,0-1.6,1.5-2.2,2.2-.6.7-2.9,1.1-2.9,2s0,0,0,0h0c0,.5,0,.8.1.9.2,1.3.6,3.6.9,4.9.3,1-.2.6,1.9,1.7,0,0,0,0,0,0,0,0-2.3,1.5-2,3.4,0,0,0,0,0,0,0,.2,0,.4.2.7.5,1.5,1.9,2.7,7.4,3.9,0,0,.4,34.7-1.6,56.7,0,0-1.1,14.3-1.8,22.9h23.8c-.7-8.6-1.8-22.9-1.8-22.9-2-22.1-1.6-56.7-1.6-56.7,5.5-1.2,6.9-2.4,7.4-3.9,0,0,0-.1,0-.2,0-.1,0-.3.1-.4,0,0,0,0,0,0,.3-1.8-2-3.4-2-3.4,0,0,0,0,0,0,2.1-1,1.6-.6,1.9-1.7.3-1.3.7-3.6.9-4.9.1-.1.1-.4.1-.9h0s0,0,0,0c0-.9-2.3-1.3-2.9-2-.6-.7-2.2-2.2-2.2-2.2l.7-.3h0v-3.5h0c-.9-1.3-5.4-1.6-5.4-1.6v-2.5l.5-.3h0s0,0,0,0c0,0-.1-.9,0-2,0-.4,0-.7,0-1.1.2-1.4-2.7-1.5-2.7-1.5V3h-10Z" inkscape:label="I v6"/>
      <path id="path70-3" class="st0" d="M66.9,114.3v6.6l-2.5,6.6-5-1.8-6.1,1.6-17,1.6-.8-.5v-4.1l-6.8-1.5-8.6,2.3v5c.1,0,.1,0,.2,0-2.9-4.2-9.8-6.9-17.6-6.9-.8,0-1.8,0-2.5,0,0,0,0,0,0,0v21.7s0,0,0,0c0,0,0,0,0,0v4.2h85.5v-25.9l-5.6,1v8.9l-6.4-1.5v-6.2l-1.2-.7v-5s-1.3-1-1.3-1v-3.5l-1.7-.9h-2.4Z" inkscape:label="skyline" sodipodi:nodetypes="ccccccccccccccccccccccccccccccc"/>
      <path id="path81-7" class="st0" d="M85.5,3c-5.6.8-10.3,3.8-12.7,8-1.3-.3-2.7-.5-4.2-.5-6.2,0-11.6,3-14.4,7.4,1,0,2,.2,2.9.3-2.1-.3-4.3-.5-6.5-.5-12.1,0-22.5,4.7-24.8,11.2h49.6c0-.3-.2-.6-.3-.9.2.3.3.6.4.9h10V3ZM57.3,18.3c1,.2,2,.3,3,.5-1-.2-2-.4-3-.5ZM60.4,18.9c1,.2,1.9.5,2.8.8-.9-.3-1.8-.5-2.8-.8ZM63.4,19.6c.9.3,1.8.6,2.6.9-.8-.3-1.7-.7-2.6-.9ZM66.2,20.7c.8.3,1.6.7,2.3,1.1-.7-.4-1.5-.8-2.3-1.1ZM68.7,21.9c.7.4,1.4.8,2,1.3-.6-.4-1.3-.9-2-1.3ZM70.8,23.2c.6.5,1.2.9,1.7,1.4-.5-.5-1.1-1-1.7-1.4ZM72.6,24.7c.5.5,1,1,1.4,1.6.4.6.8,1.1,1.1,1.7-.3-.6-.6-1.2-1.1-1.7-.4-.5-.9-1.1-1.4-1.6Z" inkscape:label="cloud R"/>
      <path id="path71-7-1-8-9" class="st0" d="M.5,3c-.2,0-.4,0-.5,0v25.9h19.5c.7-7,7.6-11.6,13.5-14.2-3.4-3.2-8.5-5.1-13.8-5.1-1.1,0-2.1,0-3.2.3C12.7,5.6,6.9,3,.5,3h0Z" inkscape:label="cloud L" sodipodi:nodetypes="ccccccccc"/>
    </g>
    <path id="path16" class="st0" d="M340.1,151.9c-10.9,0-20.9-1.6-30.1-4.8-9.2-3.2-17-8-23.6-14.3-6.6-6.3-11.7-14.3-15.4-23.7-3.6-9.5-5.4-20.4-5.4-32.9s1.7-22.1,5.2-31.5,8.5-17.5,15.1-24.2c6.3-6.5,14.2-11.5,23.5-15,9.4-3.5,19.7-5.3,30.8-5.3s11.7.4,16.6,1.1c5,.7,9.5,1.5,13.7,2.6,4.4,1.2,8.3,2.6,11.9,4.2,3.6,1.5,6.7,2.9,9.4,4.2v35.4h-4.3c-1.8-1.6-4.2-3.4-7-5.6-2.7-2.2-5.9-4.3-9.4-6.4-3.6-2.1-7.5-3.9-11.7-5.3-4.2-1.4-8.7-2.2-13.4-2.2s-10.3.8-15.1,2.5c-4.8,1.6-9.2,4.4-13.2,8.2-3.9,3.7-7,8.7-9.4,14.8-2.4,6.1-3.5,13.6-3.5,22.4s1.3,16.8,3.8,22.9c2.6,6.1,5.9,11,9.8,14.5,4,3.6,8.4,6.2,13.3,7.7,4.9,1.5,9.7,2.3,14.5,2.3s9.1-.7,13.5-2.1c4.5-1.4,8.7-3.2,12.5-5.6,3.2-1.9,6.2-3.9,8.9-6.1,2.7-2.2,5-4,6.8-5.6h3.9v34.9c-3.7,1.6-7.2,3.2-10.5,4.6-3.3,1.4-6.8,2.7-10.5,3.7-4.8,1.4-9.3,2.4-13.4,3.1s-9.9,1.1-17.3,1.1Z"/>
    <path id="path17" class="st0" d="M189.3.1c-10.8,0-20.8,1.7-30.1,5v42.5S229.1,7.2,229.1,7.2c-2.9-1.2-6-2.3-9.4-3.2-4.2-1.1-8.9-2.1-13.9-2.7-4.9-.7-10.4-1.1-16.6-1.1ZM152.8,7.9c-6.9,3.3-12.7,7.5-17.7,12.6-6.6,6.7-11.7,14.7-15.2,24.1-3.3,8.8-5,18.6-5.2,29.4l38,21.9V7.9ZM236.3,10.5l-31.9,18.5,31.9,18.4V10.5ZM114.9,81.5c.4,10.2,2.1,19.3,5.2,27.3,3.7,9.5,8.8,17.4,15.4,23.7,5.9,5.7,12.9,10.2,20.9,13.4l35.1-20.3-76.6-44.1ZM236.3,107.2l-71.7,41.5c7.7,2.1,15.9,3.2,24.7,3.2s13.1-.4,17.3-1.1c4.2-.7,8.7-1.8,13.4-3.1,3.7-1,7.2-2.3,10.5-3.7,2.2-1,4-1.8,5.8-2.6v-34.1Z" inkscape:label="c2"/>
    <path id="path18" class="st3" d="M202.1,0C191.3,0,181.3,1.7,172.1,5v42.6S242.1,7.1,242.1,7.1c-2.9-1.2-6-2.3-9.5-3.3-4.2-1.1-8.9-2.1-13.9-2.7C213.8.4,208.3,0,202.1,0h0ZM165.7,7.7c-6.9,3.3-12.7,7.5-17.7,12.6-6.6,6.7-11.7,14.7-15.2,24.1-3.3,8.9-5,18.7-5.2,29.5l38,21.9V7.7ZM249.2,10.5l-31.9,18.5,31.9,18.4V10.5ZM127.8,81.5c.5,10.1,2.1,19.2,5.2,27.2,3.7,9.5,8.8,17.4,15.4,23.7,5.9,5.7,13,10.2,21,13.4l35-20.3-76.6-44.1ZM249.2,107.2l-71.6,41.4c7.7,2.1,15.8,3.1,24.5,3.1s13.1-.4,17.3-1.1c4.2-.7,8.7-1.8,13.4-3.1,3.7-1,7.2-2.3,10.5-3.7,2.2-1,4-1.8,5.8-2.6v-33.9Z" inkscape:label="c - too thin"/>
    <rect id="rect29" class="st2" x="73.5" y="125.3" width="6.4" height="6.4"/>
    <rect id="rect29-0" class="st2" x="39.6" y="4.5" width="6.4" height="6.4"/>
    <circle id="path29" class="st2" cx="22.7" cy="29" r="3.2"/>
    <circle id="path29-4" class="st2" cx="27.4" cy="21.8" r="3.2"/>
    <circle id="path29-4-1" class="st2" cx="34.2" cy="17.8" r="3.2"/>
    <path id="path23" class="st0" d="M1023,1.5v82.4h4.3c4.1-1,8.8-2,14.1-2.9,5.4-1,11.1-1.6,17-1.6s8.6.4,13.5,1.1c5,.7,9.2,2.1,12.7,4.2,2.4,1.5,4.4,3.5,5.9,6,1.6,2.4,2.4,5.3,2.4,8.7s-.6,7.6-1.8,9.7c-1.1,2.1-2.8,4.2-5,6.2-2.8,2.5-6.6,4.2-11.5,5.2-4.8.9-9.2,1.4-13.3,1.4-6.8,0-13.6-1.2-20.5-3.5-6.9-2.4-13.3-5.3-19.2-8.8h-4.1v32.3c5.1,2.2,11.7,4.2,19.7,6,8.1,1.8,18,2.8,29.7,2.8,10,0,18.9-1.2,26.7-3.5,7.8-2.4,14.8-6.1,20.8-11.1,5.4-4.6,9.5-10.2,12.4-16.7,2.9-6.5,4.3-13.6,4.3-21.2s-1.7-16.4-5-22.3c-3.3-5.9-8-10.7-13.9-14.3-4.6-2.7-10-4.9-16.4-6.4-6.3-1.6-13.4-2.4-21.5-2.4s-5.1,0-8.2.2c-3.1,0-5.6.2-7.6.3v-23.8h68.4V1.5h-103.8Z"/>
    <path id="path22" class="st0" d="M930.8,1.6c-9.1,0-18.2,1-27.3,3-9,2-15.9,4.1-20.5,6.1v32.5h3.1c5.7-3.9,11.8-7,18.4-9.5,6.7-2.5,13-3.7,19-3.7s14.2,1.8,18.4,5.5c4.3,3.6,6.5,8.7,6.5,15.4s-1.7,11.2-5,16.9c-3.3,5.7-9,12.4-16.9,20-5.3,5.2-12.4,11.3-21.2,18.4-8.8,7.1-17.5,13.9-26.3,20.2v24.1h114.6v-27.9h-65.6c2.5-1.8,6.8-5,12.8-9.6,6-4.6,12-9.7,17.9-15.2,9.5-8.8,16.5-17.4,21.1-25.7,4.6-8.3,7-17.1,7-26.3,0-14.1-4.8-24.9-14.4-32.6-9.6-7.7-23.6-11.6-41.9-11.6h0Z"/>
    <path id="path21" class="st0" d="M648,1.6c-9.1,0-18.2,1-27.3,3-9,2-15.9,4.1-20.5,6.1v32.5h3.1c5.7-3.9,11.8-7,18.4-9.5,6.7-2.5,13-3.7,19-3.7s14.2,1.8,18.4,5.5c4.3,3.6,6.5,8.7,6.5,15.4s-1.7,11.2-5,16.9c-3.3,5.7-9,12.4-16.9,20-5.3,5.2-12.4,11.3-21.2,18.4-8.8,7.1-17.5,13.9-26.3,20.2v24.1h114.6v-27.9h-65.6c2.5-1.8,6.8-5,12.8-9.6,6-4.6,12-9.7,17.9-15.2,9.5-8.8,16.5-17.4,21.1-25.7,4.6-8.3,7-17.1,7-26.3,0-14.1-4.8-24.9-14.4-32.6-9.6-7.7-23.6-11.6-41.9-11.6h0Z"/>
    <path id="path20" class="st0" d="M795.1,0c-10.7,0-19.9,1.6-27.7,4.8-7.7,3.2-14,8-18.8,14.4-4.8,6.5-8.4,14.4-10.6,23.7-2.2,9.3-3.3,20.4-3.3,33s1.1,23.2,3.2,32.8c2.2,9.5,5.7,17.4,10.5,23.8,4.8,6.4,11,11.2,18.7,14.5,7.7,3.3,17,4.9,27.9,4.9s20.5-1.6,28-4.8c7.6-3.3,13.8-8.1,18.6-14.4,4.7-6.2,8.2-14.2,10.4-23.8,2.2-9.7,3.3-20.8,3.3-33s-1.1-23.1-3.2-32.5c-2.2-9.4-5.6-17.3-10.4-23.7-4.8-6.5-11-11.4-18.6-14.7C815.7,1.7,806.3,0,795.1,0ZM795.1,27c8,0,13.8,3.8,17.3,11.3,3.5,7.5,5.2,20,5.2,37.7s-1.8,30-5.3,37.7c-3.5,7.6-9.3,11.5-17.2,11.5s-13.6-3.8-17.2-11.5c-3.5-7.6-5.3-20.1-5.3-37.5s1.7-30.4,5.2-37.9c3.5-7.5,9.2-11.3,17.3-11.3Z"/>
    <circle id="path24" class="st4" cx="406.4" cy="290.9" r="14.7"/>
    <circle id="path24-5" class="st4" cx="556.3" cy="290.9" r="14.7"/>
    <circle id="path24-5-5" class="st4" cx="585.6" cy="290.9" r="14.7"/>
    <circle id="path24-5-0" class="st4" cx="249.7" cy="290.9" r="14.7"/>
    <circle id="path24-5-05" class="st4" cx="100.2" cy="290.9" r="14.7"/>
  </g>
</svg>