<?xml version="1.0" encoding="UTF-8" standalone="no"?>
<svg
   width="792pt"
   height="842pt"
   viewBox="0 0 792 842"
   version="1.1"
   id="svg2"
   sodipodi:docname="Apple_Logo_Black.svg"
   inkscape:version="1.4 (e7c3feb1, 2024-10-09)"
   xmlns:inkscape="http://www.inkscape.org/namespaces/inkscape"
   xmlns:sodipodi="http://sodipodi.sourceforge.net/DTD/sodipodi-0.dtd"
   xmlns="http://www.w3.org/2000/svg"
   xmlns:svg="http://www.w3.org/2000/svg">
  <defs
     id="defs2" />
  <sodipodi:namedview
     id="namedview2"
     pagecolor="#ffffff"
     bordercolor="#000000"
     borderopacity="0.25"
     inkscape:showpageshadow="2"
     inkscape:pageopacity="0.0"
     inkscape:pagecheckerboard="0"
     inkscape:deskcolor="#d1d1d1"
     inkscape:document-units="pt"
     inkscape:zoom="0.73974609"
     inkscape:cx="528.55974"
     inkscape:cy="682.66667"
     inkscape:window-width="1520"
     inkscape:window-height="1229"
     inkscape:window-x="0"
     inkscape:window-y="25"
     inkscape:window-maximized="0"
     inkscape:current-layer="svg2" />
  <g
     id="#ffffffff" />
  <g
     id="#221e20ff"
     transform="translate(-13.180198,-98.344554)">
    <path
       fill="#221e20"
       opacity="1"
       d="m 449.33,332.33 c 9.81,-5.33 20.65,-9.03 31.86,-9.68 2.12,19.97 -4.67,40.14 -16.35,56.22 -13.57,18.83 -36.06,32.72 -59.81,31.42 -2.19,-17.82 4.01,-35.68 13.79,-50.38 7.58,-11.63 18.34,-21 30.51,-27.58 z"
       id="path1" />
    <path
       fill="#221e20"
       opacity="1"
       d="m 429.85,425.61 c 14.73,-5.87 30.07,-11.5 46.17,-11.3 18.07,0.38 36.34,5.13 51.48,15.22 9.01,5.94 16.68,13.78 22.81,22.65 -16.48,10.44 -29.87,26.11 -36.47,44.57 -6.16,17.29 -5.95,36.59 -0.47,54.02 7.22,22.71 25.25,41.16 46.89,50.66 -6.63,20.62 -16.5,40.17 -29,57.86 -8.96,12.73 -18.14,25.89 -31.17,34.8 -8.73,6.05 -19.58,8.95 -30.17,7.8 -11.18,-0.71 -21.16,-6.17 -31.4,-10.15 -12.99,-5.14 -27.48,-5.99 -41.11,-3.14 -15,3.02 -28.03,12.64 -43.52,13.75 -12.06,1.55 -23.8,-3.88 -32.78,-11.57 -12.71,-10.77 -22.19,-24.66 -31.63,-38.23 -12.24,-18.42 -21.48,-38.74 -28.17,-59.8 -7.61,-24.43 -11.82,-50.17 -10.07,-75.79 1.5,-22.41 8.1,-44.94 21.55,-63.16 17.58,-24.28 47.35,-39.88 77.53,-38.21 18.16,1.21 34.09,10.9 51.36,15.54 9.79,2.74 19.18,-2.33 28.17,-5.52 z"
       id="path2" />
  </g>
</svg>
