<?xml version="1.0" encoding="UTF-8" standalone="no"?>
<!DOCTYPE svg PUBLIC "-//W3C//DTD SVG 1.1//EN" "http://www.w3.org/Graphics/SVG/1.1/DTD/svg11.dtd">
<svg width="100%" height="100%" viewBox="0 0 815 194" version="1.1" xmlns="http://www.w3.org/2000/svg" xmlns:xlink="http://www.w3.org/1999/xlink" xml:space="preserve" xmlns:serif="http://www.serif.com/" style="fill-rule:evenodd;clip-rule:evenodd;stroke-linejoin:round;stroke-miterlimit:2;">
    <g id="g20018" transform="matrix(1,0,0,1,-3832.53,2485.9)">
        <g id="layer1">
            <g id="g200181" serif:id="g20018">
                <path id="path19971" d="M3929,-2310.13C3885.7,-2310.13 3850.25,-2345.58 3850.25,-2389.52C3850.25,-2432.74 3885.7,-2468.19 3929,-2468.19C3972.86,-2468.19 4008.31,-2432.74 4008.31,-2389.52C4008.31,-2345.58 3972.86,-2310.13 3929,-2310.13ZM3929,-2343.22C3954.78,-2343.22 3975.22,-2363.66 3975.22,-2389.52C3975.22,-2414.75 3954.78,-2435.18 3929,-2435.18C3903.69,-2435.18 3883.26,-2414.75 3883.26,-2389.52C3883.26,-2363.66 3903.69,-2343.22 3929,-2343.22" style="fill:rgb(22,111,192);"/>
                <path id="path19973" d="M4414.65,-2310.13C4371.35,-2310.13 4335.9,-2345.58 4335.9,-2389.52C4335.9,-2432.74 4371.35,-2468.19 4414.65,-2468.19C4458.51,-2468.19 4493.96,-2432.74 4493.96,-2389.52C4493.96,-2345.58 4458.51,-2310.13 4414.65,-2310.13ZM4414.65,-2343.22C4440.43,-2343.22 4460.87,-2363.66 4460.87,-2389.52C4460.87,-2414.75 4440.43,-2435.18 4414.65,-2435.18C4389.35,-2435.18 4368.91,-2414.75 4368.91,-2389.52C4368.91,-2363.66 4389.35,-2343.22 4414.65,-2343.22" style="fill:rgb(22,111,192);"/>
                <path id="path19975" d="M4017.35,-2463.4L4017.35,-2313.75L4050.36,-2313.75L4050.36,-2435.73L4087.06,-2435.73L4087.06,-2313.75L4120.07,-2313.75L4120.07,-2435.73L4132.73,-2435.73C4145.93,-2435.73 4156.15,-2425.51 4156.15,-2412.94L4156.15,-2313.75L4189.24,-2313.75L4189.24,-2411.76C4189.24,-2441.16 4165.82,-2464.66 4136.34,-2464.66L4050.99,-2464.66C4039.59,-2464.66 4028.11,-2464.66 4017.35,-2463.4" style="fill:rgb(22,111,192);"/>
                <path id="path19977" d="M4503,-2463.4L4503,-2313.75L4536.01,-2313.75L4536.01,-2435.73L4573.34,-2435.73C4585.92,-2435.73 4596.76,-2425.51 4596.76,-2412.94L4596.76,-2313.75L4629.78,-2313.75L4629.78,-2411.76C4629.78,-2441.16 4606.35,-2464.66 4576.88,-2464.66L4536.01,-2464.66C4525.24,-2464.66 4513.77,-2464.66 4503,-2463.4" style="fill:rgb(22,111,192);"/>
                <path id="path19979" d="M4203.07,-2463.4L4203.07,-2313.75L4236.08,-2313.75L4236.08,-2435.73L4275.14,-2435.73C4288.43,-2435.73 4298.65,-2425.51 4298.65,-2412.94C4298.65,-2399.73 4288.43,-2389.52 4275.14,-2389.52L4246.93,-2389.52L4298.02,-2313.75L4338.89,-2313.75L4301.63,-2368.45C4319.63,-2375.05 4331.65,-2392.5 4331.65,-2412.94C4331.65,-2441.16 4308.86,-2464.66 4279.94,-2464.66L4236.08,-2464.66C4224.68,-2464.66 4213.84,-2464.66 4203.07,-2463.4" style="fill:rgb(22,111,192);"/>
            </g>
        </g>
    </g>
</svg>
