<?xml version="1.0" encoding="UTF-8" standalone="no"?>
<!DOCTYPE svg PUBLIC "-//W3C//DTD SVG 1.1//EN" "http://www.w3.org/Graphics/SVG/1.1/DTD/svg11.dtd">
<svg width="100%" height="100%" viewBox="0 0 969 274" version="1.1" xmlns="http://www.w3.org/2000/svg" xmlns:xlink="http://www.w3.org/1999/xlink" xml:space="preserve" xmlns:serif="http://www.serif.com/" style="fill-rule:evenodd;clip-rule:evenodd;stroke-linejoin:round;stroke-miterlimit:2;">
    <g id="Artboard1" transform="matrix(1,0,0,1,-115.311,-264.347)">
        <rect x="115.311" y="264.347" width="968.146" height="273.226" style="fill:none;"/>
        <g transform="matrix(10.3852,0,0,10.3852,138.773,290.963)">
            <path d="M0.261,15.622C0.247,14.218 0.126,12.595 0.003,11.354C-0.025,11.084 0.167,10.836 0.436,10.795L0.456,10.792C0.716,10.752 0.968,10.917 1.036,11.172C1.186,11.797 1.437,12.394 1.778,12.939C2.086,13.423 3.164,15.094 5.428,15.094C7.078,15.094 8.288,13.928 8.288,12.454C8.288,11.092 7.188,10.542 5.033,9.728C4.396,9.464 3.736,9.223 3.098,8.937C2.218,8.518 0.15,7.551 0.15,4.867C0.15,1.878 2.548,0.118 5.605,0.118C6.347,0.118 7.403,0.222 8.461,0.708C8.695,0.815 8.971,0.732 9.109,0.516L9.284,0.24C9.375,0.095 9.534,0.005 9.706,0C9.98,-0.006 10.215,0.206 10.236,0.48C10.333,1.732 10.472,2.98 10.654,4.223C10.679,4.285 10.692,4.352 10.692,4.419C10.692,4.704 10.458,4.937 10.174,4.937C9.912,4.937 9.689,4.739 9.66,4.478C9.384,3.749 9.228,3.408 8.925,2.954C8.2,1.965 7.232,1.284 6.023,1.284C4.461,1.284 3.538,2.558 3.538,3.592C3.538,4.779 4.593,5.285 5.055,5.505C6.001,5.967 6.99,6.275 7.98,6.671C9.563,7.287 11.74,8.233 11.74,11.136C11.74,13.994 9.453,16.391 5.825,16.391C4.022,16.391 2.847,15.821 2.165,15.388C2.083,15.337 1.988,15.309 1.891,15.309C1.711,15.309 1.543,15.404 1.451,15.558L1.256,15.88C1.169,16.022 1.019,16.113 0.854,16.126L0.817,16.129C0.803,16.13 0.789,16.131 0.775,16.131C0.495,16.131 0.263,15.902 0.261,15.622M12.223,15.496C12.223,15.277 12.38,15.091 12.594,15.055C12.926,15 13.328,14.857 13.389,14.435C13.455,13.928 13.455,12.609 13.455,12.279C13.455,11.509 13.433,10.256 13.433,9.486C13.433,8.382 13.063,8.079 12.543,7.932C12.353,7.877 12.222,7.701 12.223,7.503L12.223,7.451C12.223,7.232 12.381,7.048 12.596,7.011C13.691,6.819 15.347,6.351 16.216,6.051C16.263,6.035 16.312,6.027 16.362,6.027C16.554,6.027 16.726,6.151 16.786,6.334C16.804,6.392 16.821,6.447 16.836,6.504C16.89,6.695 17.066,6.828 17.265,6.828C17.346,6.828 17.426,6.806 17.496,6.764C18.326,6.282 19.113,5.924 20.272,5.924C21.108,5.924 21.944,6.144 22.626,6.627C23.697,7.371 23.876,8.507 23.966,9.71L23.966,11.641C23.966,11.971 23.923,13.686 23.923,14.061C23.923,14.617 24.074,14.956 24.801,15.091C25.008,15.134 25.156,15.319 25.154,15.53C25.154,15.53 25.154,15.531 25.154,15.531C25.154,15.776 24.952,15.977 24.708,15.977C24.698,15.977 24.688,15.977 24.679,15.976C24.056,15.934 23.115,15.907 21.569,15.907C20.697,15.907 20.216,15.931 19.769,15.97C19.755,15.971 19.742,15.972 19.729,15.972C19.483,15.972 19.282,15.77 19.282,15.525L19.282,15.431C19.282,15.23 19.417,15.052 19.612,15.001C20.255,14.827 20.335,14.52 20.316,13.181L20.272,9.75C20.25,8.695 20.206,7.485 18.776,7.485C18.181,7.485 17.72,7.703 17.276,8.038C17.157,8.125 17.088,8.265 17.092,8.412C17.127,9.514 17.127,12.642 17.127,13.62C17.127,14.629 17.302,14.908 17.839,15.05C18.031,15.1 18.161,15.28 18.161,15.479C18.161,15.479 18.161,15.538 18.161,15.538C18.161,15.783 17.959,15.985 17.714,15.985C17.704,15.985 17.695,15.985 17.686,15.984C16.939,15.937 15.979,15.907 14.18,15.907C13.488,15.907 13.086,15.929 12.711,15.965C12.697,15.966 12.683,15.967 12.669,15.967C12.424,15.967 12.223,15.766 12.223,15.521C12.223,15.52 12.223,15.496 12.223,15.496ZM31.379,11.834C31.377,11.59 31.176,11.39 30.932,11.39C30.893,11.39 30.855,11.394 30.819,11.404C30.077,11.592 29.092,12.025 29.092,13.181C29.092,13.775 29.4,14.434 30.236,14.434C30.662,14.434 30.916,14.305 31.183,14.129C31.306,14.046 31.379,13.907 31.379,13.759L31.379,11.834ZM36.461,14.378C36.566,14.463 36.628,14.591 36.628,14.727C36.628,14.843 36.583,14.955 36.502,15.038C35.445,16.108 34.397,16.326 33.82,16.326C33.226,16.319 32.65,16.127 32.171,15.776C32.018,15.653 31.881,15.512 31.763,15.356C31.623,15.172 31.361,15.127 31.169,15.254C30.564,15.647 29.315,16.347 27.927,16.347C25.903,16.347 25.42,14.984 25.42,14.171C25.42,11.658 29.287,10.607 31.038,10.293C31.247,10.255 31.401,10.07 31.402,9.857C31.404,9.177 31.405,8.377 31.313,8.101C31.049,7.331 30.17,7.331 30.06,7.331C29.334,7.331 28.938,7.771 28.806,8.255C28.74,8.541 28.74,8.849 28.674,9.135C28.498,9.882 27.882,10.168 27.333,10.168C26.651,10.168 26.013,9.728 26.013,8.915C26.013,7.287 29.026,5.967 31.753,5.967C33.644,5.967 35.029,6.583 35.029,8.409L34.986,13.313C34.964,13.687 34.941,14.543 35.513,14.543C35.655,14.543 35.789,14.469 35.915,14.371C36.076,14.248 36.302,14.251 36.461,14.378Z" style="fill:rgb(34,31,32);"/>
            <path d="M42.65,14.83C44.277,14.83 44.87,12.565 44.87,11.07C44.87,9.486 44.21,7.375 42.584,7.375C41.11,7.375 41.11,8.893 41.11,9.354C41.11,9.86 41.133,12.323 41.133,12.873C41.133,13.577 41.133,14.83 42.65,14.83ZM37.482,9.618C37.522,7.938 37.282,7.542 36.532,7.335C36.35,7.281 36.226,7.112 36.228,6.923L36.228,6.813C36.227,6.6 36.388,6.418 36.6,6.394C38.085,6.235 39.656,5.83 40.429,5.62C40.465,5.61 40.502,5.605 40.54,5.605C40.738,5.605 40.91,5.746 40.949,5.94C40.972,6.042 40.995,6.167 41.023,6.324C41.057,6.526 41.233,6.675 41.438,6.675C41.516,6.675 41.592,6.653 41.659,6.612C42.522,6.059 43.373,5.77 44.453,5.77C47.114,5.77 48.763,8.057 48.763,10.476C48.763,13.796 46.41,16.106 43.662,16.106C42.819,16.106 42.205,15.891 41.78,15.662C41.717,15.628 41.648,15.61 41.577,15.61C41.346,15.61 41.156,15.799 41.155,16.03L41.155,18.568C41.155,19.419 41.207,20.075 42.117,20.229C42.313,20.268 42.454,20.443 42.452,20.643C42.452,20.643 42.452,20.643 42.452,20.643C42.452,20.875 42.261,21.065 42.03,21.065C42.026,21.065 42.023,21.065 42.02,21.065C40.932,21.035 39.845,21.017 38.758,21.01C37.931,21.01 37.396,21.025 36.692,21.055C36.685,21.055 36.678,21.056 36.672,21.056C36.441,21.056 36.25,20.866 36.25,20.635L36.25,20.58C36.25,20.376 36.392,20.193 36.594,20.159C37.412,20.019 37.482,19.569 37.482,18.942C37.504,18.524 37.504,17.227 37.504,16.743L37.482,9.618ZM60.272,15.974C59.379,15.908 58.795,15.908 56.456,15.908C55.176,15.908 54.665,15.923 53.916,15.976C53.908,15.976 53.9,15.977 53.892,15.977C53.616,15.977 53.39,15.75 53.39,15.475C53.39,15.232 53.566,15.022 53.806,14.98C55.039,14.807 55.092,14.362 55.092,11.575L55.092,4.582C55.07,2.911 55.049,2.405 54.894,2.097C54.728,1.707 54.467,1.615 53.795,1.503C53.555,1.463 53.377,1.253 53.377,1.01C53.377,0.702 53.609,0.477 53.891,0.485C55.127,0.518 56.364,0.535 57.599,0.535C58.839,0.535 59.634,0.508 60.316,0.485C60.328,0.484 60.34,0.484 60.353,0.484C60.627,0.484 60.853,0.71 60.853,0.984C60.853,1.241 60.654,1.459 60.398,1.482C59.095,1.645 59.095,2.04 59.095,4.956L59.117,11.773C59.161,14.083 59.183,14.215 59.447,14.566C59.635,14.788 59.93,14.905 60.382,14.966C60.626,15.002 60.81,15.214 60.81,15.461C60.81,15.464 60.81,15.468 60.81,15.471C60.81,15.748 60.582,15.975 60.306,15.975C60.294,15.975 60.283,15.975 60.272,15.974ZM60.97,15.496C60.97,15.277 61.127,15.091 61.341,15.055C61.673,15 62.075,14.857 62.136,14.435C62.202,13.928 62.202,12.609 62.202,12.279C62.202,11.509 62.18,10.256 62.18,9.486C62.18,8.382 61.81,8.079 61.29,7.932C61.1,7.877 60.969,7.701 60.97,7.503L60.97,7.451C60.97,7.232 61.127,7.048 61.343,7.011C62.438,6.819 64.093,6.351 64.963,6.051C65.01,6.035 65.059,6.027 65.109,6.027C65.301,6.027 65.473,6.151 65.533,6.334C65.551,6.392 65.568,6.447 65.583,6.504C65.638,6.695 65.813,6.827 66.012,6.827C66.093,6.827 66.172,6.806 66.242,6.764C67.072,6.282 67.859,5.924 69.019,5.924C69.854,5.924 70.69,6.144 71.372,6.627C72.444,7.371 72.624,8.507 72.712,9.71C72.714,9.722 72.714,9.734 72.714,9.746L72.714,11.641C72.714,11.971 72.67,13.686 72.67,14.061C72.67,14.617 72.82,14.956 73.548,15.091C73.755,15.134 73.903,15.319 73.901,15.53C73.901,15.53 73.901,15.531 73.901,15.531C73.901,15.776 73.699,15.977 73.455,15.977C73.445,15.977 73.435,15.977 73.425,15.976C72.803,15.934 71.861,15.907 70.316,15.907C69.443,15.907 68.963,15.931 68.516,15.97C68.502,15.971 68.489,15.972 68.476,15.972C68.23,15.972 68.029,15.77 68.029,15.525L68.029,15.431C68.029,15.23 68.164,15.052 68.359,15.001C69.002,14.827 69.082,14.52 69.063,13.181L69.019,9.75C68.996,8.695 68.953,7.485 67.523,7.485C66.928,7.485 66.466,7.703 66.022,8.038C65.903,8.125 65.835,8.265 65.839,8.412C65.874,9.514 65.874,12.642 65.874,13.62C65.874,14.629 66.048,14.908 66.586,15.05C66.778,15.1 66.908,15.28 66.908,15.479C66.908,15.479 66.908,15.538 66.908,15.538C66.908,15.783 66.706,15.985 66.461,15.985C66.451,15.985 66.442,15.985 66.433,15.984C65.686,15.937 64.726,15.907 62.927,15.907C62.235,15.907 61.833,15.929 61.458,15.965C61.444,15.966 61.43,15.967 61.416,15.967C61.171,15.967 60.97,15.766 60.97,15.521C60.97,15.52 60.97,15.496 60.97,15.496ZM83.847,13.582C84.123,13.782 84.161,14.186 83.919,14.426C82.706,15.63 81.07,16.312 79.362,16.326C76.217,16.326 73.908,14.148 73.908,11.157C73.908,8.013 76.591,5.99 79.868,5.99C82.023,5.99 84.068,6.935 84.068,8.519C84.068,9.266 83.431,9.904 82.683,9.904C82.353,9.904 81.957,9.75 81.715,9.508C81.517,9.332 81.473,9.222 81.055,8.277C80.857,7.859 80.417,7.111 79.736,7.111C78.46,7.111 78.108,9.288 78.108,10.366C78.108,12.851 79.516,14.522 81.055,14.522C81.873,14.522 82.55,14.146 83.151,13.618C83.345,13.445 83.635,13.43 83.847,13.582M86.884,12.367C87.962,12.367 88.884,13.225 88.884,14.368C88.884,15.49 87.962,16.348 86.906,16.348C85.832,16.359 84.939,15.486 84.926,14.412C84.926,13.049 85.982,12.367 86.884,12.367" style="fill:rgb(34,31,32);"/>
        </g>
    </g>
</svg>
