<?xml version="1.0" encoding="UTF-8" standalone="no"?>
<!DOCTYPE svg PUBLIC "-//W3C//DTD SVG 1.1//EN" "http://www.w3.org/Graphics/SVG/1.1/DTD/svg11.dtd">
<svg width="100%" height="100%" viewBox="0 0 517 108" version="1.1" xmlns="http://www.w3.org/2000/svg" xmlns:xlink="http://www.w3.org/1999/xlink" xml:space="preserve" xmlns:serif="http://www.serif.com/" style="fill-rule:evenodd;clip-rule:evenodd;stroke-linejoin:round;stroke-miterlimit:2;">
    <g id="Artboard1" transform="matrix(1,0,0,1,-160.677,-246.115)">
        <rect x="160.677" y="246.115" width="516.466" height="107.858" style="fill:none;"/>
        <g transform="matrix(1,0,0,1,0.676967,0.114835)">
            <path d="M349.106,342.578C330.994,342.578 314.182,337.144 302.959,327.074C294.479,319.464 290.405,309.124 290.405,298.486C290.405,287.973 294.655,277.565 302.959,269.996C313.376,260.498 331.782,254.549 349.106,254.549C368.278,254.549 383.624,259.378 395.355,270.021C403.702,277.597 407.739,287.959 407.739,298.486C407.739,308.691 403.454,319.558 395.355,327.074C384.432,337.21 367.267,342.578 349.106,342.578L349.106,330.966C358.721,330.966 367.637,327.646 373.864,321.453C380.05,315.298 382.932,307.73 382.932,298.486C382.932,289.625 379.823,281.346 373.864,275.473C367.718,269.418 358.59,266.013 349.106,266.013C339.594,266.013 330.456,269.385 324.308,275.473C318.382,281.342 315.266,289.65 315.266,298.486C315.266,307.292 318.415,315.589 324.308,321.453C330.459,327.574 339.566,330.966 349.106,330.966L349.106,342.578Z" style="fill:rgb(0,51,102);fill-rule:nonzero;"/>
            <path d="M216.723,254.591C207.036,254.591 196.026,256.404 186.676,260.58C178.045,264.433 170.978,270.66 170.978,280.986C170.973,290.285 176.884,295.73 176.723,295.582C179.239,297.896 183.286,301.837 193.866,304.154C198.595,305.187 208.706,306.773 218.776,307.829C228.766,308.882 238.605,309.882 242.608,310.898C245.791,311.708 251.141,312.812 251.141,318.808C251.141,324.783 245.508,326.607 244.529,326.999C243.549,327.39 236.792,330.488 224.647,330.488C215.678,330.488 204.899,327.79 200.967,326.386C196.44,324.773 191.686,322.64 187.254,317.228C186.152,315.882 184.414,312.193 184.414,308.537L173.418,308.537L173.418,339.341L185.639,339.341L185.639,335.177C185.639,334.704 186.23,332.753 188.282,333.683C190.834,334.843 198.326,337.826 206.159,339.462C212.582,340.802 216.723,341.765 224.708,341.765C237.735,341.765 244.735,339.646 249.573,338.263C254.131,336.96 259.76,334.615 264.339,330.966C266.815,328.994 272.249,323.935 272.249,314.755C272.249,305.947 267.522,300.478 265.858,298.814C263.592,296.548 260.823,294.787 257.937,293.433C255.426,292.252 251.459,290.832 248.215,290.037C241.917,288.49 227.676,286.584 220.864,285.872C213.724,285.125 201.334,284.098 196.387,282.566C194.886,282.101 191.833,280.644 191.833,277.097C191.833,274.571 193.228,272.43 195.993,270.699C200.379,267.952 209.241,266.24 218.481,266.24C229.401,266.202 238.651,268.7 244.535,271.328C246.538,272.221 248.875,273.507 250.737,275.025C252.833,276.736 255.784,280.289 256.845,285.248L266.715,285.248L266.715,258.435L255.696,258.435L255.696,261.549C255.696,262.558 254.658,263.865 252.695,262.782C247.761,260.198 233.816,254.615 216.723,254.591Z" style="fill:rgb(0,51,102);fill-rule:nonzero;"/>
            <path d="M458.223,259.464L511.98,307.976L511.43,275.314C511.373,271.03 510.584,269.242 505.953,269.242L495.844,269.242L495.844,259.472L541.811,259.472L541.811,269.242L531.947,269.242C527.225,269.242 526.928,270.755 526.867,275.314L527.701,337.728L511.959,337.728L450.047,282.467L450.057,321.683C450.113,325.949 450.311,327.954 454.703,327.954L465.744,327.954L465.744,337.724L420.602,337.724L420.602,327.954L431.154,327.954C435.096,327.954 434.939,324.197 434.939,321.462L434.939,275.684C434.939,272.73 434.523,269.248 428.336,269.248L419.775,269.248L419.775,259.464L458.223,259.464Z" style="fill:rgb(0,51,102);fill-rule:nonzero;"/>
            <path d="M594.332,327.937C594.762,327.937 596.68,327.88 597.051,327.767C598.113,327.437 598.834,326.679 599.168,325.89C599.309,325.56 599.379,324.091 599.379,323.777C599.379,323.777 599.385,308.849 599.385,308.333C599.385,307.962 599.357,307.8 598.729,306.976C598.035,306.07 570.572,274.947 569.314,273.578C567.754,271.874 565.014,269.244 560.846,269.244L551.297,269.244L551.297,259.468L605.197,259.468L605.197,269.23L598.699,269.23C597.199,269.23 596.201,270.656 597.482,272.24C597.482,272.24 615.619,293.934 615.791,294.164C615.961,294.392 616.105,294.449 616.334,294.235C616.561,294.02 634.924,272.441 635.068,272.269C635.941,271.224 635.354,269.244 633.469,269.244L626.799,269.244L626.799,259.468L670.979,259.468L670.979,269.244L661.109,269.244C657.527,269.244 656.07,269.904 653.377,272.951C652.145,274.344 624.389,306.027 623.633,306.886C623.236,307.335 623.273,307.962 623.273,308.333L623.273,323.771C623.273,324.083 623.344,325.552 623.484,325.882C623.816,326.675 624.539,327.431 625.602,327.759C625.973,327.874 627.865,327.931 628.295,327.931L638.391,327.931L638.391,337.704L584.766,337.704L584.766,327.931L594.332,327.937Z" style="fill:rgb(0,51,102);fill-rule:nonzero;"/>
        </g>
    </g>
</svg>
