<?xml version="1.0" encoding="UTF-8"?>
<svg id="Layer_1" xmlns="http://www.w3.org/2000/svg" version="1.1" viewBox="0 0 400 330">
  <!-- Generator: Adobe Illustrator 30.4.0, SVG Export Plug-In . SVG Version: 2.1.4 Build 226)  -->
  <defs>
    <style>
      .st0 {
        fill: #fafafa;
      }

      .st1 {
        font-family: NotoSans-Regular, 'Noto Sans';
      }

      .st1, .st2 {
        font-size: 12px;
      }

      .st3 {
        fill: none;
        stroke: #000;
        stroke-miterlimit: 2.5;
      }

      .st4 {
        fill: #ffe0b2;
      }

      .st5 {
        fill: #e3f2fd;
      }

      .st2 {
        font-family: NotoSans-Bold, 'Noto Sans';
        font-weight: 700;
      }
    </style>
  </defs>
  <text class="st1" transform="translate(60.8 40.3)"><tspan x="0" y="0">Saturday 7/11</tspan></text>
  <text class="st1" transform="translate(265.1 40.3)"><tspan x="0" y="0">Sunday 7/12</tspan></text>
  <rect class="st0" y="120" width="200" height="70"/>
  <rect class="st4" y="50" width="200" height="70"/>
  <text class="st1" transform="translate(32.3 71.1)"><tspan x="0" y="0">Cryo-EM Reconstruction</tspan><tspan x="37.5" y="14.4">9:00–12:30</tspan><tspan x="-2.3" y="28.8">Friend Center, Room 004</tspan></text>
  <rect class="st5" y="190" width="200" height="70"/>
  <text class="st1" transform="translate(31.4 211.1)"><tspan x="0" y="0">Interferometric Imaging</tspan><tspan x="34.9" y="14.4">14:00–17:30</tspan><tspan x="-1.4" y="28.8">Friend Center, Room 007</tspan></text>
  <rect class="st0" y="260" width="200" height="70"/>
  <text class="st1" transform="translate(80.8 281.1)"><tspan x="0" y="0">Dinner</tspan><tspan x="-14.5" y="14.4">17:30–20:00</tspan><tspan x="-26.1" y="28.8">Choi Dining Hall</tspan></text>
  <text class="st1" transform="translate(82.9 141.1)"><tspan x="0" y="0">Lunch</tspan><tspan x="-16.5" y="14.4">12:30–14:00</tspan><tspan x="-28.1" y="28.8">Choi Dining Hall</tspan></text>
  <rect class="st0" x="200" y="120" width="200" height="70"/>
  <rect class="st4" x="200" y="50" width="200" height="70"/>
  <text class="st1" transform="translate(255.9 71.1)"><tspan x="0" y="0">Adaptive Optics</tspan><tspan x="13.9" y="14.4">9:00–12:30</tspan><tspan x="-25.9" y="28.8">Friend Center, Room 005</tspan></text>
  <rect class="st5" x="200" y="190" width="200" height="70"/>
  <text class="st1" transform="translate(235.2 211.1)"><tspan x="0" y="0">Single-Photon Imaging</tspan><tspan x="31.1" y="14.4">14:00–17:30</tspan><tspan x="-5.2" y="28.8">Friend Center, Room 004</tspan></text>
  <rect class="st0" x="200" y="260" width="200" height="70"/>
  <text class="st1" transform="translate(280.8 281.1)"><tspan x="0" y="0">Dinner</tspan><tspan x="-14.5" y="14.4">17:30–20:00</tspan><tspan x="-26.1" y="28.8">Choi Dining Hall</tspan></text>
  <text class="st1" transform="translate(282.9 141.1)"><tspan x="0" y="0">Lunch</tspan><tspan x="-16.5" y="14.4">12:30–14:00</tspan><tspan x="-28.1" y="28.8">Choi Dining Hall</tspan></text>
  <line class="st3" x1="200" y1="330" x2="200" y2="25"/>
  <g>
    <line class="st3" y1="50" x2="400" y2="50"/>
    <line class="st3" y1="25" x2="400" y2="25"/>
  </g>
  <text class="st1" transform="translate(60.8 40.3)"><tspan x="0" y="0">Saturday 7/11</tspan></text>
  <text class="st1" transform="translate(60.8 40.3)"><tspan x="0" y="0">Saturday 7/11</tspan></text>
  <text class="st2" transform="translate(140.5 15.3)"><tspan x="0" y="0">Program for fellows</tspan></text>
</svg>