<?xml version="1.0" encoding="UTF-8"?>
<svg id="Layer_1" xmlns="http://www.w3.org/2000/svg" version="1.1" viewBox="0 0 400 330">
  <!-- Generator: Adobe Illustrator 30.4.0, SVG Export Plug-In . SVG Version: 2.1.4 Build 226)  -->
  <defs>
    <style>
      .st0 {
        fill: none;
        stroke: #000;
        stroke-miterlimit: 2.5;
      }

      .st1 {
        font-family: NotoSans-Bold, 'Noto Sans';
        font-weight: 700;
      }

      .st1, .st2 {
        font-size: 12px;
      }

      .st1, .st2, .st3 {
        isolation: isolate;
      }

      .st4 {
        fill: #ffe0b2;
      }

      .st5 {
        fill: #e3f2fd;
      }

      .st2 {
        font-family: NotoSans-Regular, 'Noto Sans';
      }

      .st6 {
        fill: #fafafa;
      }
    </style>
  </defs>
  <g>
    <rect class="st6" y="120" width="200" height="70"/>
    <rect class="st4" y="50" width="200" height="70"/>
    <text class="st2" transform="translate(55.9 71.1)"><tspan x="0" y="0">Adaptive Optics</tspan></text>
    <text class="st2" transform="translate(69.8 85.5)"><tspan x="0" y="0">9:00–12:30</tspan></text>
    <text class="st2" transform="translate(30 99.9)"><tspan x="0" y="0">Friend Center, Room 005</tspan></text>
    <rect class="st5" y="190" width="200" height="70"/>
    <text class="st2" transform="translate(35.2 211.1)"><tspan x="0" y="0">Single-Photon Imaging</tspan></text>
    <text class="st2" transform="translate(66.3 225.5)"><tspan x="0" y="0">14:00–17:30</tspan></text>
    <text class="st2" transform="translate(30 239.9)"><tspan x="0" y="0">Friend Center, Room 004</tspan></text>
    <rect class="st6" y="260" width="200" height="70"/>
    <text class="st2" transform="translate(80.8 281.1)"><tspan x="0" y="0">Dinner</tspan></text>
    <text class="st2" transform="translate(66.3 295.5)"><tspan x="0" y="0">17:30–20:00</tspan></text>
    <text class="st2" transform="translate(54.7 309.9)"><tspan x="0" y="0">Choi Dining Hall</tspan></text>
    <text class="st2" transform="translate(82.9 141.1)"><tspan x="0" y="0">Lunch</tspan></text>
    <text class="st2" transform="translate(66.4 155.5)"><tspan x="0" y="0">12:30–14:00</tspan></text>
    <text class="st2" transform="translate(54.8 169.9)"><tspan x="0" y="0">Choi Dining Hall</tspan></text>
  </g>
  <g class="st3">
    <text class="st2" transform="translate(60.8 40.3)"><tspan x="0" y="0">Saturday 7/11</tspan></text>
  </g>
  <g class="st3">
    <text class="st2" transform="translate(265.1 40.3)"><tspan x="0" y="0">Sunday 7/12</tspan></text>
  </g>
  <g>
    <rect class="st6" x="200" y="120" width="200" height="70"/>
    <rect class="st4" x="200" y="50" width="200" height="70"/>
    <text class="st2" transform="translate(232.3 71.1)"><tspan x="0" y="0">Cryo-EM Reconstruction</tspan></text>
    <text class="st2" transform="translate(269.8 85.5)"><tspan x="0" y="0">9:00–12:30</tspan></text>
    <text class="st2" transform="translate(230 99.9)"><tspan x="0" y="0">Friend Center, Room 004</tspan></text>
    <rect class="st5" x="200" y="190" width="200" height="70"/>
    <text class="st2" transform="translate(231.4 211.1)"><tspan x="0" y="0">Interferometric Imaging</tspan></text>
    <text class="st2" transform="translate(266.3 225.5)"><tspan x="0" y="0">14:00–17:30</tspan></text>
    <text class="st2" transform="translate(230 239.9)"><tspan x="0" y="0">Friend Center, Room 007</tspan></text>
    <rect class="st6" x="200" y="260" width="200" height="70"/>
    <text class="st2" transform="translate(280.8 281.1)"><tspan x="0" y="0">Dinner</tspan></text>
    <text class="st2" transform="translate(266.3 295.5)"><tspan x="0" y="0">17:30–20:00</tspan></text>
    <text class="st2" transform="translate(254.7 309.9)"><tspan x="0" y="0">Choi Dining Hall</tspan></text>
    <text class="st2" transform="translate(282.9 141.1)"><tspan x="0" y="0">Lunch</tspan></text>
    <text class="st2" transform="translate(266.4 155.5)"><tspan x="0" y="0">12:30–14:00</tspan></text>
    <text class="st2" transform="translate(254.8 169.9)"><tspan x="0" y="0">Choi Dining Hall</tspan></text>
  </g>
  <line class="st0" x1="200" y1="330" x2="200" y2="25"/>
  <g>
    <line class="st0" y1="50" x2="400" y2="50"/>
    <line class="st0" y1="25" x2="400" y2="25"/>
  </g>
  <g class="st3">
    <text class="st2" transform="translate(60.8 40.3)"><tspan x="0" y="0">Saturday 7/11</tspan></text>
  </g>
  <g class="st3">
    <text class="st2" transform="translate(60.8 40.3)"><tspan x="0" y="0">Saturday 7/11</tspan></text>
  </g>
  <g class="st3">
    <text class="st1" transform="translate(127 15.3)"><tspan x="0" y="0">Program for non-fellows</tspan></text>
  </g>
</svg>